%TF.GenerationSoftware,KiCad,Pcbnew,8.0.2*%
%TF.CreationDate,2024-06-09T17:22:21+08:00*%
%TF.ProjectId,MW_Buck_Boost_PB,4d575f42-7563-46b5-9f42-6f6f73745f50,rev?*%
%TF.SameCoordinates,Original*%
%TF.FileFunction,Drillmap*%
%TF.FilePolarity,Positive*%
%FSLAX45Y45*%
G04 Gerber Fmt 4.5, Leading zero omitted, Abs format (unit mm)*
G04 Created by KiCad (PCBNEW 8.0.2) date 2024-06-09 17:22:21*
%MOMM*%
%LPD*%
G01*
G04 APERTURE LIST*
%ADD10C,0.050000*%
%ADD11C,0.200000*%
%ADD12C,0.100000*%
%ADD13C,0.107500*%
%ADD14C,0.320000*%
G04 APERTURE END LIST*
D10*
X17075000Y-7027500D02*
X17075000Y-12627500D01*
X16875000Y-6827500D02*
G75*
G02*
X17075000Y-7027500I0J-200000D01*
G01*
X17075000Y-12627500D02*
G75*
G02*
X16875000Y-12827500I-200000J0D01*
G01*
X7275000Y-6827500D02*
X16875000Y-6827500D01*
X7075000Y-7027500D02*
G75*
G02*
X7275000Y-6827500I200000J0D01*
G01*
X7075000Y-12627500D02*
X7075000Y-7027500D01*
X7275000Y-12827500D02*
X16875000Y-12827500D01*
X7275000Y-12827500D02*
G75*
G02*
X7075000Y-12627500I0J200000D01*
G01*
D11*
D12*
X7785000Y-8002500D02*
X7815000Y-8032500D01*
X7815000Y-8002500D02*
X7785000Y-8032500D01*
X7785000Y-8202500D02*
X7815000Y-8232500D01*
X7815000Y-8202500D02*
X7785000Y-8232500D01*
X7785000Y-8402500D02*
X7815000Y-8432500D01*
X7815000Y-8402500D02*
X7785000Y-8432500D01*
X7785000Y-8602500D02*
X7815000Y-8632500D01*
X7815000Y-8602500D02*
X7785000Y-8632500D01*
X7785000Y-8802500D02*
X7815000Y-8832500D01*
X7815000Y-8802500D02*
X7785000Y-8832500D01*
X7785000Y-9002500D02*
X7815000Y-9032500D01*
X7815000Y-9002500D02*
X7785000Y-9032500D01*
X7785000Y-9202500D02*
X7815000Y-9232500D01*
X7815000Y-9202500D02*
X7785000Y-9232500D01*
X7785000Y-9402500D02*
X7815000Y-9432500D01*
X7815000Y-9402500D02*
X7785000Y-9432500D01*
X7785000Y-9602500D02*
X7815000Y-9632500D01*
X7815000Y-9602500D02*
X7785000Y-9632500D01*
X7785000Y-9802500D02*
X7815000Y-9832500D01*
X7815000Y-9802500D02*
X7785000Y-9832500D01*
X7785000Y-10002500D02*
X7815000Y-10032500D01*
X7815000Y-10002500D02*
X7785000Y-10032500D01*
X7785000Y-10202500D02*
X7815000Y-10232500D01*
X7815000Y-10202500D02*
X7785000Y-10232500D01*
X7785000Y-10402500D02*
X7815000Y-10432500D01*
X7815000Y-10402500D02*
X7785000Y-10432500D01*
X7785000Y-10602500D02*
X7815000Y-10632500D01*
X7815000Y-10602500D02*
X7785000Y-10632500D01*
X7785000Y-10802500D02*
X7815000Y-10832500D01*
X7815000Y-10802500D02*
X7785000Y-10832500D01*
X7785000Y-11002500D02*
X7815000Y-11032500D01*
X7815000Y-11002500D02*
X7785000Y-11032500D01*
X7785000Y-11202500D02*
X7815000Y-11232500D01*
X7815000Y-11202500D02*
X7785000Y-11232500D01*
X7785000Y-11402500D02*
X7815000Y-11432500D01*
X7815000Y-11402500D02*
X7785000Y-11432500D01*
X7785000Y-11602500D02*
X7815000Y-11632500D01*
X7815000Y-11602500D02*
X7785000Y-11632500D01*
X7785000Y-11802500D02*
X7815000Y-11832500D01*
X7815000Y-11802500D02*
X7785000Y-11832500D01*
X7790000Y-7630000D02*
X7820000Y-7660000D01*
X7820000Y-7630000D02*
X7790000Y-7660000D01*
X7885000Y-7902500D02*
X7915000Y-7932500D01*
X7915000Y-7902500D02*
X7885000Y-7932500D01*
X7885000Y-8102500D02*
X7915000Y-8132500D01*
X7915000Y-8102500D02*
X7885000Y-8132500D01*
X7885000Y-8302500D02*
X7915000Y-8332500D01*
X7915000Y-8302500D02*
X7885000Y-8332500D01*
X7885000Y-8502500D02*
X7915000Y-8532500D01*
X7915000Y-8502500D02*
X7885000Y-8532500D01*
X7885000Y-8702500D02*
X7915000Y-8732500D01*
X7915000Y-8702500D02*
X7885000Y-8732500D01*
X7885000Y-8902500D02*
X7915000Y-8932500D01*
X7915000Y-8902500D02*
X7885000Y-8932500D01*
X7885000Y-9102500D02*
X7915000Y-9132500D01*
X7915000Y-9102500D02*
X7885000Y-9132500D01*
X7885000Y-9302500D02*
X7915000Y-9332500D01*
X7915000Y-9302500D02*
X7885000Y-9332500D01*
X7885000Y-9502500D02*
X7915000Y-9532500D01*
X7915000Y-9502500D02*
X7885000Y-9532500D01*
X7885000Y-9702500D02*
X7915000Y-9732500D01*
X7915000Y-9702500D02*
X7885000Y-9732500D01*
X7885000Y-9902500D02*
X7915000Y-9932500D01*
X7915000Y-9902500D02*
X7885000Y-9932500D01*
X7885000Y-10102500D02*
X7915000Y-10132500D01*
X7915000Y-10102500D02*
X7885000Y-10132500D01*
X7885000Y-10302500D02*
X7915000Y-10332500D01*
X7915000Y-10302500D02*
X7885000Y-10332500D01*
X7885000Y-10502500D02*
X7915000Y-10532500D01*
X7915000Y-10502500D02*
X7885000Y-10532500D01*
X7885000Y-10702500D02*
X7915000Y-10732500D01*
X7915000Y-10702500D02*
X7885000Y-10732500D01*
X7885000Y-10902500D02*
X7915000Y-10932500D01*
X7915000Y-10902500D02*
X7885000Y-10932500D01*
X7885000Y-11102500D02*
X7915000Y-11132500D01*
X7915000Y-11102500D02*
X7885000Y-11132500D01*
X7885000Y-11302500D02*
X7915000Y-11332500D01*
X7915000Y-11302500D02*
X7885000Y-11332500D01*
X7885000Y-11502500D02*
X7915000Y-11532500D01*
X7915000Y-11502500D02*
X7885000Y-11532500D01*
X7885000Y-11702500D02*
X7915000Y-11732500D01*
X7915000Y-11702500D02*
X7885000Y-11732500D01*
X7897500Y-7790000D02*
X7927500Y-7820000D01*
X7927500Y-7790000D02*
X7897500Y-7820000D01*
X7902500Y-7442500D02*
X7932500Y-7472500D01*
X7932500Y-7442500D02*
X7902500Y-7472500D01*
X7902500Y-7642500D02*
X7932500Y-7672500D01*
X7932500Y-7642500D02*
X7902500Y-7672500D01*
X7985000Y-8002500D02*
X8015000Y-8032500D01*
X8015000Y-8002500D02*
X7985000Y-8032500D01*
X7985000Y-8202500D02*
X8015000Y-8232500D01*
X8015000Y-8202500D02*
X7985000Y-8232500D01*
X7985000Y-8402500D02*
X8015000Y-8432500D01*
X8015000Y-8402500D02*
X7985000Y-8432500D01*
X7985000Y-8602500D02*
X8015000Y-8632500D01*
X8015000Y-8602500D02*
X7985000Y-8632500D01*
X7985000Y-8802500D02*
X8015000Y-8832500D01*
X8015000Y-8802500D02*
X7985000Y-8832500D01*
X7985000Y-9002500D02*
X8015000Y-9032500D01*
X8015000Y-9002500D02*
X7985000Y-9032500D01*
X7985000Y-9202500D02*
X8015000Y-9232500D01*
X8015000Y-9202500D02*
X7985000Y-9232500D01*
X7985000Y-9402500D02*
X8015000Y-9432500D01*
X8015000Y-9402500D02*
X7985000Y-9432500D01*
X7985000Y-9602500D02*
X8015000Y-9632500D01*
X8015000Y-9602500D02*
X7985000Y-9632500D01*
X7985000Y-9802500D02*
X8015000Y-9832500D01*
X8015000Y-9802500D02*
X7985000Y-9832500D01*
X7985000Y-10002500D02*
X8015000Y-10032500D01*
X8015000Y-10002500D02*
X7985000Y-10032500D01*
X7985000Y-10202500D02*
X8015000Y-10232500D01*
X8015000Y-10202500D02*
X7985000Y-10232500D01*
X7985000Y-10402500D02*
X8015000Y-10432500D01*
X8015000Y-10402500D02*
X7985000Y-10432500D01*
X7985000Y-10602500D02*
X8015000Y-10632500D01*
X8015000Y-10602500D02*
X7985000Y-10632500D01*
X7985000Y-10802500D02*
X8015000Y-10832500D01*
X8015000Y-10802500D02*
X7985000Y-10832500D01*
X7985000Y-11002500D02*
X8015000Y-11032500D01*
X8015000Y-11002500D02*
X7985000Y-11032500D01*
X7985000Y-11202500D02*
X8015000Y-11232500D01*
X8015000Y-11202500D02*
X7985000Y-11232500D01*
X7985000Y-11402500D02*
X8015000Y-11432500D01*
X8015000Y-11402500D02*
X7985000Y-11432500D01*
X7985000Y-11602500D02*
X8015000Y-11632500D01*
X8015000Y-11602500D02*
X7985000Y-11632500D01*
X7985000Y-11802500D02*
X8015000Y-11832500D01*
X8015000Y-11802500D02*
X7985000Y-11832500D01*
X8002500Y-7542500D02*
X8032500Y-7572500D01*
X8032500Y-7542500D02*
X8002500Y-7572500D01*
X8002500Y-7742500D02*
X8032500Y-7772500D01*
X8032500Y-7742500D02*
X8002500Y-7772500D01*
X8085000Y-7902500D02*
X8115000Y-7932500D01*
X8115000Y-7902500D02*
X8085000Y-7932500D01*
X8085000Y-8102500D02*
X8115000Y-8132500D01*
X8115000Y-8102500D02*
X8085000Y-8132500D01*
X8085000Y-8302500D02*
X8115000Y-8332500D01*
X8115000Y-8302500D02*
X8085000Y-8332500D01*
X8085000Y-8502500D02*
X8115000Y-8532500D01*
X8115000Y-8502500D02*
X8085000Y-8532500D01*
X8085000Y-8702500D02*
X8115000Y-8732500D01*
X8115000Y-8702500D02*
X8085000Y-8732500D01*
X8085000Y-8902500D02*
X8115000Y-8932500D01*
X8115000Y-8902500D02*
X8085000Y-8932500D01*
X8085000Y-9102500D02*
X8115000Y-9132500D01*
X8115000Y-9102500D02*
X8085000Y-9132500D01*
X8085000Y-9302500D02*
X8115000Y-9332500D01*
X8115000Y-9302500D02*
X8085000Y-9332500D01*
X8085000Y-9502500D02*
X8115000Y-9532500D01*
X8115000Y-9502500D02*
X8085000Y-9532500D01*
X8085000Y-9702500D02*
X8115000Y-9732500D01*
X8115000Y-9702500D02*
X8085000Y-9732500D01*
X8085000Y-9902500D02*
X8115000Y-9932500D01*
X8115000Y-9902500D02*
X8085000Y-9932500D01*
X8085000Y-10102500D02*
X8115000Y-10132500D01*
X8115000Y-10102500D02*
X8085000Y-10132500D01*
X8085000Y-10302500D02*
X8115000Y-10332500D01*
X8115000Y-10302500D02*
X8085000Y-10332500D01*
X8085000Y-10502500D02*
X8115000Y-10532500D01*
X8115000Y-10502500D02*
X8085000Y-10532500D01*
X8085000Y-10702500D02*
X8115000Y-10732500D01*
X8115000Y-10702500D02*
X8085000Y-10732500D01*
X8085000Y-10902500D02*
X8115000Y-10932500D01*
X8115000Y-10902500D02*
X8085000Y-10932500D01*
X8085000Y-11102500D02*
X8115000Y-11132500D01*
X8115000Y-11102500D02*
X8085000Y-11132500D01*
X8085000Y-11302500D02*
X8115000Y-11332500D01*
X8115000Y-11302500D02*
X8085000Y-11332500D01*
X8085000Y-11502500D02*
X8115000Y-11532500D01*
X8115000Y-11502500D02*
X8085000Y-11532500D01*
X8085000Y-11702500D02*
X8115000Y-11732500D01*
X8115000Y-11702500D02*
X8085000Y-11732500D01*
X8102500Y-7442500D02*
X8132500Y-7472500D01*
X8132500Y-7442500D02*
X8102500Y-7472500D01*
X8102500Y-7642500D02*
X8132500Y-7672500D01*
X8132500Y-7642500D02*
X8102500Y-7672500D01*
X8202500Y-7542500D02*
X8232500Y-7572500D01*
X8232500Y-7542500D02*
X8202500Y-7572500D01*
X8202500Y-7742500D02*
X8232500Y-7772500D01*
X8232500Y-7742500D02*
X8202500Y-7772500D01*
X8265000Y-8735000D02*
X8295000Y-8765000D01*
X8295000Y-8735000D02*
X8265000Y-8765000D01*
X8265000Y-8935000D02*
X8295000Y-8965000D01*
X8295000Y-8935000D02*
X8265000Y-8965000D01*
X8302500Y-7442500D02*
X8332500Y-7472500D01*
X8332500Y-7442500D02*
X8302500Y-7472500D01*
X8302500Y-7642500D02*
X8332500Y-7672500D01*
X8332500Y-7642500D02*
X8302500Y-7672500D01*
X8305000Y-7852500D02*
X8335000Y-7882500D01*
X8335000Y-7852500D02*
X8305000Y-7882500D01*
X8314969Y-8270034D02*
X8344969Y-8300034D01*
X8344969Y-8270034D02*
X8314969Y-8300034D01*
X8314969Y-8470034D02*
X8344969Y-8500034D01*
X8344969Y-8470034D02*
X8314969Y-8500034D01*
X8365000Y-8835000D02*
X8395000Y-8865000D01*
X8395000Y-8835000D02*
X8365000Y-8865000D01*
X8365000Y-9035000D02*
X8395000Y-9065000D01*
X8395000Y-9035000D02*
X8365000Y-9065000D01*
X8402500Y-7542500D02*
X8432500Y-7572500D01*
X8432500Y-7542500D02*
X8402500Y-7572500D01*
X8402500Y-7742500D02*
X8432500Y-7772500D01*
X8432500Y-7742500D02*
X8402500Y-7772500D01*
X8414969Y-8170034D02*
X8444969Y-8200034D01*
X8444969Y-8170034D02*
X8414969Y-8200034D01*
X8414969Y-8370034D02*
X8444969Y-8400034D01*
X8444969Y-8370034D02*
X8414969Y-8400034D01*
X8415466Y-9814469D02*
X8445466Y-9844469D01*
X8445466Y-9814469D02*
X8415466Y-9844469D01*
X8415466Y-10014469D02*
X8445466Y-10044469D01*
X8445466Y-10014469D02*
X8415466Y-10044469D01*
X8415466Y-10214469D02*
X8445466Y-10244469D01*
X8445466Y-10214469D02*
X8415466Y-10244469D01*
X8465000Y-8735000D02*
X8495000Y-8765000D01*
X8495000Y-8735000D02*
X8465000Y-8765000D01*
X8465000Y-8935000D02*
X8495000Y-8965000D01*
X8495000Y-8935000D02*
X8465000Y-8965000D01*
X8502500Y-7442500D02*
X8532500Y-7472500D01*
X8532500Y-7442500D02*
X8502500Y-7472500D01*
X8502500Y-7642500D02*
X8532500Y-7672500D01*
X8532500Y-7642500D02*
X8502500Y-7672500D01*
X8502500Y-7860000D02*
X8532500Y-7890000D01*
X8532500Y-7860000D02*
X8502500Y-7890000D01*
X8514969Y-8270034D02*
X8544969Y-8300034D01*
X8544969Y-8270034D02*
X8514969Y-8300034D01*
X8514969Y-8470034D02*
X8544969Y-8500034D01*
X8544969Y-8470034D02*
X8514969Y-8500034D01*
X8515466Y-9914469D02*
X8545466Y-9944469D01*
X8545466Y-9914469D02*
X8515466Y-9944469D01*
X8515466Y-10114469D02*
X8545466Y-10144469D01*
X8545466Y-10114469D02*
X8515466Y-10144469D01*
X8535000Y-10312500D02*
X8565000Y-10342500D01*
X8565000Y-10312500D02*
X8535000Y-10342500D01*
X8535000Y-10512500D02*
X8565000Y-10542500D01*
X8565000Y-10512500D02*
X8535000Y-10542500D01*
X8565000Y-8835000D02*
X8595000Y-8865000D01*
X8595000Y-8835000D02*
X8565000Y-8865000D01*
X8565000Y-9035000D02*
X8595000Y-9065000D01*
X8595000Y-9035000D02*
X8565000Y-9065000D01*
X8602500Y-7542500D02*
X8632500Y-7572500D01*
X8632500Y-7542500D02*
X8602500Y-7572500D01*
X8602500Y-7742500D02*
X8632500Y-7772500D01*
X8632500Y-7742500D02*
X8602500Y-7772500D01*
X8614969Y-8170034D02*
X8644969Y-8200034D01*
X8644969Y-8170034D02*
X8614969Y-8200034D01*
X8614969Y-8370034D02*
X8644969Y-8400034D01*
X8644969Y-8370034D02*
X8614969Y-8400034D01*
X8615466Y-9814469D02*
X8645466Y-9844469D01*
X8645466Y-9814469D02*
X8615466Y-9844469D01*
X8615466Y-10014469D02*
X8645466Y-10044469D01*
X8645466Y-10014469D02*
X8615466Y-10044469D01*
X8615466Y-10214469D02*
X8645466Y-10244469D01*
X8645466Y-10214469D02*
X8615466Y-10244469D01*
X8635000Y-10412500D02*
X8665000Y-10442500D01*
X8665000Y-10412500D02*
X8635000Y-10442500D01*
X8635000Y-10612500D02*
X8665000Y-10642500D01*
X8665000Y-10612500D02*
X8635000Y-10642500D01*
X8665000Y-8735000D02*
X8695000Y-8765000D01*
X8695000Y-8735000D02*
X8665000Y-8765000D01*
X8665000Y-8935000D02*
X8695000Y-8965000D01*
X8695000Y-8935000D02*
X8665000Y-8965000D01*
X8702500Y-7442500D02*
X8732500Y-7472500D01*
X8732500Y-7442500D02*
X8702500Y-7472500D01*
X8702500Y-7642500D02*
X8732500Y-7672500D01*
X8732500Y-7642500D02*
X8702500Y-7672500D01*
X8705000Y-7865000D02*
X8735000Y-7895000D01*
X8735000Y-7865000D02*
X8705000Y-7895000D01*
X8714969Y-8270034D02*
X8744969Y-8300034D01*
X8744969Y-8270034D02*
X8714969Y-8300034D01*
X8714969Y-8470034D02*
X8744969Y-8500034D01*
X8744969Y-8470034D02*
X8714969Y-8500034D01*
X8715466Y-9914469D02*
X8745466Y-9944469D01*
X8745466Y-9914469D02*
X8715466Y-9944469D01*
X8715466Y-10114469D02*
X8745466Y-10144469D01*
X8745466Y-10114469D02*
X8715466Y-10144469D01*
X8735000Y-10312500D02*
X8765000Y-10342500D01*
X8765000Y-10312500D02*
X8735000Y-10342500D01*
X8735000Y-10512500D02*
X8765000Y-10542500D01*
X8765000Y-10512500D02*
X8735000Y-10542500D01*
X8765000Y-8835000D02*
X8795000Y-8865000D01*
X8795000Y-8835000D02*
X8765000Y-8865000D01*
X8765000Y-9035000D02*
X8795000Y-9065000D01*
X8795000Y-9035000D02*
X8765000Y-9065000D01*
X8792640Y-9833289D02*
X8822640Y-9863289D01*
X8822640Y-9833289D02*
X8792640Y-9863289D01*
X8792640Y-10033289D02*
X8822640Y-10063289D01*
X8822640Y-10033289D02*
X8792640Y-10063289D01*
X8802500Y-7542500D02*
X8832500Y-7572500D01*
X8832500Y-7542500D02*
X8802500Y-7572500D01*
X8802500Y-7742500D02*
X8832500Y-7772500D01*
X8832500Y-7742500D02*
X8802500Y-7772500D01*
X8813000Y-8150500D02*
X8843000Y-8180500D01*
X8843000Y-8150500D02*
X8813000Y-8180500D01*
X8813000Y-8350500D02*
X8843000Y-8380500D01*
X8843000Y-8350500D02*
X8813000Y-8380500D01*
X8835000Y-10412500D02*
X8865000Y-10442500D01*
X8865000Y-10412500D02*
X8835000Y-10442500D01*
X8835000Y-10612500D02*
X8865000Y-10642500D01*
X8865000Y-10612500D02*
X8835000Y-10642500D01*
X8865000Y-8735000D02*
X8895000Y-8765000D01*
X8895000Y-8735000D02*
X8865000Y-8765000D01*
X8865000Y-8935000D02*
X8895000Y-8965000D01*
X8895000Y-8935000D02*
X8865000Y-8965000D01*
X8892640Y-9933289D02*
X8922640Y-9963289D01*
X8922640Y-9933289D02*
X8892640Y-9963289D01*
X8892640Y-10133289D02*
X8922640Y-10163289D01*
X8922640Y-10133289D02*
X8892640Y-10163289D01*
X8902500Y-7442500D02*
X8932500Y-7472500D01*
X8932500Y-7442500D02*
X8902500Y-7472500D01*
X8902500Y-7642500D02*
X8932500Y-7672500D01*
X8932500Y-7642500D02*
X8902500Y-7672500D01*
X8905000Y-7877500D02*
X8935000Y-7907500D01*
X8935000Y-7877500D02*
X8905000Y-7907500D01*
X8935000Y-10312500D02*
X8965000Y-10342500D01*
X8965000Y-10312500D02*
X8935000Y-10342500D01*
X8935000Y-10512500D02*
X8965000Y-10542500D01*
X8965000Y-10512500D02*
X8935000Y-10542500D01*
X8965000Y-8835000D02*
X8995000Y-8865000D01*
X8995000Y-8835000D02*
X8965000Y-8865000D01*
X8965000Y-9035000D02*
X8995000Y-9065000D01*
X8995000Y-9035000D02*
X8965000Y-9065000D01*
X8992640Y-9833289D02*
X9022640Y-9863289D01*
X9022640Y-9833289D02*
X8992640Y-9863289D01*
X8992640Y-10033289D02*
X9022640Y-10063289D01*
X9022640Y-10033289D02*
X8992640Y-10063289D01*
X9002500Y-7542500D02*
X9032500Y-7572500D01*
X9032500Y-7542500D02*
X9002500Y-7572500D01*
X9002500Y-7742500D02*
X9032500Y-7772500D01*
X9032500Y-7742500D02*
X9002500Y-7772500D01*
X9035000Y-10412500D02*
X9065000Y-10442500D01*
X9065000Y-10412500D02*
X9035000Y-10442500D01*
X9035000Y-10612500D02*
X9065000Y-10642500D01*
X9065000Y-10612500D02*
X9035000Y-10642500D01*
X9065000Y-8735000D02*
X9095000Y-8765000D01*
X9095000Y-8735000D02*
X9065000Y-8765000D01*
X9065000Y-8935000D02*
X9095000Y-8965000D01*
X9095000Y-8935000D02*
X9065000Y-8965000D01*
X9092640Y-9933289D02*
X9122640Y-9963289D01*
X9122640Y-9933289D02*
X9092640Y-9963289D01*
X9092640Y-10133289D02*
X9122640Y-10163289D01*
X9122640Y-10133289D02*
X9092640Y-10163289D01*
X9093969Y-8280034D02*
X9123969Y-8310034D01*
X9123969Y-8280034D02*
X9093969Y-8310034D01*
X9093969Y-8480034D02*
X9123969Y-8510034D01*
X9123969Y-8480034D02*
X9093969Y-8510034D01*
X9107500Y-7440000D02*
X9137500Y-7470000D01*
X9137500Y-7440000D02*
X9107500Y-7470000D01*
X9107500Y-7640000D02*
X9137500Y-7670000D01*
X9137500Y-7640000D02*
X9107500Y-7670000D01*
X9110000Y-7890000D02*
X9140000Y-7920000D01*
X9140000Y-7890000D02*
X9110000Y-7920000D01*
X9135000Y-10312500D02*
X9165000Y-10342500D01*
X9165000Y-10312500D02*
X9135000Y-10342500D01*
X9135000Y-10512500D02*
X9165000Y-10542500D01*
X9165000Y-10512500D02*
X9135000Y-10542500D01*
X9165000Y-8835000D02*
X9195000Y-8865000D01*
X9195000Y-8835000D02*
X9165000Y-8865000D01*
X9165000Y-9035000D02*
X9195000Y-9065000D01*
X9195000Y-9035000D02*
X9165000Y-9065000D01*
X9192640Y-9833289D02*
X9222640Y-9863289D01*
X9222640Y-9833289D02*
X9192640Y-9863289D01*
X9192640Y-10033289D02*
X9222640Y-10063289D01*
X9222640Y-10033289D02*
X9192640Y-10063289D01*
X9193969Y-8180034D02*
X9223969Y-8210034D01*
X9223969Y-8180034D02*
X9193969Y-8210034D01*
X9193969Y-8380034D02*
X9223969Y-8410034D01*
X9223969Y-8380034D02*
X9193969Y-8410034D01*
X9207500Y-7540000D02*
X9237500Y-7570000D01*
X9237500Y-7540000D02*
X9207500Y-7570000D01*
X9207500Y-7740000D02*
X9237500Y-7770000D01*
X9237500Y-7740000D02*
X9207500Y-7770000D01*
X9235000Y-10412500D02*
X9265000Y-10442500D01*
X9265000Y-10412500D02*
X9235000Y-10442500D01*
X9235000Y-10612500D02*
X9265000Y-10642500D01*
X9265000Y-10612500D02*
X9235000Y-10642500D01*
X9265000Y-8735000D02*
X9295000Y-8765000D01*
X9295000Y-8735000D02*
X9265000Y-8765000D01*
X9265000Y-8935000D02*
X9295000Y-8965000D01*
X9295000Y-8935000D02*
X9265000Y-8965000D01*
X9292640Y-9933289D02*
X9322640Y-9963289D01*
X9322640Y-9933289D02*
X9292640Y-9963289D01*
X9292640Y-10133289D02*
X9322640Y-10163289D01*
X9322640Y-10133289D02*
X9292640Y-10163289D01*
X9293969Y-8280034D02*
X9323969Y-8310034D01*
X9323969Y-8280034D02*
X9293969Y-8310034D01*
X9293969Y-8480034D02*
X9323969Y-8510034D01*
X9323969Y-8480034D02*
X9293969Y-8510034D01*
X9305000Y-7895000D02*
X9335000Y-7925000D01*
X9335000Y-7895000D02*
X9305000Y-7925000D01*
X9307500Y-7440000D02*
X9337500Y-7470000D01*
X9337500Y-7440000D02*
X9307500Y-7470000D01*
X9307500Y-7640000D02*
X9337500Y-7670000D01*
X9337500Y-7640000D02*
X9307500Y-7670000D01*
X9335000Y-10312500D02*
X9365000Y-10342500D01*
X9365000Y-10312500D02*
X9335000Y-10342500D01*
X9335000Y-10512500D02*
X9365000Y-10542500D01*
X9365000Y-10512500D02*
X9335000Y-10542500D01*
X9365000Y-8835000D02*
X9395000Y-8865000D01*
X9395000Y-8835000D02*
X9365000Y-8865000D01*
X9365000Y-9035000D02*
X9395000Y-9065000D01*
X9395000Y-9035000D02*
X9365000Y-9065000D01*
X9392640Y-9833289D02*
X9422640Y-9863289D01*
X9422640Y-9833289D02*
X9392640Y-9863289D01*
X9392640Y-10033289D02*
X9422640Y-10063289D01*
X9422640Y-10033289D02*
X9392640Y-10063289D01*
X9393969Y-8180034D02*
X9423969Y-8210034D01*
X9423969Y-8180034D02*
X9393969Y-8210034D01*
X9393969Y-8380034D02*
X9423969Y-8410034D01*
X9423969Y-8380034D02*
X9393969Y-8410034D01*
X9407500Y-7540000D02*
X9437500Y-7570000D01*
X9437500Y-7540000D02*
X9407500Y-7570000D01*
X9407500Y-7740000D02*
X9437500Y-7770000D01*
X9437500Y-7740000D02*
X9407500Y-7770000D01*
X9465000Y-8735000D02*
X9495000Y-8765000D01*
X9495000Y-8735000D02*
X9465000Y-8765000D01*
X9465000Y-8935000D02*
X9495000Y-8965000D01*
X9495000Y-8935000D02*
X9465000Y-8965000D01*
X9492640Y-9933289D02*
X9522640Y-9963289D01*
X9522640Y-9933289D02*
X9492640Y-9963289D01*
X9492640Y-10133289D02*
X9522640Y-10163289D01*
X9522640Y-10133289D02*
X9492640Y-10163289D01*
X9493969Y-8280034D02*
X9523969Y-8310034D01*
X9523969Y-8280034D02*
X9493969Y-8310034D01*
X9493969Y-8480034D02*
X9523969Y-8510034D01*
X9523969Y-8480034D02*
X9493969Y-8510034D01*
X9507500Y-7440000D02*
X9537500Y-7470000D01*
X9537500Y-7440000D02*
X9507500Y-7470000D01*
X9507500Y-7640000D02*
X9537500Y-7670000D01*
X9537500Y-7640000D02*
X9507500Y-7670000D01*
X9510000Y-7912500D02*
X9540000Y-7942500D01*
X9540000Y-7912500D02*
X9510000Y-7942500D01*
X9565000Y-8835000D02*
X9595000Y-8865000D01*
X9595000Y-8835000D02*
X9565000Y-8865000D01*
X9565000Y-9035000D02*
X9595000Y-9065000D01*
X9595000Y-9035000D02*
X9565000Y-9065000D01*
X9592000Y-8160500D02*
X9622000Y-8190500D01*
X9622000Y-8160500D02*
X9592000Y-8190500D01*
X9592000Y-8360500D02*
X9622000Y-8390500D01*
X9622000Y-8360500D02*
X9592000Y-8390500D01*
X9592640Y-9833289D02*
X9622640Y-9863289D01*
X9622640Y-9833289D02*
X9592640Y-9863289D01*
X9592640Y-10033289D02*
X9622640Y-10063289D01*
X9622640Y-10033289D02*
X9592640Y-10063289D01*
X9607500Y-7540000D02*
X9637500Y-7570000D01*
X9637500Y-7540000D02*
X9607500Y-7570000D01*
X9607500Y-7740000D02*
X9637500Y-7770000D01*
X9637500Y-7740000D02*
X9607500Y-7770000D01*
X9665000Y-8735000D02*
X9695000Y-8765000D01*
X9695000Y-8735000D02*
X9665000Y-8765000D01*
X9665000Y-8935000D02*
X9695000Y-8965000D01*
X9695000Y-8935000D02*
X9665000Y-8965000D01*
X9707500Y-7440000D02*
X9737500Y-7470000D01*
X9737500Y-7440000D02*
X9707500Y-7470000D01*
X9707500Y-7640000D02*
X9737500Y-7670000D01*
X9737500Y-7640000D02*
X9707500Y-7670000D01*
X9710000Y-7915000D02*
X9740000Y-7945000D01*
X9740000Y-7915000D02*
X9710000Y-7945000D01*
X9765000Y-8835000D02*
X9795000Y-8865000D01*
X9795000Y-8835000D02*
X9765000Y-8865000D01*
X9765000Y-9035000D02*
X9795000Y-9065000D01*
X9795000Y-9035000D02*
X9765000Y-9065000D01*
X9807500Y-7540000D02*
X9837500Y-7570000D01*
X9837500Y-7540000D02*
X9807500Y-7570000D01*
X9807500Y-7740000D02*
X9837500Y-7770000D01*
X9837500Y-7740000D02*
X9807500Y-7770000D01*
X9822500Y-11817500D02*
X9852500Y-11847500D01*
X9852500Y-11817500D02*
X9822500Y-11847500D01*
X9865000Y-8735000D02*
X9895000Y-8765000D01*
X9895000Y-8735000D02*
X9865000Y-8765000D01*
X9865000Y-8935000D02*
X9895000Y-8965000D01*
X9895000Y-8935000D02*
X9865000Y-8965000D01*
X9872500Y-11566500D02*
X9902500Y-11596500D01*
X9902500Y-11566500D02*
X9872500Y-11596500D01*
X9907500Y-7440000D02*
X9937500Y-7470000D01*
X9937500Y-7440000D02*
X9907500Y-7470000D01*
X9907500Y-7640000D02*
X9937500Y-7670000D01*
X9937500Y-7640000D02*
X9907500Y-7670000D01*
X9915000Y-7920000D02*
X9945000Y-7950000D01*
X9945000Y-7920000D02*
X9915000Y-7950000D01*
X9965000Y-8835000D02*
X9995000Y-8865000D01*
X9995000Y-8835000D02*
X9965000Y-8865000D01*
X9965000Y-9035000D02*
X9995000Y-9065000D01*
X9995000Y-9035000D02*
X9965000Y-9065000D01*
X9995000Y-12167500D02*
X10025000Y-12197500D01*
X10025000Y-12167500D02*
X9995000Y-12197500D01*
X10007500Y-7540000D02*
X10037500Y-7570000D01*
X10037500Y-7540000D02*
X10007500Y-7570000D01*
X10007500Y-7740000D02*
X10037500Y-7770000D01*
X10037500Y-7740000D02*
X10007500Y-7770000D01*
X10023890Y-10927500D02*
X10053890Y-10957500D01*
X10053890Y-10927500D02*
X10023890Y-10957500D01*
X10025000Y-10767500D02*
X10055000Y-10797500D01*
X10055000Y-10767500D02*
X10025000Y-10797500D01*
X10065000Y-8735000D02*
X10095000Y-8765000D01*
X10095000Y-8735000D02*
X10065000Y-8765000D01*
X10065000Y-8935000D02*
X10095000Y-8965000D01*
X10095000Y-8935000D02*
X10065000Y-8965000D01*
X10165000Y-8835000D02*
X10195000Y-8865000D01*
X10195000Y-8835000D02*
X10165000Y-8865000D01*
X10165000Y-9035000D02*
X10195000Y-9065000D01*
X10195000Y-9035000D02*
X10165000Y-9065000D01*
X10177500Y-11685000D02*
X10207500Y-11715000D01*
X10207500Y-11685000D02*
X10177500Y-11715000D01*
X10246000Y-11016500D02*
X10276000Y-11046500D01*
X10276000Y-11016500D02*
X10246000Y-11046500D01*
X10265000Y-8735000D02*
X10295000Y-8765000D01*
X10295000Y-8735000D02*
X10265000Y-8765000D01*
X10265000Y-8935000D02*
X10295000Y-8965000D01*
X10295000Y-8935000D02*
X10265000Y-8965000D01*
X10365000Y-8835000D02*
X10395000Y-8865000D01*
X10395000Y-8835000D02*
X10365000Y-8865000D01*
X10365000Y-9035000D02*
X10395000Y-9065000D01*
X10395000Y-9035000D02*
X10365000Y-9065000D01*
X10390000Y-9255000D02*
X10420000Y-9285000D01*
X10420000Y-9255000D02*
X10390000Y-9285000D01*
X10390000Y-9355000D02*
X10420000Y-9385000D01*
X10420000Y-9355000D02*
X10390000Y-9385000D01*
X10390000Y-9455000D02*
X10420000Y-9485000D01*
X10420000Y-9455000D02*
X10390000Y-9485000D01*
X10390000Y-9555000D02*
X10420000Y-9585000D01*
X10420000Y-9555000D02*
X10390000Y-9585000D01*
X10398466Y-7991469D02*
X10428466Y-8021469D01*
X10428466Y-7991469D02*
X10398466Y-8021469D01*
X10398466Y-8191469D02*
X10428466Y-8221469D01*
X10428466Y-8191469D02*
X10398466Y-8221469D01*
X10398466Y-8391469D02*
X10428466Y-8421469D01*
X10428466Y-8391469D02*
X10398466Y-8421469D01*
X10465000Y-8735000D02*
X10495000Y-8765000D01*
X10495000Y-8735000D02*
X10465000Y-8765000D01*
X10465000Y-8935000D02*
X10495000Y-8965000D01*
X10495000Y-8935000D02*
X10465000Y-8965000D01*
X10490000Y-9255000D02*
X10520000Y-9285000D01*
X10520000Y-9255000D02*
X10490000Y-9285000D01*
X10490000Y-9355000D02*
X10520000Y-9385000D01*
X10520000Y-9355000D02*
X10490000Y-9385000D01*
X10490000Y-9455000D02*
X10520000Y-9485000D01*
X10520000Y-9455000D02*
X10490000Y-9485000D01*
X10490000Y-9555000D02*
X10520000Y-9585000D01*
X10520000Y-9555000D02*
X10490000Y-9585000D01*
X10498466Y-8091469D02*
X10528466Y-8121469D01*
X10528466Y-8091469D02*
X10498466Y-8121469D01*
X10498466Y-8291469D02*
X10528466Y-8321469D01*
X10528466Y-8291469D02*
X10498466Y-8321469D01*
X10518000Y-8489500D02*
X10548000Y-8519500D01*
X10548000Y-8489500D02*
X10518000Y-8519500D01*
X10565000Y-8835000D02*
X10595000Y-8865000D01*
X10595000Y-8835000D02*
X10565000Y-8865000D01*
X10565000Y-9035000D02*
X10595000Y-9065000D01*
X10595000Y-9035000D02*
X10565000Y-9065000D01*
X10590000Y-9255000D02*
X10620000Y-9285000D01*
X10620000Y-9255000D02*
X10590000Y-9285000D01*
X10590000Y-9355000D02*
X10620000Y-9385000D01*
X10620000Y-9355000D02*
X10590000Y-9385000D01*
X10590000Y-9455000D02*
X10620000Y-9485000D01*
X10620000Y-9455000D02*
X10590000Y-9485000D01*
X10590000Y-9555000D02*
X10620000Y-9585000D01*
X10620000Y-9555000D02*
X10590000Y-9585000D01*
X10598466Y-7991469D02*
X10628466Y-8021469D01*
X10628466Y-7991469D02*
X10598466Y-8021469D01*
X10598466Y-8191469D02*
X10628466Y-8221469D01*
X10628466Y-8191469D02*
X10598466Y-8221469D01*
X10598466Y-8391469D02*
X10628466Y-8421469D01*
X10628466Y-8391469D02*
X10598466Y-8421469D01*
X10622000Y-9857500D02*
X10652000Y-9887500D01*
X10652000Y-9857500D02*
X10622000Y-9887500D01*
X10622000Y-9957500D02*
X10652000Y-9987500D01*
X10652000Y-9957500D02*
X10622000Y-9987500D01*
X10622000Y-10057500D02*
X10652000Y-10087500D01*
X10652000Y-10057500D02*
X10622000Y-10087500D01*
X10622000Y-10157500D02*
X10652000Y-10187500D01*
X10652000Y-10157500D02*
X10622000Y-10187500D01*
X10640000Y-8720000D02*
X10670000Y-8750000D01*
X10670000Y-8720000D02*
X10640000Y-8750000D01*
X10640000Y-8920000D02*
X10670000Y-8950000D01*
X10670000Y-8920000D02*
X10640000Y-8950000D01*
X10690000Y-9255000D02*
X10720000Y-9285000D01*
X10720000Y-9255000D02*
X10690000Y-9285000D01*
X10690000Y-9355000D02*
X10720000Y-9385000D01*
X10720000Y-9355000D02*
X10690000Y-9385000D01*
X10690000Y-9455000D02*
X10720000Y-9485000D01*
X10720000Y-9455000D02*
X10690000Y-9485000D01*
X10690000Y-9555000D02*
X10720000Y-9585000D01*
X10720000Y-9555000D02*
X10690000Y-9585000D01*
X10690000Y-10927500D02*
X10720000Y-10957500D01*
X10720000Y-10927500D02*
X10690000Y-10957500D01*
X10698466Y-8091469D02*
X10728466Y-8121469D01*
X10728466Y-8091469D02*
X10698466Y-8121469D01*
X10698466Y-8291469D02*
X10728466Y-8321469D01*
X10728466Y-8291469D02*
X10698466Y-8321469D01*
X10718000Y-8489500D02*
X10748000Y-8519500D01*
X10748000Y-8489500D02*
X10718000Y-8519500D01*
X10722000Y-9857500D02*
X10752000Y-9887500D01*
X10752000Y-9857500D02*
X10722000Y-9887500D01*
X10722000Y-9957500D02*
X10752000Y-9987500D01*
X10752000Y-9957500D02*
X10722000Y-9987500D01*
X10722000Y-10057500D02*
X10752000Y-10087500D01*
X10752000Y-10057500D02*
X10722000Y-10087500D01*
X10722000Y-10157500D02*
X10752000Y-10187500D01*
X10752000Y-10157500D02*
X10722000Y-10187500D01*
X10740000Y-8820000D02*
X10770000Y-8850000D01*
X10770000Y-8820000D02*
X10740000Y-8850000D01*
X10740000Y-9020000D02*
X10770000Y-9050000D01*
X10770000Y-9020000D02*
X10740000Y-9050000D01*
X10822000Y-9857500D02*
X10852000Y-9887500D01*
X10852000Y-9857500D02*
X10822000Y-9887500D01*
X10822000Y-9957500D02*
X10852000Y-9987500D01*
X10852000Y-9957500D02*
X10822000Y-9987500D01*
X10822000Y-10057500D02*
X10852000Y-10087500D01*
X10852000Y-10057500D02*
X10822000Y-10087500D01*
X10822000Y-10157500D02*
X10852000Y-10187500D01*
X10852000Y-10157500D02*
X10822000Y-10187500D01*
X10922000Y-9857500D02*
X10952000Y-9887500D01*
X10952000Y-9857500D02*
X10922000Y-9887500D01*
X10922000Y-9957500D02*
X10952000Y-9987500D01*
X10952000Y-9957500D02*
X10922000Y-9987500D01*
X10922000Y-10057500D02*
X10952000Y-10087500D01*
X10952000Y-10057500D02*
X10922000Y-10087500D01*
X10922000Y-10157500D02*
X10952000Y-10187500D01*
X10952000Y-10157500D02*
X10922000Y-10187500D01*
X10950000Y-9222000D02*
X10980000Y-9252000D01*
X10980000Y-9222000D02*
X10950000Y-9252000D01*
X10950000Y-9349000D02*
X10980000Y-9379000D01*
X10980000Y-9349000D02*
X10950000Y-9379000D01*
X10951000Y-9475500D02*
X10981000Y-9505500D01*
X10981000Y-9475500D02*
X10951000Y-9505500D01*
X10952000Y-9606500D02*
X10982000Y-9636500D01*
X10982000Y-9606500D02*
X10952000Y-9636500D01*
X11074000Y-11028500D02*
X11104000Y-11058500D01*
X11104000Y-11028500D02*
X11074000Y-11058500D01*
X11092500Y-10415000D02*
X11122500Y-10445000D01*
X11122500Y-10415000D02*
X11092500Y-10445000D01*
X11293000Y-9235500D02*
X11323000Y-9265500D01*
X11323000Y-9235500D02*
X11293000Y-9265500D01*
X11293000Y-9435500D02*
X11323000Y-9465500D01*
X11323000Y-9435500D02*
X11293000Y-9465500D01*
X11293000Y-9635500D02*
X11323000Y-9665500D01*
X11323000Y-9635500D02*
X11293000Y-9665500D01*
X11293000Y-9835500D02*
X11323000Y-9865500D01*
X11323000Y-9835500D02*
X11293000Y-9865500D01*
X11293000Y-10035500D02*
X11323000Y-10065500D01*
X11323000Y-10035500D02*
X11293000Y-10065500D01*
X11393000Y-9335500D02*
X11423000Y-9365500D01*
X11423000Y-9335500D02*
X11393000Y-9365500D01*
X11393000Y-9535500D02*
X11423000Y-9565500D01*
X11423000Y-9535500D02*
X11393000Y-9565500D01*
X11393000Y-9735500D02*
X11423000Y-9765500D01*
X11423000Y-9735500D02*
X11393000Y-9765500D01*
X11393000Y-9935500D02*
X11423000Y-9965500D01*
X11423000Y-9935500D02*
X11393000Y-9965500D01*
X11393000Y-10135500D02*
X11423000Y-10165500D01*
X11423000Y-10135500D02*
X11393000Y-10165500D01*
X11465000Y-8005000D02*
X11495000Y-8035000D01*
X11495000Y-8005000D02*
X11465000Y-8035000D01*
X11465000Y-8205000D02*
X11495000Y-8235000D01*
X11495000Y-8205000D02*
X11465000Y-8235000D01*
X11465000Y-8405000D02*
X11495000Y-8435000D01*
X11495000Y-8405000D02*
X11465000Y-8435000D01*
X11493000Y-9235500D02*
X11523000Y-9265500D01*
X11523000Y-9235500D02*
X11493000Y-9265500D01*
X11493000Y-9435500D02*
X11523000Y-9465500D01*
X11523000Y-9435500D02*
X11493000Y-9465500D01*
X11493000Y-9635500D02*
X11523000Y-9665500D01*
X11523000Y-9635500D02*
X11493000Y-9665500D01*
X11493000Y-9835500D02*
X11523000Y-9865500D01*
X11523000Y-9835500D02*
X11493000Y-9865500D01*
X11493000Y-10035500D02*
X11523000Y-10065500D01*
X11523000Y-10035500D02*
X11493000Y-10065500D01*
X11565000Y-8105000D02*
X11595000Y-8135000D01*
X11595000Y-8105000D02*
X11565000Y-8135000D01*
X11565000Y-8305000D02*
X11595000Y-8335000D01*
X11595000Y-8305000D02*
X11565000Y-8335000D01*
X11584534Y-8503031D02*
X11614534Y-8533031D01*
X11614534Y-8503031D02*
X11584534Y-8533031D01*
X11584534Y-8703031D02*
X11614534Y-8733031D01*
X11614534Y-8703031D02*
X11584534Y-8733031D01*
X11593000Y-9335500D02*
X11623000Y-9365500D01*
X11623000Y-9335500D02*
X11593000Y-9365500D01*
X11593000Y-9535500D02*
X11623000Y-9565500D01*
X11623000Y-9535500D02*
X11593000Y-9565500D01*
X11593000Y-9735500D02*
X11623000Y-9765500D01*
X11623000Y-9735500D02*
X11593000Y-9765500D01*
X11593000Y-9935500D02*
X11623000Y-9965500D01*
X11623000Y-9935500D02*
X11593000Y-9965500D01*
X11593000Y-10135500D02*
X11623000Y-10165500D01*
X11623000Y-10135500D02*
X11593000Y-10165500D01*
X11665000Y-8005000D02*
X11695000Y-8035000D01*
X11695000Y-8005000D02*
X11665000Y-8035000D01*
X11665000Y-8205000D02*
X11695000Y-8235000D01*
X11695000Y-8205000D02*
X11665000Y-8235000D01*
X11665000Y-8405000D02*
X11695000Y-8435000D01*
X11695000Y-8405000D02*
X11665000Y-8435000D01*
X11684534Y-8603031D02*
X11714534Y-8633031D01*
X11714534Y-8603031D02*
X11684534Y-8633031D01*
X11684534Y-8803031D02*
X11714534Y-8833031D01*
X11714534Y-8803031D02*
X11684534Y-8833031D01*
X11693000Y-9235500D02*
X11723000Y-9265500D01*
X11723000Y-9235500D02*
X11693000Y-9265500D01*
X11693000Y-9435500D02*
X11723000Y-9465500D01*
X11723000Y-9435500D02*
X11693000Y-9465500D01*
X11693000Y-9635500D02*
X11723000Y-9665500D01*
X11723000Y-9635500D02*
X11693000Y-9665500D01*
X11693000Y-9835500D02*
X11723000Y-9865500D01*
X11723000Y-9835500D02*
X11693000Y-9865500D01*
X11693000Y-10035500D02*
X11723000Y-10065500D01*
X11723000Y-10035500D02*
X11693000Y-10065500D01*
X11765000Y-8105000D02*
X11795000Y-8135000D01*
X11795000Y-8105000D02*
X11765000Y-8135000D01*
X11765000Y-8305000D02*
X11795000Y-8335000D01*
X11795000Y-8305000D02*
X11765000Y-8335000D01*
X11784534Y-8503031D02*
X11814534Y-8533031D01*
X11814534Y-8503031D02*
X11784534Y-8533031D01*
X11784534Y-8703031D02*
X11814534Y-8733031D01*
X11814534Y-8703031D02*
X11784534Y-8733031D01*
X11842174Y-8023820D02*
X11872174Y-8053820D01*
X11872174Y-8023820D02*
X11842174Y-8053820D01*
X11842174Y-8223820D02*
X11872174Y-8253820D01*
X11872174Y-8223820D02*
X11842174Y-8253820D01*
X11884534Y-8603031D02*
X11914534Y-8633031D01*
X11914534Y-8603031D02*
X11884534Y-8633031D01*
X11884534Y-8803031D02*
X11914534Y-8833031D01*
X11914534Y-8803031D02*
X11884534Y-8833031D01*
X11942174Y-8123820D02*
X11972174Y-8153820D01*
X11972174Y-8123820D02*
X11942174Y-8153820D01*
X11942174Y-8323820D02*
X11972174Y-8353820D01*
X11972174Y-8323820D02*
X11942174Y-8353820D01*
X11984534Y-8503031D02*
X12014534Y-8533031D01*
X12014534Y-8503031D02*
X11984534Y-8533031D01*
X11984534Y-8703031D02*
X12014534Y-8733031D01*
X12014534Y-8703031D02*
X11984534Y-8733031D01*
X12042174Y-8023820D02*
X12072174Y-8053820D01*
X12072174Y-8023820D02*
X12042174Y-8053820D01*
X12042174Y-8223820D02*
X12072174Y-8253820D01*
X12072174Y-8223820D02*
X12042174Y-8253820D01*
X12084534Y-8603031D02*
X12114534Y-8633031D01*
X12114534Y-8603031D02*
X12084534Y-8633031D01*
X12084534Y-8803031D02*
X12114534Y-8833031D01*
X12114534Y-8803031D02*
X12084534Y-8833031D01*
X12142174Y-8123820D02*
X12172174Y-8153820D01*
X12172174Y-8123820D02*
X12142174Y-8153820D01*
X12142174Y-8323820D02*
X12172174Y-8353820D01*
X12172174Y-8323820D02*
X12142174Y-8353820D01*
X12184534Y-8503031D02*
X12214534Y-8533031D01*
X12214534Y-8503031D02*
X12184534Y-8533031D01*
X12184534Y-8703031D02*
X12214534Y-8733031D01*
X12214534Y-8703031D02*
X12184534Y-8733031D01*
X12187000Y-10793500D02*
X12217000Y-10823500D01*
X12217000Y-10793500D02*
X12187000Y-10823500D01*
X12242174Y-8023820D02*
X12272174Y-8053820D01*
X12272174Y-8023820D02*
X12242174Y-8053820D01*
X12242174Y-8223820D02*
X12272174Y-8253820D01*
X12272174Y-8223820D02*
X12242174Y-8253820D01*
X12284534Y-8603031D02*
X12314534Y-8633031D01*
X12314534Y-8603031D02*
X12284534Y-8633031D01*
X12284534Y-8803031D02*
X12314534Y-8833031D01*
X12314534Y-8803031D02*
X12284534Y-8833031D01*
X12342174Y-8123820D02*
X12372174Y-8153820D01*
X12372174Y-8123820D02*
X12342174Y-8153820D01*
X12342174Y-8323820D02*
X12372174Y-8353820D01*
X12372174Y-8323820D02*
X12342174Y-8353820D01*
X12384534Y-8503031D02*
X12414534Y-8533031D01*
X12414534Y-8503031D02*
X12384534Y-8533031D01*
X12384534Y-8703031D02*
X12414534Y-8733031D01*
X12414534Y-8703031D02*
X12384534Y-8733031D01*
X12385000Y-9225000D02*
X12415000Y-9255000D01*
X12415000Y-9225000D02*
X12385000Y-9255000D01*
X12385000Y-9425000D02*
X12415000Y-9455000D01*
X12415000Y-9425000D02*
X12385000Y-9455000D01*
X12385000Y-9625000D02*
X12415000Y-9655000D01*
X12415000Y-9625000D02*
X12385000Y-9655000D01*
X12385000Y-9825000D02*
X12415000Y-9855000D01*
X12415000Y-9825000D02*
X12385000Y-9855000D01*
X12385000Y-10025000D02*
X12415000Y-10055000D01*
X12415000Y-10025000D02*
X12385000Y-10055000D01*
X12442174Y-8023820D02*
X12472174Y-8053820D01*
X12472174Y-8023820D02*
X12442174Y-8053820D01*
X12442174Y-8223820D02*
X12472174Y-8253820D01*
X12472174Y-8223820D02*
X12442174Y-8253820D01*
X12472000Y-11899500D02*
X12502000Y-11929500D01*
X12502000Y-11899500D02*
X12472000Y-11929500D01*
X12472210Y-11345000D02*
X12502210Y-11375000D01*
X12502210Y-11345000D02*
X12472210Y-11375000D01*
X12485000Y-9325000D02*
X12515000Y-9355000D01*
X12515000Y-9325000D02*
X12485000Y-9355000D01*
X12485000Y-9525000D02*
X12515000Y-9555000D01*
X12515000Y-9525000D02*
X12485000Y-9555000D01*
X12485000Y-9725000D02*
X12515000Y-9755000D01*
X12515000Y-9725000D02*
X12485000Y-9755000D01*
X12485000Y-9925000D02*
X12515000Y-9955000D01*
X12515000Y-9925000D02*
X12485000Y-9955000D01*
X12485000Y-10125000D02*
X12515000Y-10155000D01*
X12515000Y-10125000D02*
X12485000Y-10155000D01*
X12542174Y-8123820D02*
X12572174Y-8153820D01*
X12572174Y-8123820D02*
X12542174Y-8153820D01*
X12542174Y-8323820D02*
X12572174Y-8353820D01*
X12572174Y-8323820D02*
X12542174Y-8353820D01*
X12585000Y-9225000D02*
X12615000Y-9255000D01*
X12615000Y-9225000D02*
X12585000Y-9255000D01*
X12585000Y-9425000D02*
X12615000Y-9455000D01*
X12615000Y-9425000D02*
X12585000Y-9455000D01*
X12585000Y-9625000D02*
X12615000Y-9655000D01*
X12615000Y-9625000D02*
X12585000Y-9655000D01*
X12585000Y-9825000D02*
X12615000Y-9855000D01*
X12615000Y-9825000D02*
X12585000Y-9855000D01*
X12585000Y-10025000D02*
X12615000Y-10055000D01*
X12615000Y-10025000D02*
X12585000Y-10055000D01*
X12597000Y-11084500D02*
X12627000Y-11114500D01*
X12627000Y-11084500D02*
X12597000Y-11114500D01*
X12607500Y-10520000D02*
X12637500Y-10550000D01*
X12637500Y-10520000D02*
X12607500Y-10550000D01*
X12642174Y-8023820D02*
X12672174Y-8053820D01*
X12672174Y-8023820D02*
X12642174Y-8053820D01*
X12642174Y-8223820D02*
X12672174Y-8253820D01*
X12672174Y-8223820D02*
X12642174Y-8253820D01*
X12655000Y-11206500D02*
X12685000Y-11236500D01*
X12685000Y-11206500D02*
X12655000Y-11236500D01*
X12677500Y-10872500D02*
X12707500Y-10902500D01*
X12707500Y-10872500D02*
X12677500Y-10902500D01*
X12685000Y-9325000D02*
X12715000Y-9355000D01*
X12715000Y-9325000D02*
X12685000Y-9355000D01*
X12685000Y-9525000D02*
X12715000Y-9555000D01*
X12715000Y-9525000D02*
X12685000Y-9555000D01*
X12685000Y-9725000D02*
X12715000Y-9755000D01*
X12715000Y-9725000D02*
X12685000Y-9755000D01*
X12685000Y-9925000D02*
X12715000Y-9955000D01*
X12715000Y-9925000D02*
X12685000Y-9955000D01*
X12685000Y-10125000D02*
X12715000Y-10155000D01*
X12715000Y-10125000D02*
X12685000Y-10155000D01*
X12752500Y-10347500D02*
X12782500Y-10377500D01*
X12782500Y-10347500D02*
X12752500Y-10377500D01*
X12785000Y-9225000D02*
X12815000Y-9255000D01*
X12815000Y-9225000D02*
X12785000Y-9255000D01*
X12785000Y-9425000D02*
X12815000Y-9455000D01*
X12815000Y-9425000D02*
X12785000Y-9455000D01*
X12785000Y-9625000D02*
X12815000Y-9655000D01*
X12815000Y-9625000D02*
X12785000Y-9655000D01*
X12785000Y-9825000D02*
X12815000Y-9855000D01*
X12815000Y-9825000D02*
X12785000Y-9855000D01*
X12785000Y-10025000D02*
X12815000Y-10055000D01*
X12815000Y-10025000D02*
X12785000Y-10055000D01*
X12885000Y-9325000D02*
X12915000Y-9355000D01*
X12915000Y-9325000D02*
X12885000Y-9355000D01*
X12885000Y-9525000D02*
X12915000Y-9555000D01*
X12915000Y-9525000D02*
X12885000Y-9555000D01*
X12885000Y-9725000D02*
X12915000Y-9755000D01*
X12915000Y-9725000D02*
X12885000Y-9755000D01*
X12885000Y-9925000D02*
X12915000Y-9955000D01*
X12915000Y-9925000D02*
X12885000Y-9955000D01*
X12885000Y-10125000D02*
X12915000Y-10155000D01*
X12915000Y-10125000D02*
X12885000Y-10155000D01*
X12985000Y-9225000D02*
X13015000Y-9255000D01*
X13015000Y-9225000D02*
X12985000Y-9255000D01*
X12985000Y-9425000D02*
X13015000Y-9455000D01*
X13015000Y-9425000D02*
X12985000Y-9455000D01*
X13085000Y-9325000D02*
X13115000Y-9355000D01*
X13115000Y-9325000D02*
X13085000Y-9355000D01*
X13145000Y-10632500D02*
X13175000Y-10662500D01*
X13175000Y-10632500D02*
X13145000Y-10662500D01*
X13145000Y-10970000D02*
X13175000Y-11000000D01*
X13175000Y-10970000D02*
X13145000Y-11000000D01*
X13165000Y-11537500D02*
X13195000Y-11567500D01*
X13195000Y-11537500D02*
X13165000Y-11567500D01*
X13170000Y-9222000D02*
X13200000Y-9252000D01*
X13200000Y-9222000D02*
X13170000Y-9252000D01*
X13170000Y-9349000D02*
X13200000Y-9379000D01*
X13200000Y-9349000D02*
X13170000Y-9379000D01*
X13170000Y-9476000D02*
X13200000Y-9506000D01*
X13200000Y-9476000D02*
X13170000Y-9506000D01*
X13170000Y-9603000D02*
X13200000Y-9633000D01*
X13200000Y-9603000D02*
X13170000Y-9633000D01*
X13210000Y-9855000D02*
X13240000Y-9885000D01*
X13240000Y-9855000D02*
X13210000Y-9885000D01*
X13210000Y-9955000D02*
X13240000Y-9985000D01*
X13240000Y-9955000D02*
X13210000Y-9985000D01*
X13210000Y-10055000D02*
X13240000Y-10085000D01*
X13240000Y-10055000D02*
X13210000Y-10085000D01*
X13210000Y-10155000D02*
X13240000Y-10185000D01*
X13240000Y-10155000D02*
X13210000Y-10185000D01*
X13220000Y-11277500D02*
X13250000Y-11307500D01*
X13250000Y-11277500D02*
X13220000Y-11307500D01*
X13310000Y-9855000D02*
X13340000Y-9885000D01*
X13340000Y-9855000D02*
X13310000Y-9885000D01*
X13310000Y-9955000D02*
X13340000Y-9985000D01*
X13340000Y-9955000D02*
X13310000Y-9985000D01*
X13310000Y-10055000D02*
X13340000Y-10085000D01*
X13340000Y-10055000D02*
X13310000Y-10085000D01*
X13310000Y-10155000D02*
X13340000Y-10185000D01*
X13340000Y-10155000D02*
X13310000Y-10185000D01*
X13382500Y-9257500D02*
X13412500Y-9287500D01*
X13412500Y-9257500D02*
X13382500Y-9287500D01*
X13382500Y-9357500D02*
X13412500Y-9387500D01*
X13412500Y-9357500D02*
X13382500Y-9387500D01*
X13382500Y-9457500D02*
X13412500Y-9487500D01*
X13412500Y-9457500D02*
X13382500Y-9487500D01*
X13382500Y-9557500D02*
X13412500Y-9587500D01*
X13412500Y-9557500D02*
X13382500Y-9587500D01*
X13410000Y-9855000D02*
X13440000Y-9885000D01*
X13440000Y-9855000D02*
X13410000Y-9885000D01*
X13410000Y-9955000D02*
X13440000Y-9985000D01*
X13440000Y-9955000D02*
X13410000Y-9985000D01*
X13410000Y-10055000D02*
X13440000Y-10085000D01*
X13440000Y-10055000D02*
X13410000Y-10085000D01*
X13410000Y-10155000D02*
X13440000Y-10185000D01*
X13440000Y-10155000D02*
X13410000Y-10185000D01*
X13482500Y-9257500D02*
X13512500Y-9287500D01*
X13512500Y-9257500D02*
X13482500Y-9287500D01*
X13482500Y-9357500D02*
X13512500Y-9387500D01*
X13512500Y-9357500D02*
X13482500Y-9387500D01*
X13482500Y-9457500D02*
X13512500Y-9487500D01*
X13512500Y-9457500D02*
X13482500Y-9487500D01*
X13482500Y-9557500D02*
X13512500Y-9587500D01*
X13512500Y-9557500D02*
X13482500Y-9587500D01*
X13510000Y-9855000D02*
X13540000Y-9885000D01*
X13540000Y-9855000D02*
X13510000Y-9885000D01*
X13510000Y-9955000D02*
X13540000Y-9985000D01*
X13540000Y-9955000D02*
X13510000Y-9985000D01*
X13510000Y-10055000D02*
X13540000Y-10085000D01*
X13540000Y-10055000D02*
X13510000Y-10085000D01*
X13510000Y-10155000D02*
X13540000Y-10185000D01*
X13540000Y-10155000D02*
X13510000Y-10185000D01*
X13582500Y-9257500D02*
X13612500Y-9287500D01*
X13612500Y-9257500D02*
X13582500Y-9287500D01*
X13582500Y-9357500D02*
X13612500Y-9387500D01*
X13612500Y-9357500D02*
X13582500Y-9387500D01*
X13582500Y-9457500D02*
X13612500Y-9487500D01*
X13612500Y-9457500D02*
X13582500Y-9487500D01*
X13582500Y-9557500D02*
X13612500Y-9587500D01*
X13612500Y-9557500D02*
X13582500Y-9587500D01*
X13605466Y-8192469D02*
X13635466Y-8222469D01*
X13635466Y-8192469D02*
X13605466Y-8222469D01*
X13605466Y-8392469D02*
X13635466Y-8422469D01*
X13635466Y-8392469D02*
X13605466Y-8422469D01*
X13605466Y-8592469D02*
X13635466Y-8622469D01*
X13635466Y-8592469D02*
X13605466Y-8622469D01*
X13632500Y-10755000D02*
X13662500Y-10785000D01*
X13662500Y-10755000D02*
X13632500Y-10785000D01*
X13682500Y-9257500D02*
X13712500Y-9287500D01*
X13712500Y-9257500D02*
X13682500Y-9287500D01*
X13682500Y-9357500D02*
X13712500Y-9387500D01*
X13712500Y-9357500D02*
X13682500Y-9387500D01*
X13682500Y-9457500D02*
X13712500Y-9487500D01*
X13712500Y-9457500D02*
X13682500Y-9487500D01*
X13682500Y-9557500D02*
X13712500Y-9587500D01*
X13712500Y-9557500D02*
X13682500Y-9587500D01*
X13705466Y-8292469D02*
X13735466Y-8322469D01*
X13735466Y-8292469D02*
X13705466Y-8322469D01*
X13705466Y-8492469D02*
X13735466Y-8522469D01*
X13735466Y-8492469D02*
X13705466Y-8522469D01*
X13725000Y-8690500D02*
X13755000Y-8720500D01*
X13755000Y-8690500D02*
X13725000Y-8720500D01*
X13782500Y-9357500D02*
X13812500Y-9387500D01*
X13812500Y-9357500D02*
X13782500Y-9387500D01*
X13782500Y-9557500D02*
X13812500Y-9587500D01*
X13812500Y-9557500D02*
X13782500Y-9587500D01*
X13805466Y-8192469D02*
X13835466Y-8222469D01*
X13835466Y-8192469D02*
X13805466Y-8222469D01*
X13805466Y-8392469D02*
X13835466Y-8422469D01*
X13835466Y-8392469D02*
X13805466Y-8422469D01*
X13805466Y-8592469D02*
X13835466Y-8622469D01*
X13835466Y-8592469D02*
X13805466Y-8622469D01*
X13882500Y-9257500D02*
X13912500Y-9287500D01*
X13912500Y-9257500D02*
X13882500Y-9287500D01*
X13882500Y-9457500D02*
X13912500Y-9487500D01*
X13912500Y-9457500D02*
X13882500Y-9487500D01*
X13905466Y-8292469D02*
X13935466Y-8322469D01*
X13935466Y-8292469D02*
X13905466Y-8322469D01*
X13905466Y-8492469D02*
X13935466Y-8522469D01*
X13935466Y-8492469D02*
X13905466Y-8522469D01*
X13925000Y-8690500D02*
X13955000Y-8720500D01*
X13955000Y-8690500D02*
X13925000Y-8720500D01*
X13960000Y-10152500D02*
X13990000Y-10182500D01*
X13990000Y-10152500D02*
X13960000Y-10182500D01*
X13982500Y-9357500D02*
X14012500Y-9387500D01*
X14012500Y-9357500D02*
X13982500Y-9387500D01*
X13982500Y-9557500D02*
X14012500Y-9587500D01*
X14012500Y-9557500D02*
X13982500Y-9587500D01*
X14042500Y-7475000D02*
X14072500Y-7505000D01*
X14072500Y-7475000D02*
X14042500Y-7505000D01*
X14042500Y-7675000D02*
X14072500Y-7705000D01*
X14072500Y-7675000D02*
X14042500Y-7705000D01*
X14060000Y-11812500D02*
X14090000Y-11842500D01*
X14090000Y-11812500D02*
X14060000Y-11842500D01*
X14082500Y-9257500D02*
X14112500Y-9287500D01*
X14112500Y-9257500D02*
X14082500Y-9287500D01*
X14082500Y-9457500D02*
X14112500Y-9487500D01*
X14112500Y-9457500D02*
X14082500Y-9487500D01*
X14142500Y-7575000D02*
X14172500Y-7605000D01*
X14172500Y-7575000D02*
X14142500Y-7605000D01*
X14182500Y-9357500D02*
X14212500Y-9387500D01*
X14212500Y-9357500D02*
X14182500Y-9387500D01*
X14182500Y-9557500D02*
X14212500Y-9587500D01*
X14212500Y-9557500D02*
X14182500Y-9587500D01*
X14242500Y-7475000D02*
X14272500Y-7505000D01*
X14272500Y-7475000D02*
X14242500Y-7505000D01*
X14242500Y-7675000D02*
X14272500Y-7705000D01*
X14272500Y-7675000D02*
X14242500Y-7705000D01*
X14282500Y-9257500D02*
X14312500Y-9287500D01*
X14312500Y-9257500D02*
X14282500Y-9287500D01*
X14282500Y-9457500D02*
X14312500Y-9487500D01*
X14312500Y-9457500D02*
X14282500Y-9487500D01*
X14342500Y-7575000D02*
X14372500Y-7605000D01*
X14372500Y-7575000D02*
X14342500Y-7605000D01*
X14382500Y-9357500D02*
X14412500Y-9387500D01*
X14412500Y-9357500D02*
X14382500Y-9387500D01*
X14382500Y-9557500D02*
X14412500Y-9587500D01*
X14412500Y-9557500D02*
X14382500Y-9587500D01*
X14442500Y-7475000D02*
X14472500Y-7505000D01*
X14472500Y-7475000D02*
X14442500Y-7505000D01*
X14442500Y-7675000D02*
X14472500Y-7705000D01*
X14472500Y-7675000D02*
X14442500Y-7705000D01*
X14482500Y-9257500D02*
X14512500Y-9287500D01*
X14512500Y-9257500D02*
X14482500Y-9287500D01*
X14482500Y-9457500D02*
X14512500Y-9487500D01*
X14512500Y-9457500D02*
X14482500Y-9487500D01*
X14512500Y-12167500D02*
X14542500Y-12197500D01*
X14542500Y-12167500D02*
X14512500Y-12197500D01*
X14542500Y-7575000D02*
X14572500Y-7605000D01*
X14572500Y-7575000D02*
X14542500Y-7605000D01*
X14582500Y-9357500D02*
X14612500Y-9387500D01*
X14612500Y-9357500D02*
X14582500Y-9387500D01*
X14582500Y-9557500D02*
X14612500Y-9587500D01*
X14612500Y-9557500D02*
X14582500Y-9587500D01*
X14642500Y-7475000D02*
X14672500Y-7505000D01*
X14672500Y-7475000D02*
X14642500Y-7505000D01*
X14642500Y-7675000D02*
X14672500Y-7705000D01*
X14672500Y-7675000D02*
X14642500Y-7705000D01*
X14682500Y-9257500D02*
X14712500Y-9287500D01*
X14712500Y-9257500D02*
X14682500Y-9287500D01*
X14682500Y-9457500D02*
X14712500Y-9487500D01*
X14712500Y-9457500D02*
X14682500Y-9487500D01*
X14742500Y-7575000D02*
X14772500Y-7605000D01*
X14772500Y-7575000D02*
X14742500Y-7605000D01*
X14772500Y-7917500D02*
X14802500Y-7947500D01*
X14802500Y-7917500D02*
X14772500Y-7947500D01*
X14772500Y-8117500D02*
X14802500Y-8147500D01*
X14802500Y-8117500D02*
X14772500Y-8147500D01*
X14772500Y-8317500D02*
X14802500Y-8347500D01*
X14802500Y-8317500D02*
X14772500Y-8347500D01*
X14772500Y-8517500D02*
X14802500Y-8547500D01*
X14802500Y-8517500D02*
X14772500Y-8547500D01*
X14772500Y-8717500D02*
X14802500Y-8747500D01*
X14802500Y-8717500D02*
X14772500Y-8747500D01*
X14772500Y-8917500D02*
X14802500Y-8947500D01*
X14802500Y-8917500D02*
X14772500Y-8947500D01*
X14772500Y-9117500D02*
X14802500Y-9147500D01*
X14802500Y-9117500D02*
X14772500Y-9147500D01*
X14782500Y-9357500D02*
X14812500Y-9387500D01*
X14812500Y-9357500D02*
X14782500Y-9387500D01*
X14782500Y-9557500D02*
X14812500Y-9587500D01*
X14812500Y-9557500D02*
X14782500Y-9587500D01*
X14842500Y-7475000D02*
X14872500Y-7505000D01*
X14872500Y-7475000D02*
X14842500Y-7505000D01*
X14842500Y-7675000D02*
X14872500Y-7705000D01*
X14872500Y-7675000D02*
X14842500Y-7705000D01*
X14862500Y-10782500D02*
X14892500Y-10812500D01*
X14892500Y-10782500D02*
X14862500Y-10812500D01*
X14872500Y-7817500D02*
X14902500Y-7847500D01*
X14902500Y-7817500D02*
X14872500Y-7847500D01*
X14872500Y-8017500D02*
X14902500Y-8047500D01*
X14902500Y-8017500D02*
X14872500Y-8047500D01*
X14872500Y-8217500D02*
X14902500Y-8247500D01*
X14902500Y-8217500D02*
X14872500Y-8247500D01*
X14872500Y-8417500D02*
X14902500Y-8447500D01*
X14902500Y-8417500D02*
X14872500Y-8447500D01*
X14872500Y-8617500D02*
X14902500Y-8647500D01*
X14902500Y-8617500D02*
X14872500Y-8647500D01*
X14872500Y-8817500D02*
X14902500Y-8847500D01*
X14902500Y-8817500D02*
X14872500Y-8847500D01*
X14872500Y-9017500D02*
X14902500Y-9047500D01*
X14902500Y-9017500D02*
X14872500Y-9047500D01*
X14882500Y-9257500D02*
X14912500Y-9287500D01*
X14912500Y-9257500D02*
X14882500Y-9287500D01*
X14882500Y-9457500D02*
X14912500Y-9487500D01*
X14912500Y-9457500D02*
X14882500Y-9487500D01*
X14920140Y-10303289D02*
X14950140Y-10333289D01*
X14950140Y-10303289D02*
X14920140Y-10333289D01*
X14920140Y-10503289D02*
X14950140Y-10533289D01*
X14950140Y-10503289D02*
X14920140Y-10533289D01*
X14942500Y-7575000D02*
X14972500Y-7605000D01*
X14972500Y-7575000D02*
X14942500Y-7605000D01*
X14962500Y-10682500D02*
X14992500Y-10712500D01*
X14992500Y-10682500D02*
X14962500Y-10712500D01*
X14962500Y-10882500D02*
X14992500Y-10912500D01*
X14992500Y-10882500D02*
X14962500Y-10912500D01*
X14972500Y-7917500D02*
X15002500Y-7947500D01*
X15002500Y-7917500D02*
X14972500Y-7947500D01*
X14972500Y-8317500D02*
X15002500Y-8347500D01*
X15002500Y-8317500D02*
X14972500Y-8347500D01*
X14972500Y-8517500D02*
X15002500Y-8547500D01*
X15002500Y-8517500D02*
X14972500Y-8547500D01*
X14972500Y-8717500D02*
X15002500Y-8747500D01*
X15002500Y-8717500D02*
X14972500Y-8747500D01*
X14972500Y-8917500D02*
X15002500Y-8947500D01*
X15002500Y-8917500D02*
X14972500Y-8947500D01*
X14972500Y-9117500D02*
X15002500Y-9147500D01*
X15002500Y-9117500D02*
X14972500Y-9147500D01*
X14976000Y-8121500D02*
X15006000Y-8151500D01*
X15006000Y-8121500D02*
X14976000Y-8151500D01*
X14982500Y-9357500D02*
X15012500Y-9387500D01*
X15012500Y-9357500D02*
X14982500Y-9387500D01*
X14982500Y-9557500D02*
X15012500Y-9587500D01*
X15012500Y-9557500D02*
X14982500Y-9587500D01*
X15020140Y-10403289D02*
X15050140Y-10433289D01*
X15050140Y-10403289D02*
X15020140Y-10433289D01*
X15062500Y-10782500D02*
X15092500Y-10812500D01*
X15092500Y-10782500D02*
X15062500Y-10812500D01*
X15077000Y-7477500D02*
X15107000Y-7507500D01*
X15107000Y-7477500D02*
X15077000Y-7507500D01*
X15077000Y-7677500D02*
X15107000Y-7707500D01*
X15107000Y-7677500D02*
X15077000Y-7707500D01*
X15120140Y-10303289D02*
X15150140Y-10333289D01*
X15150140Y-10303289D02*
X15120140Y-10333289D01*
X15120140Y-10503289D02*
X15150140Y-10533289D01*
X15150140Y-10503289D02*
X15120140Y-10533289D01*
X15162500Y-10682500D02*
X15192500Y-10712500D01*
X15192500Y-10682500D02*
X15162500Y-10712500D01*
X15162500Y-10882500D02*
X15192500Y-10912500D01*
X15192500Y-10882500D02*
X15162500Y-10912500D01*
X15177000Y-7577500D02*
X15207000Y-7607500D01*
X15207000Y-7577500D02*
X15177000Y-7607500D01*
X15212500Y-11080000D02*
X15242500Y-11110000D01*
X15242500Y-11080000D02*
X15212500Y-11110000D01*
X15220140Y-10403289D02*
X15250140Y-10433289D01*
X15250140Y-10403289D02*
X15220140Y-10433289D01*
X15270140Y-10600789D02*
X15300140Y-10630789D01*
X15300140Y-10600789D02*
X15270140Y-10630789D01*
X15270140Y-10800789D02*
X15300140Y-10830789D01*
X15300140Y-10800789D02*
X15270140Y-10830789D01*
X15275000Y-10237500D02*
X15305000Y-10267500D01*
X15305000Y-10237500D02*
X15275000Y-10267500D01*
X15277000Y-7477500D02*
X15307000Y-7507500D01*
X15307000Y-7477500D02*
X15277000Y-7507500D01*
X15277000Y-7677500D02*
X15307000Y-7707500D01*
X15307000Y-7677500D02*
X15277000Y-7707500D01*
X15312500Y-10980000D02*
X15342500Y-11010000D01*
X15342500Y-10980000D02*
X15312500Y-11010000D01*
X15312500Y-11180000D02*
X15342500Y-11210000D01*
X15342500Y-11180000D02*
X15312500Y-11210000D01*
X15332640Y-9758289D02*
X15362640Y-9788289D01*
X15362640Y-9758289D02*
X15332640Y-9788289D01*
X15332640Y-9958289D02*
X15362640Y-9988289D01*
X15362640Y-9958289D02*
X15332640Y-9988289D01*
X15370140Y-10700789D02*
X15400140Y-10730789D01*
X15400140Y-10700789D02*
X15370140Y-10730789D01*
X15375000Y-10137500D02*
X15405000Y-10167500D01*
X15405000Y-10137500D02*
X15375000Y-10167500D01*
X15375000Y-10337500D02*
X15405000Y-10367500D01*
X15405000Y-10337500D02*
X15375000Y-10367500D01*
X15377000Y-7577500D02*
X15407000Y-7607500D01*
X15407000Y-7577500D02*
X15377000Y-7607500D01*
X15412500Y-11080000D02*
X15442500Y-11110000D01*
X15442500Y-11080000D02*
X15412500Y-11110000D01*
X15432640Y-9858289D02*
X15462640Y-9888289D01*
X15462640Y-9858289D02*
X15432640Y-9888289D01*
X15470140Y-10600789D02*
X15500140Y-10630789D01*
X15500140Y-10600789D02*
X15470140Y-10630789D01*
X15470140Y-10800789D02*
X15500140Y-10830789D01*
X15500140Y-10800789D02*
X15470140Y-10830789D01*
X15475000Y-10237500D02*
X15505000Y-10267500D01*
X15505000Y-10237500D02*
X15475000Y-10267500D01*
X15477000Y-7477500D02*
X15507000Y-7507500D01*
X15507000Y-7477500D02*
X15477000Y-7507500D01*
X15477000Y-7677500D02*
X15507000Y-7707500D01*
X15507000Y-7677500D02*
X15477000Y-7707500D01*
X15512500Y-10980000D02*
X15542500Y-11010000D01*
X15542500Y-10980000D02*
X15512500Y-11010000D01*
X15512500Y-11180000D02*
X15542500Y-11210000D01*
X15542500Y-11180000D02*
X15512500Y-11210000D01*
X15530000Y-9275000D02*
X15560000Y-9305000D01*
X15560000Y-9275000D02*
X15530000Y-9305000D01*
X15532640Y-9758289D02*
X15562640Y-9788289D01*
X15562640Y-9758289D02*
X15532640Y-9788289D01*
X15532640Y-9958289D02*
X15562640Y-9988289D01*
X15562640Y-9958289D02*
X15532640Y-9988289D01*
X15570140Y-10700789D02*
X15600140Y-10730789D01*
X15600140Y-10700789D02*
X15570140Y-10730789D01*
X15575000Y-10137500D02*
X15605000Y-10167500D01*
X15605000Y-10137500D02*
X15575000Y-10167500D01*
X15575000Y-10337500D02*
X15605000Y-10367500D01*
X15605000Y-10337500D02*
X15575000Y-10367500D01*
X15577000Y-7577500D02*
X15607000Y-7607500D01*
X15607000Y-7577500D02*
X15577000Y-7607500D01*
X15587640Y-8795789D02*
X15617640Y-8825789D01*
X15617640Y-8795789D02*
X15587640Y-8825789D01*
X15587640Y-8995789D02*
X15617640Y-9025789D01*
X15617640Y-8995789D02*
X15587640Y-9025789D01*
X15630000Y-9175000D02*
X15660000Y-9205000D01*
X15660000Y-9175000D02*
X15630000Y-9205000D01*
X15630000Y-9375000D02*
X15660000Y-9405000D01*
X15660000Y-9375000D02*
X15630000Y-9405000D01*
X15632640Y-9858289D02*
X15662640Y-9888289D01*
X15662640Y-9858289D02*
X15632640Y-9888289D01*
X15642500Y-10902500D02*
X15672500Y-10932500D01*
X15672500Y-10902500D02*
X15642500Y-10932500D01*
X15677000Y-7477500D02*
X15707000Y-7507500D01*
X15707000Y-7477500D02*
X15677000Y-7507500D01*
X15677000Y-7677500D02*
X15707000Y-7707500D01*
X15707000Y-7677500D02*
X15677000Y-7707500D01*
X15687640Y-8895789D02*
X15717640Y-8925789D01*
X15717640Y-8895789D02*
X15687640Y-8925789D01*
X15700140Y-10423289D02*
X15730140Y-10453289D01*
X15730140Y-10423289D02*
X15700140Y-10453289D01*
X15700140Y-10623289D02*
X15730140Y-10653289D01*
X15730140Y-10623289D02*
X15700140Y-10653289D01*
X15730000Y-9275000D02*
X15760000Y-9305000D01*
X15760000Y-9275000D02*
X15730000Y-9305000D01*
X15742500Y-10802500D02*
X15772500Y-10832500D01*
X15772500Y-10802500D02*
X15742500Y-10832500D01*
X15742500Y-11002500D02*
X15772500Y-11032500D01*
X15772500Y-11002500D02*
X15742500Y-11032500D01*
X15777000Y-7577500D02*
X15807000Y-7607500D01*
X15807000Y-7577500D02*
X15777000Y-7607500D01*
X15787640Y-8795789D02*
X15817640Y-8825789D01*
X15817640Y-8795789D02*
X15787640Y-8825789D01*
X15787640Y-8995789D02*
X15817640Y-9025789D01*
X15817640Y-8995789D02*
X15787640Y-9025789D01*
X15800140Y-10523289D02*
X15830140Y-10553289D01*
X15830140Y-10523289D02*
X15800140Y-10553289D01*
X15830000Y-9175000D02*
X15860000Y-9205000D01*
X15860000Y-9175000D02*
X15830000Y-9205000D01*
X15830000Y-9375000D02*
X15860000Y-9405000D01*
X15860000Y-9375000D02*
X15830000Y-9405000D01*
X15842500Y-10902500D02*
X15872500Y-10932500D01*
X15872500Y-10902500D02*
X15842500Y-10932500D01*
X15877000Y-7477500D02*
X15907000Y-7507500D01*
X15907000Y-7477500D02*
X15877000Y-7507500D01*
X15877000Y-7677500D02*
X15907000Y-7707500D01*
X15907000Y-7677500D02*
X15877000Y-7707500D01*
X15887640Y-8895789D02*
X15917640Y-8925789D01*
X15917640Y-8895789D02*
X15887640Y-8925789D01*
X15977000Y-7577500D02*
X16007000Y-7607500D01*
X16007000Y-7577500D02*
X15977000Y-7607500D01*
X16101000Y-9674500D02*
X16131000Y-9704500D01*
X16131000Y-9674500D02*
X16101000Y-9704500D01*
X16101000Y-9874500D02*
X16131000Y-9904500D01*
X16131000Y-9874500D02*
X16101000Y-9904500D01*
X16101000Y-10074500D02*
X16131000Y-10104500D01*
X16131000Y-10074500D02*
X16101000Y-10104500D01*
X16101000Y-10274500D02*
X16131000Y-10304500D01*
X16131000Y-10274500D02*
X16101000Y-10304500D01*
X16101000Y-10474500D02*
X16131000Y-10504500D01*
X16131000Y-10474500D02*
X16101000Y-10504500D01*
X16103500Y-10679500D02*
X16133500Y-10709500D01*
X16133500Y-10679500D02*
X16103500Y-10709500D01*
X16103500Y-10879500D02*
X16133500Y-10909500D01*
X16133500Y-10879500D02*
X16103500Y-10909500D01*
X16103500Y-11079500D02*
X16133500Y-11109500D01*
X16133500Y-11079500D02*
X16103500Y-11109500D01*
X16103500Y-11279500D02*
X16133500Y-11309500D01*
X16133500Y-11279500D02*
X16103500Y-11309500D01*
X16103500Y-11479500D02*
X16133500Y-11509500D01*
X16133500Y-11479500D02*
X16103500Y-11509500D01*
X16103500Y-11679500D02*
X16133500Y-11709500D01*
X16133500Y-11679500D02*
X16103500Y-11709500D01*
X16107000Y-7471500D02*
X16137000Y-7501500D01*
X16137000Y-7471500D02*
X16107000Y-7501500D01*
X16107000Y-7671500D02*
X16137000Y-7701500D01*
X16137000Y-7671500D02*
X16107000Y-7701500D01*
X16107000Y-7871500D02*
X16137000Y-7901500D01*
X16137000Y-7871500D02*
X16107000Y-7901500D01*
X16107000Y-8071500D02*
X16137000Y-8101500D01*
X16137000Y-8071500D02*
X16107000Y-8101500D01*
X16107000Y-8271500D02*
X16137000Y-8301500D01*
X16137000Y-8271500D02*
X16107000Y-8301500D01*
X16109500Y-8476500D02*
X16139500Y-8506500D01*
X16139500Y-8476500D02*
X16109500Y-8506500D01*
X16109500Y-8676500D02*
X16139500Y-8706500D01*
X16139500Y-8676500D02*
X16109500Y-8706500D01*
X16109500Y-8876500D02*
X16139500Y-8906500D01*
X16139500Y-8876500D02*
X16109500Y-8906500D01*
X16109500Y-9076500D02*
X16139500Y-9106500D01*
X16139500Y-9076500D02*
X16109500Y-9106500D01*
X16109500Y-9276500D02*
X16139500Y-9306500D01*
X16139500Y-9276500D02*
X16109500Y-9306500D01*
X16109500Y-9476500D02*
X16139500Y-9506500D01*
X16139500Y-9476500D02*
X16109500Y-9506500D01*
X16201000Y-9774500D02*
X16231000Y-9804500D01*
X16231000Y-9774500D02*
X16201000Y-9804500D01*
X16201000Y-9974500D02*
X16231000Y-10004500D01*
X16231000Y-9974500D02*
X16201000Y-10004500D01*
X16201000Y-10174500D02*
X16231000Y-10204500D01*
X16231000Y-10174500D02*
X16201000Y-10204500D01*
X16201000Y-10374500D02*
X16231000Y-10404500D01*
X16231000Y-10374500D02*
X16201000Y-10404500D01*
X16201000Y-10574500D02*
X16231000Y-10604500D01*
X16231000Y-10574500D02*
X16201000Y-10604500D01*
X16203500Y-10779500D02*
X16233500Y-10809500D01*
X16233500Y-10779500D02*
X16203500Y-10809500D01*
X16203500Y-10979500D02*
X16233500Y-11009500D01*
X16233500Y-10979500D02*
X16203500Y-11009500D01*
X16203500Y-11179500D02*
X16233500Y-11209500D01*
X16233500Y-11179500D02*
X16203500Y-11209500D01*
X16203500Y-11379500D02*
X16233500Y-11409500D01*
X16233500Y-11379500D02*
X16203500Y-11409500D01*
X16203500Y-11579500D02*
X16233500Y-11609500D01*
X16233500Y-11579500D02*
X16203500Y-11609500D01*
X16203500Y-11779500D02*
X16233500Y-11809500D01*
X16233500Y-11779500D02*
X16203500Y-11809500D01*
X16207000Y-7571500D02*
X16237000Y-7601500D01*
X16237000Y-7571500D02*
X16207000Y-7601500D01*
X16207000Y-7771500D02*
X16237000Y-7801500D01*
X16237000Y-7771500D02*
X16207000Y-7801500D01*
X16207000Y-7971500D02*
X16237000Y-8001500D01*
X16237000Y-7971500D02*
X16207000Y-8001500D01*
X16207000Y-8171500D02*
X16237000Y-8201500D01*
X16237000Y-8171500D02*
X16207000Y-8201500D01*
X16207000Y-8371500D02*
X16237000Y-8401500D01*
X16237000Y-8371500D02*
X16207000Y-8401500D01*
X16209500Y-8576500D02*
X16239500Y-8606500D01*
X16239500Y-8576500D02*
X16209500Y-8606500D01*
X16209500Y-8776500D02*
X16239500Y-8806500D01*
X16239500Y-8776500D02*
X16209500Y-8806500D01*
X16209500Y-8976500D02*
X16239500Y-9006500D01*
X16239500Y-8976500D02*
X16209500Y-9006500D01*
X16209500Y-9176500D02*
X16239500Y-9206500D01*
X16239500Y-9176500D02*
X16209500Y-9206500D01*
X16209500Y-9376500D02*
X16239500Y-9406500D01*
X16239500Y-9376500D02*
X16209500Y-9406500D01*
X16209500Y-9576500D02*
X16239500Y-9606500D01*
X16239500Y-9576500D02*
X16209500Y-9606500D01*
X16301000Y-9674500D02*
X16331000Y-9704500D01*
X16331000Y-9674500D02*
X16301000Y-9704500D01*
X16301000Y-9874500D02*
X16331000Y-9904500D01*
X16331000Y-9874500D02*
X16301000Y-9904500D01*
X16301000Y-10074500D02*
X16331000Y-10104500D01*
X16331000Y-10074500D02*
X16301000Y-10104500D01*
X16301000Y-10274500D02*
X16331000Y-10304500D01*
X16331000Y-10274500D02*
X16301000Y-10304500D01*
X16301000Y-10474500D02*
X16331000Y-10504500D01*
X16331000Y-10474500D02*
X16301000Y-10504500D01*
X16303500Y-10679500D02*
X16333500Y-10709500D01*
X16333500Y-10679500D02*
X16303500Y-10709500D01*
X16303500Y-10879500D02*
X16333500Y-10909500D01*
X16333500Y-10879500D02*
X16303500Y-10909500D01*
X16303500Y-11079500D02*
X16333500Y-11109500D01*
X16333500Y-11079500D02*
X16303500Y-11109500D01*
X16303500Y-11279500D02*
X16333500Y-11309500D01*
X16333500Y-11279500D02*
X16303500Y-11309500D01*
X16303500Y-11479500D02*
X16333500Y-11509500D01*
X16333500Y-11479500D02*
X16303500Y-11509500D01*
X16303500Y-11679500D02*
X16333500Y-11709500D01*
X16333500Y-11679500D02*
X16303500Y-11709500D01*
X16307000Y-7471500D02*
X16337000Y-7501500D01*
X16337000Y-7471500D02*
X16307000Y-7501500D01*
X16307000Y-7671500D02*
X16337000Y-7701500D01*
X16337000Y-7671500D02*
X16307000Y-7701500D01*
X16307000Y-7871500D02*
X16337000Y-7901500D01*
X16337000Y-7871500D02*
X16307000Y-7901500D01*
X16307000Y-8071500D02*
X16337000Y-8101500D01*
X16337000Y-8071500D02*
X16307000Y-8101500D01*
X16307000Y-8271500D02*
X16337000Y-8301500D01*
X16337000Y-8271500D02*
X16307000Y-8301500D01*
X16309500Y-8476500D02*
X16339500Y-8506500D01*
X16339500Y-8476500D02*
X16309500Y-8506500D01*
X16309500Y-8676500D02*
X16339500Y-8706500D01*
X16339500Y-8676500D02*
X16309500Y-8706500D01*
X16309500Y-8876500D02*
X16339500Y-8906500D01*
X16339500Y-8876500D02*
X16309500Y-8906500D01*
X16309500Y-9076500D02*
X16339500Y-9106500D01*
X16339500Y-9076500D02*
X16309500Y-9106500D01*
X16309500Y-9276500D02*
X16339500Y-9306500D01*
X16339500Y-9276500D02*
X16309500Y-9306500D01*
X16309500Y-9476500D02*
X16339500Y-9506500D01*
X16339500Y-9476500D02*
X16309500Y-9506500D01*
X16351000Y-11784500D02*
X16381000Y-11814500D01*
X16381000Y-11784500D02*
X16351000Y-11814500D01*
X16357000Y-9581500D02*
X16387000Y-9611500D01*
X16387000Y-9581500D02*
X16357000Y-9611500D01*
D13*
X9128750Y-11327500D02*
G75*
G02*
X9021250Y-11327500I-53750J0D01*
G01*
X9021250Y-11327500D02*
G75*
G02*
X9128750Y-11327500I53750J0D01*
G01*
X9128750Y-11581500D02*
G75*
G02*
X9021250Y-11581500I-53750J0D01*
G01*
X9021250Y-11581500D02*
G75*
G02*
X9128750Y-11581500I53750J0D01*
G01*
X9128750Y-11835500D02*
G75*
G02*
X9021250Y-11835500I-53750J0D01*
G01*
X9021250Y-11835500D02*
G75*
G02*
X9128750Y-11835500I53750J0D01*
G01*
X9128750Y-12089500D02*
G75*
G02*
X9021250Y-12089500I-53750J0D01*
G01*
X9021250Y-12089500D02*
G75*
G02*
X9128750Y-12089500I53750J0D01*
G01*
X15128750Y-11327500D02*
G75*
G02*
X15021250Y-11327500I-53750J0D01*
G01*
X15021250Y-11327500D02*
G75*
G02*
X15128750Y-11327500I53750J0D01*
G01*
X15128750Y-11581500D02*
G75*
G02*
X15021250Y-11581500I-53750J0D01*
G01*
X15021250Y-11581500D02*
G75*
G02*
X15128750Y-11581500I53750J0D01*
G01*
X15128750Y-11835500D02*
G75*
G02*
X15021250Y-11835500I-53750J0D01*
G01*
X15021250Y-11835500D02*
G75*
G02*
X15128750Y-11835500I53750J0D01*
G01*
X15128750Y-12089500D02*
G75*
G02*
X15021250Y-12089500I-53750J0D01*
G01*
X15021250Y-12089500D02*
G75*
G02*
X15128750Y-12089500I53750J0D01*
G01*
D14*
X7395000Y-6987500D02*
X7395000Y-7307500D01*
X7235000Y-7147500D02*
X7555000Y-7147500D01*
X7395000Y-12347500D02*
X7395000Y-12667500D01*
X7235000Y-12507500D02*
X7555000Y-12507500D01*
X16755000Y-6987500D02*
X16755000Y-7307500D01*
X16595000Y-7147500D02*
X16915000Y-7147500D01*
X16755000Y-12347500D02*
X16755000Y-12667500D01*
X16595000Y-12507500D02*
X16915000Y-12507500D01*
D11*
X7333277Y-13141484D02*
X7333277Y-12941484D01*
X7333277Y-12941484D02*
X7380896Y-12941484D01*
X7380896Y-12941484D02*
X7409467Y-12951008D01*
X7409467Y-12951008D02*
X7428515Y-12970055D01*
X7428515Y-12970055D02*
X7438039Y-12989103D01*
X7438039Y-12989103D02*
X7447562Y-13027198D01*
X7447562Y-13027198D02*
X7447562Y-13055769D01*
X7447562Y-13055769D02*
X7438039Y-13093865D01*
X7438039Y-13093865D02*
X7428515Y-13112912D01*
X7428515Y-13112912D02*
X7409467Y-13131960D01*
X7409467Y-13131960D02*
X7380896Y-13141484D01*
X7380896Y-13141484D02*
X7333277Y-13141484D01*
X7533277Y-13141484D02*
X7533277Y-13008150D01*
X7533277Y-13046246D02*
X7542801Y-13027198D01*
X7542801Y-13027198D02*
X7552324Y-13017674D01*
X7552324Y-13017674D02*
X7571372Y-13008150D01*
X7571372Y-13008150D02*
X7590420Y-13008150D01*
X7657086Y-13141484D02*
X7657086Y-13008150D01*
X7657086Y-12941484D02*
X7647562Y-12951008D01*
X7647562Y-12951008D02*
X7657086Y-12960531D01*
X7657086Y-12960531D02*
X7666610Y-12951008D01*
X7666610Y-12951008D02*
X7657086Y-12941484D01*
X7657086Y-12941484D02*
X7657086Y-12960531D01*
X7780896Y-13141484D02*
X7761848Y-13131960D01*
X7761848Y-13131960D02*
X7752324Y-13112912D01*
X7752324Y-13112912D02*
X7752324Y-12941484D01*
X7885658Y-13141484D02*
X7866610Y-13131960D01*
X7866610Y-13131960D02*
X7857086Y-13112912D01*
X7857086Y-13112912D02*
X7857086Y-12941484D01*
X8114229Y-13141484D02*
X8114229Y-12941484D01*
X8114229Y-12941484D02*
X8180896Y-13084341D01*
X8180896Y-13084341D02*
X8247562Y-12941484D01*
X8247562Y-12941484D02*
X8247562Y-13141484D01*
X8428515Y-13141484D02*
X8428515Y-13036722D01*
X8428515Y-13036722D02*
X8418991Y-13017674D01*
X8418991Y-13017674D02*
X8399944Y-13008150D01*
X8399944Y-13008150D02*
X8361848Y-13008150D01*
X8361848Y-13008150D02*
X8342801Y-13017674D01*
X8428515Y-13131960D02*
X8409467Y-13141484D01*
X8409467Y-13141484D02*
X8361848Y-13141484D01*
X8361848Y-13141484D02*
X8342801Y-13131960D01*
X8342801Y-13131960D02*
X8333277Y-13112912D01*
X8333277Y-13112912D02*
X8333277Y-13093865D01*
X8333277Y-13093865D02*
X8342801Y-13074817D01*
X8342801Y-13074817D02*
X8361848Y-13065293D01*
X8361848Y-13065293D02*
X8409467Y-13065293D01*
X8409467Y-13065293D02*
X8428515Y-13055769D01*
X8523753Y-13008150D02*
X8523753Y-13208150D01*
X8523753Y-13017674D02*
X8542801Y-13008150D01*
X8542801Y-13008150D02*
X8580896Y-13008150D01*
X8580896Y-13008150D02*
X8599944Y-13017674D01*
X8599944Y-13017674D02*
X8609467Y-13027198D01*
X8609467Y-13027198D02*
X8618991Y-13046246D01*
X8618991Y-13046246D02*
X8618991Y-13103388D01*
X8618991Y-13103388D02*
X8609467Y-13122436D01*
X8609467Y-13122436D02*
X8599944Y-13131960D01*
X8599944Y-13131960D02*
X8580896Y-13141484D01*
X8580896Y-13141484D02*
X8542801Y-13141484D01*
X8542801Y-13141484D02*
X8523753Y-13131960D01*
X8704705Y-13122436D02*
X8714229Y-13131960D01*
X8714229Y-13131960D02*
X8704705Y-13141484D01*
X8704705Y-13141484D02*
X8695182Y-13131960D01*
X8695182Y-13131960D02*
X8704705Y-13122436D01*
X8704705Y-13122436D02*
X8704705Y-13141484D01*
X8704705Y-13017674D02*
X8714229Y-13027198D01*
X8714229Y-13027198D02*
X8704705Y-13036722D01*
X8704705Y-13036722D02*
X8695182Y-13027198D01*
X8695182Y-13027198D02*
X8704705Y-13017674D01*
X8704705Y-13017674D02*
X8704705Y-13036722D01*
D12*
X7042500Y-13455000D02*
X7072500Y-13485000D01*
X7072500Y-13455000D02*
X7042500Y-13485000D01*
D11*
X7371372Y-13361484D02*
X7390420Y-13361484D01*
X7390420Y-13361484D02*
X7409467Y-13371008D01*
X7409467Y-13371008D02*
X7418991Y-13380531D01*
X7418991Y-13380531D02*
X7428515Y-13399579D01*
X7428515Y-13399579D02*
X7438039Y-13437674D01*
X7438039Y-13437674D02*
X7438039Y-13485293D01*
X7438039Y-13485293D02*
X7428515Y-13523388D01*
X7428515Y-13523388D02*
X7418991Y-13542436D01*
X7418991Y-13542436D02*
X7409467Y-13551960D01*
X7409467Y-13551960D02*
X7390420Y-13561484D01*
X7390420Y-13561484D02*
X7371372Y-13561484D01*
X7371372Y-13561484D02*
X7352324Y-13551960D01*
X7352324Y-13551960D02*
X7342801Y-13542436D01*
X7342801Y-13542436D02*
X7333277Y-13523388D01*
X7333277Y-13523388D02*
X7323753Y-13485293D01*
X7323753Y-13485293D02*
X7323753Y-13437674D01*
X7323753Y-13437674D02*
X7333277Y-13399579D01*
X7333277Y-13399579D02*
X7342801Y-13380531D01*
X7342801Y-13380531D02*
X7352324Y-13371008D01*
X7352324Y-13371008D02*
X7371372Y-13361484D01*
X7523753Y-13542436D02*
X7533277Y-13551960D01*
X7533277Y-13551960D02*
X7523753Y-13561484D01*
X7523753Y-13561484D02*
X7514229Y-13551960D01*
X7514229Y-13551960D02*
X7523753Y-13542436D01*
X7523753Y-13542436D02*
X7523753Y-13561484D01*
X7599943Y-13361484D02*
X7723753Y-13361484D01*
X7723753Y-13361484D02*
X7657086Y-13437674D01*
X7657086Y-13437674D02*
X7685658Y-13437674D01*
X7685658Y-13437674D02*
X7704705Y-13447198D01*
X7704705Y-13447198D02*
X7714229Y-13456722D01*
X7714229Y-13456722D02*
X7723753Y-13475769D01*
X7723753Y-13475769D02*
X7723753Y-13523388D01*
X7723753Y-13523388D02*
X7714229Y-13542436D01*
X7714229Y-13542436D02*
X7704705Y-13551960D01*
X7704705Y-13551960D02*
X7685658Y-13561484D01*
X7685658Y-13561484D02*
X7628515Y-13561484D01*
X7628515Y-13561484D02*
X7609467Y-13551960D01*
X7609467Y-13551960D02*
X7599943Y-13542436D01*
X7847562Y-13361484D02*
X7866610Y-13361484D01*
X7866610Y-13361484D02*
X7885658Y-13371008D01*
X7885658Y-13371008D02*
X7895182Y-13380531D01*
X7895182Y-13380531D02*
X7904705Y-13399579D01*
X7904705Y-13399579D02*
X7914229Y-13437674D01*
X7914229Y-13437674D02*
X7914229Y-13485293D01*
X7914229Y-13485293D02*
X7904705Y-13523388D01*
X7904705Y-13523388D02*
X7895182Y-13542436D01*
X7895182Y-13542436D02*
X7885658Y-13551960D01*
X7885658Y-13551960D02*
X7866610Y-13561484D01*
X7866610Y-13561484D02*
X7847562Y-13561484D01*
X7847562Y-13561484D02*
X7828515Y-13551960D01*
X7828515Y-13551960D02*
X7818991Y-13542436D01*
X7818991Y-13542436D02*
X7809467Y-13523388D01*
X7809467Y-13523388D02*
X7799943Y-13485293D01*
X7799943Y-13485293D02*
X7799943Y-13437674D01*
X7799943Y-13437674D02*
X7809467Y-13399579D01*
X7809467Y-13399579D02*
X7818991Y-13380531D01*
X7818991Y-13380531D02*
X7828515Y-13371008D01*
X7828515Y-13371008D02*
X7847562Y-13361484D01*
X8038039Y-13361484D02*
X8057086Y-13361484D01*
X8057086Y-13361484D02*
X8076134Y-13371008D01*
X8076134Y-13371008D02*
X8085658Y-13380531D01*
X8085658Y-13380531D02*
X8095182Y-13399579D01*
X8095182Y-13399579D02*
X8104705Y-13437674D01*
X8104705Y-13437674D02*
X8104705Y-13485293D01*
X8104705Y-13485293D02*
X8095182Y-13523388D01*
X8095182Y-13523388D02*
X8085658Y-13542436D01*
X8085658Y-13542436D02*
X8076134Y-13551960D01*
X8076134Y-13551960D02*
X8057086Y-13561484D01*
X8057086Y-13561484D02*
X8038039Y-13561484D01*
X8038039Y-13561484D02*
X8018991Y-13551960D01*
X8018991Y-13551960D02*
X8009467Y-13542436D01*
X8009467Y-13542436D02*
X7999943Y-13523388D01*
X7999943Y-13523388D02*
X7990420Y-13485293D01*
X7990420Y-13485293D02*
X7990420Y-13437674D01*
X7990420Y-13437674D02*
X7999943Y-13399579D01*
X7999943Y-13399579D02*
X8009467Y-13380531D01*
X8009467Y-13380531D02*
X8018991Y-13371008D01*
X8018991Y-13371008D02*
X8038039Y-13361484D01*
X8190420Y-13561484D02*
X8190420Y-13428150D01*
X8190420Y-13447198D02*
X8199943Y-13437674D01*
X8199943Y-13437674D02*
X8218991Y-13428150D01*
X8218991Y-13428150D02*
X8247563Y-13428150D01*
X8247563Y-13428150D02*
X8266610Y-13437674D01*
X8266610Y-13437674D02*
X8276134Y-13456722D01*
X8276134Y-13456722D02*
X8276134Y-13561484D01*
X8276134Y-13456722D02*
X8285658Y-13437674D01*
X8285658Y-13437674D02*
X8304705Y-13428150D01*
X8304705Y-13428150D02*
X8333277Y-13428150D01*
X8333277Y-13428150D02*
X8352324Y-13437674D01*
X8352324Y-13437674D02*
X8361848Y-13456722D01*
X8361848Y-13456722D02*
X8361848Y-13561484D01*
X8457086Y-13561484D02*
X8457086Y-13428150D01*
X8457086Y-13447198D02*
X8466610Y-13437674D01*
X8466610Y-13437674D02*
X8485658Y-13428150D01*
X8485658Y-13428150D02*
X8514229Y-13428150D01*
X8514229Y-13428150D02*
X8533277Y-13437674D01*
X8533277Y-13437674D02*
X8542801Y-13456722D01*
X8542801Y-13456722D02*
X8542801Y-13561484D01*
X8542801Y-13456722D02*
X8552325Y-13437674D01*
X8552325Y-13437674D02*
X8571372Y-13428150D01*
X8571372Y-13428150D02*
X8599944Y-13428150D01*
X8599944Y-13428150D02*
X8618991Y-13437674D01*
X8618991Y-13437674D02*
X8628515Y-13456722D01*
X8628515Y-13456722D02*
X8628515Y-13561484D01*
X9018991Y-13351960D02*
X8847563Y-13609103D01*
X9276134Y-13361484D02*
X9295182Y-13361484D01*
X9295182Y-13361484D02*
X9314229Y-13371008D01*
X9314229Y-13371008D02*
X9323753Y-13380531D01*
X9323753Y-13380531D02*
X9333277Y-13399579D01*
X9333277Y-13399579D02*
X9342801Y-13437674D01*
X9342801Y-13437674D02*
X9342801Y-13485293D01*
X9342801Y-13485293D02*
X9333277Y-13523388D01*
X9333277Y-13523388D02*
X9323753Y-13542436D01*
X9323753Y-13542436D02*
X9314229Y-13551960D01*
X9314229Y-13551960D02*
X9295182Y-13561484D01*
X9295182Y-13561484D02*
X9276134Y-13561484D01*
X9276134Y-13561484D02*
X9257087Y-13551960D01*
X9257087Y-13551960D02*
X9247563Y-13542436D01*
X9247563Y-13542436D02*
X9238039Y-13523388D01*
X9238039Y-13523388D02*
X9228515Y-13485293D01*
X9228515Y-13485293D02*
X9228515Y-13437674D01*
X9228515Y-13437674D02*
X9238039Y-13399579D01*
X9238039Y-13399579D02*
X9247563Y-13380531D01*
X9247563Y-13380531D02*
X9257087Y-13371008D01*
X9257087Y-13371008D02*
X9276134Y-13361484D01*
X9428515Y-13542436D02*
X9438039Y-13551960D01*
X9438039Y-13551960D02*
X9428515Y-13561484D01*
X9428515Y-13561484D02*
X9418991Y-13551960D01*
X9418991Y-13551960D02*
X9428515Y-13542436D01*
X9428515Y-13542436D02*
X9428515Y-13561484D01*
X9561848Y-13361484D02*
X9580896Y-13361484D01*
X9580896Y-13361484D02*
X9599944Y-13371008D01*
X9599944Y-13371008D02*
X9609468Y-13380531D01*
X9609468Y-13380531D02*
X9618991Y-13399579D01*
X9618991Y-13399579D02*
X9628515Y-13437674D01*
X9628515Y-13437674D02*
X9628515Y-13485293D01*
X9628515Y-13485293D02*
X9618991Y-13523388D01*
X9618991Y-13523388D02*
X9609468Y-13542436D01*
X9609468Y-13542436D02*
X9599944Y-13551960D01*
X9599944Y-13551960D02*
X9580896Y-13561484D01*
X9580896Y-13561484D02*
X9561848Y-13561484D01*
X9561848Y-13561484D02*
X9542801Y-13551960D01*
X9542801Y-13551960D02*
X9533277Y-13542436D01*
X9533277Y-13542436D02*
X9523753Y-13523388D01*
X9523753Y-13523388D02*
X9514229Y-13485293D01*
X9514229Y-13485293D02*
X9514229Y-13437674D01*
X9514229Y-13437674D02*
X9523753Y-13399579D01*
X9523753Y-13399579D02*
X9533277Y-13380531D01*
X9533277Y-13380531D02*
X9542801Y-13371008D01*
X9542801Y-13371008D02*
X9561848Y-13361484D01*
X9818991Y-13561484D02*
X9704706Y-13561484D01*
X9761848Y-13561484D02*
X9761848Y-13361484D01*
X9761848Y-13361484D02*
X9742801Y-13390055D01*
X9742801Y-13390055D02*
X9723753Y-13409103D01*
X9723753Y-13409103D02*
X9704706Y-13418627D01*
X10009468Y-13561484D02*
X9895182Y-13561484D01*
X9952325Y-13561484D02*
X9952325Y-13361484D01*
X9952325Y-13361484D02*
X9933277Y-13390055D01*
X9933277Y-13390055D02*
X9914229Y-13409103D01*
X9914229Y-13409103D02*
X9895182Y-13418627D01*
X10123753Y-13447198D02*
X10104706Y-13437674D01*
X10104706Y-13437674D02*
X10095182Y-13428150D01*
X10095182Y-13428150D02*
X10085658Y-13409103D01*
X10085658Y-13409103D02*
X10085658Y-13399579D01*
X10085658Y-13399579D02*
X10095182Y-13380531D01*
X10095182Y-13380531D02*
X10104706Y-13371008D01*
X10104706Y-13371008D02*
X10123753Y-13361484D01*
X10123753Y-13361484D02*
X10161849Y-13361484D01*
X10161849Y-13361484D02*
X10180896Y-13371008D01*
X10180896Y-13371008D02*
X10190420Y-13380531D01*
X10190420Y-13380531D02*
X10199944Y-13399579D01*
X10199944Y-13399579D02*
X10199944Y-13409103D01*
X10199944Y-13409103D02*
X10190420Y-13428150D01*
X10190420Y-13428150D02*
X10180896Y-13437674D01*
X10180896Y-13437674D02*
X10161849Y-13447198D01*
X10161849Y-13447198D02*
X10123753Y-13447198D01*
X10123753Y-13447198D02*
X10104706Y-13456722D01*
X10104706Y-13456722D02*
X10095182Y-13466246D01*
X10095182Y-13466246D02*
X10085658Y-13485293D01*
X10085658Y-13485293D02*
X10085658Y-13523388D01*
X10085658Y-13523388D02*
X10095182Y-13542436D01*
X10095182Y-13542436D02*
X10104706Y-13551960D01*
X10104706Y-13551960D02*
X10123753Y-13561484D01*
X10123753Y-13561484D02*
X10161849Y-13561484D01*
X10161849Y-13561484D02*
X10180896Y-13551960D01*
X10180896Y-13551960D02*
X10190420Y-13542436D01*
X10190420Y-13542436D02*
X10199944Y-13523388D01*
X10199944Y-13523388D02*
X10199944Y-13485293D01*
X10199944Y-13485293D02*
X10190420Y-13466246D01*
X10190420Y-13466246D02*
X10180896Y-13456722D01*
X10180896Y-13456722D02*
X10161849Y-13447198D01*
X10276134Y-13361484D02*
X10276134Y-13399579D01*
X10352325Y-13361484D02*
X10352325Y-13399579D01*
X10647563Y-13637674D02*
X10638039Y-13628150D01*
X10638039Y-13628150D02*
X10618991Y-13599579D01*
X10618991Y-13599579D02*
X10609468Y-13580531D01*
X10609468Y-13580531D02*
X10599944Y-13551960D01*
X10599944Y-13551960D02*
X10590420Y-13504341D01*
X10590420Y-13504341D02*
X10590420Y-13466246D01*
X10590420Y-13466246D02*
X10599944Y-13418627D01*
X10599944Y-13418627D02*
X10609468Y-13390055D01*
X10609468Y-13390055D02*
X10618991Y-13371008D01*
X10618991Y-13371008D02*
X10638039Y-13342436D01*
X10638039Y-13342436D02*
X10647563Y-13332912D01*
X10809468Y-13361484D02*
X10771372Y-13361484D01*
X10771372Y-13361484D02*
X10752325Y-13371008D01*
X10752325Y-13371008D02*
X10742801Y-13380531D01*
X10742801Y-13380531D02*
X10723753Y-13409103D01*
X10723753Y-13409103D02*
X10714230Y-13447198D01*
X10714230Y-13447198D02*
X10714230Y-13523388D01*
X10714230Y-13523388D02*
X10723753Y-13542436D01*
X10723753Y-13542436D02*
X10733277Y-13551960D01*
X10733277Y-13551960D02*
X10752325Y-13561484D01*
X10752325Y-13561484D02*
X10790420Y-13561484D01*
X10790420Y-13561484D02*
X10809468Y-13551960D01*
X10809468Y-13551960D02*
X10818991Y-13542436D01*
X10818991Y-13542436D02*
X10828515Y-13523388D01*
X10828515Y-13523388D02*
X10828515Y-13475769D01*
X10828515Y-13475769D02*
X10818991Y-13456722D01*
X10818991Y-13456722D02*
X10809468Y-13447198D01*
X10809468Y-13447198D02*
X10790420Y-13437674D01*
X10790420Y-13437674D02*
X10752325Y-13437674D01*
X10752325Y-13437674D02*
X10733277Y-13447198D01*
X10733277Y-13447198D02*
X10723753Y-13456722D01*
X10723753Y-13456722D02*
X10714230Y-13475769D01*
X10942801Y-13447198D02*
X10923753Y-13437674D01*
X10923753Y-13437674D02*
X10914230Y-13428150D01*
X10914230Y-13428150D02*
X10904706Y-13409103D01*
X10904706Y-13409103D02*
X10904706Y-13399579D01*
X10904706Y-13399579D02*
X10914230Y-13380531D01*
X10914230Y-13380531D02*
X10923753Y-13371008D01*
X10923753Y-13371008D02*
X10942801Y-13361484D01*
X10942801Y-13361484D02*
X10980896Y-13361484D01*
X10980896Y-13361484D02*
X10999944Y-13371008D01*
X10999944Y-13371008D02*
X11009468Y-13380531D01*
X11009468Y-13380531D02*
X11018991Y-13399579D01*
X11018991Y-13399579D02*
X11018991Y-13409103D01*
X11018991Y-13409103D02*
X11009468Y-13428150D01*
X11009468Y-13428150D02*
X10999944Y-13437674D01*
X10999944Y-13437674D02*
X10980896Y-13447198D01*
X10980896Y-13447198D02*
X10942801Y-13447198D01*
X10942801Y-13447198D02*
X10923753Y-13456722D01*
X10923753Y-13456722D02*
X10914230Y-13466246D01*
X10914230Y-13466246D02*
X10904706Y-13485293D01*
X10904706Y-13485293D02*
X10904706Y-13523388D01*
X10904706Y-13523388D02*
X10914230Y-13542436D01*
X10914230Y-13542436D02*
X10923753Y-13551960D01*
X10923753Y-13551960D02*
X10942801Y-13561484D01*
X10942801Y-13561484D02*
X10980896Y-13561484D01*
X10980896Y-13561484D02*
X10999944Y-13551960D01*
X10999944Y-13551960D02*
X11009468Y-13542436D01*
X11009468Y-13542436D02*
X11018991Y-13523388D01*
X11018991Y-13523388D02*
X11018991Y-13485293D01*
X11018991Y-13485293D02*
X11009468Y-13466246D01*
X11009468Y-13466246D02*
X10999944Y-13456722D01*
X10999944Y-13456722D02*
X10980896Y-13447198D01*
X11085658Y-13361484D02*
X11209468Y-13361484D01*
X11209468Y-13361484D02*
X11142801Y-13437674D01*
X11142801Y-13437674D02*
X11171372Y-13437674D01*
X11171372Y-13437674D02*
X11190420Y-13447198D01*
X11190420Y-13447198D02*
X11199944Y-13456722D01*
X11199944Y-13456722D02*
X11209468Y-13475769D01*
X11209468Y-13475769D02*
X11209468Y-13523388D01*
X11209468Y-13523388D02*
X11199944Y-13542436D01*
X11199944Y-13542436D02*
X11190420Y-13551960D01*
X11190420Y-13551960D02*
X11171372Y-13561484D01*
X11171372Y-13561484D02*
X11114230Y-13561484D01*
X11114230Y-13561484D02*
X11095182Y-13551960D01*
X11095182Y-13551960D02*
X11085658Y-13542436D01*
X11447563Y-13561484D02*
X11447563Y-13361484D01*
X11533277Y-13561484D02*
X11533277Y-13456722D01*
X11533277Y-13456722D02*
X11523753Y-13437674D01*
X11523753Y-13437674D02*
X11504706Y-13428150D01*
X11504706Y-13428150D02*
X11476134Y-13428150D01*
X11476134Y-13428150D02*
X11457087Y-13437674D01*
X11457087Y-13437674D02*
X11447563Y-13447198D01*
X11657087Y-13561484D02*
X11638039Y-13551960D01*
X11638039Y-13551960D02*
X11628515Y-13542436D01*
X11628515Y-13542436D02*
X11618991Y-13523388D01*
X11618991Y-13523388D02*
X11618991Y-13466246D01*
X11618991Y-13466246D02*
X11628515Y-13447198D01*
X11628515Y-13447198D02*
X11638039Y-13437674D01*
X11638039Y-13437674D02*
X11657087Y-13428150D01*
X11657087Y-13428150D02*
X11685658Y-13428150D01*
X11685658Y-13428150D02*
X11704706Y-13437674D01*
X11704706Y-13437674D02*
X11714230Y-13447198D01*
X11714230Y-13447198D02*
X11723753Y-13466246D01*
X11723753Y-13466246D02*
X11723753Y-13523388D01*
X11723753Y-13523388D02*
X11714230Y-13542436D01*
X11714230Y-13542436D02*
X11704706Y-13551960D01*
X11704706Y-13551960D02*
X11685658Y-13561484D01*
X11685658Y-13561484D02*
X11657087Y-13561484D01*
X11838039Y-13561484D02*
X11818991Y-13551960D01*
X11818991Y-13551960D02*
X11809468Y-13532912D01*
X11809468Y-13532912D02*
X11809468Y-13361484D01*
X11990420Y-13551960D02*
X11971372Y-13561484D01*
X11971372Y-13561484D02*
X11933277Y-13561484D01*
X11933277Y-13561484D02*
X11914230Y-13551960D01*
X11914230Y-13551960D02*
X11904706Y-13532912D01*
X11904706Y-13532912D02*
X11904706Y-13456722D01*
X11904706Y-13456722D02*
X11914230Y-13437674D01*
X11914230Y-13437674D02*
X11933277Y-13428150D01*
X11933277Y-13428150D02*
X11971372Y-13428150D01*
X11971372Y-13428150D02*
X11990420Y-13437674D01*
X11990420Y-13437674D02*
X11999944Y-13456722D01*
X11999944Y-13456722D02*
X11999944Y-13475769D01*
X11999944Y-13475769D02*
X11904706Y-13494817D01*
X12076134Y-13551960D02*
X12095182Y-13561484D01*
X12095182Y-13561484D02*
X12133277Y-13561484D01*
X12133277Y-13561484D02*
X12152325Y-13551960D01*
X12152325Y-13551960D02*
X12161849Y-13532912D01*
X12161849Y-13532912D02*
X12161849Y-13523388D01*
X12161849Y-13523388D02*
X12152325Y-13504341D01*
X12152325Y-13504341D02*
X12133277Y-13494817D01*
X12133277Y-13494817D02*
X12104706Y-13494817D01*
X12104706Y-13494817D02*
X12085658Y-13485293D01*
X12085658Y-13485293D02*
X12076134Y-13466246D01*
X12076134Y-13466246D02*
X12076134Y-13456722D01*
X12076134Y-13456722D02*
X12085658Y-13437674D01*
X12085658Y-13437674D02*
X12104706Y-13428150D01*
X12104706Y-13428150D02*
X12133277Y-13428150D01*
X12133277Y-13428150D02*
X12152325Y-13437674D01*
X12228515Y-13637674D02*
X12238039Y-13628150D01*
X12238039Y-13628150D02*
X12257087Y-13599579D01*
X12257087Y-13599579D02*
X12266611Y-13580531D01*
X12266611Y-13580531D02*
X12276134Y-13551960D01*
X12276134Y-13551960D02*
X12285658Y-13504341D01*
X12285658Y-13504341D02*
X12285658Y-13466246D01*
X12285658Y-13466246D02*
X12276134Y-13418627D01*
X12276134Y-13418627D02*
X12266611Y-13390055D01*
X12266611Y-13390055D02*
X12257087Y-13371008D01*
X12257087Y-13371008D02*
X12238039Y-13342436D01*
X12238039Y-13342436D02*
X12228515Y-13332912D01*
D13*
X7072500Y-13734000D02*
G75*
G02*
X6965000Y-13734000I-53750J0D01*
G01*
X6965000Y-13734000D02*
G75*
G02*
X7072500Y-13734000I53750J0D01*
G01*
D11*
X7438039Y-13825484D02*
X7323753Y-13825484D01*
X7380896Y-13825484D02*
X7380896Y-13625484D01*
X7380896Y-13625484D02*
X7361848Y-13654055D01*
X7361848Y-13654055D02*
X7342801Y-13673103D01*
X7342801Y-13673103D02*
X7323753Y-13682627D01*
X7523753Y-13806436D02*
X7533277Y-13815960D01*
X7533277Y-13815960D02*
X7523753Y-13825484D01*
X7523753Y-13825484D02*
X7514229Y-13815960D01*
X7514229Y-13815960D02*
X7523753Y-13806436D01*
X7523753Y-13806436D02*
X7523753Y-13825484D01*
X7657086Y-13625484D02*
X7676134Y-13625484D01*
X7676134Y-13625484D02*
X7695182Y-13635008D01*
X7695182Y-13635008D02*
X7704705Y-13644531D01*
X7704705Y-13644531D02*
X7714229Y-13663579D01*
X7714229Y-13663579D02*
X7723753Y-13701674D01*
X7723753Y-13701674D02*
X7723753Y-13749293D01*
X7723753Y-13749293D02*
X7714229Y-13787388D01*
X7714229Y-13787388D02*
X7704705Y-13806436D01*
X7704705Y-13806436D02*
X7695182Y-13815960D01*
X7695182Y-13815960D02*
X7676134Y-13825484D01*
X7676134Y-13825484D02*
X7657086Y-13825484D01*
X7657086Y-13825484D02*
X7638039Y-13815960D01*
X7638039Y-13815960D02*
X7628515Y-13806436D01*
X7628515Y-13806436D02*
X7618991Y-13787388D01*
X7618991Y-13787388D02*
X7609467Y-13749293D01*
X7609467Y-13749293D02*
X7609467Y-13701674D01*
X7609467Y-13701674D02*
X7618991Y-13663579D01*
X7618991Y-13663579D02*
X7628515Y-13644531D01*
X7628515Y-13644531D02*
X7638039Y-13635008D01*
X7638039Y-13635008D02*
X7657086Y-13625484D01*
X7790420Y-13625484D02*
X7923753Y-13625484D01*
X7923753Y-13625484D02*
X7838039Y-13825484D01*
X8095182Y-13625484D02*
X7999943Y-13625484D01*
X7999943Y-13625484D02*
X7990420Y-13720722D01*
X7990420Y-13720722D02*
X7999943Y-13711198D01*
X7999943Y-13711198D02*
X8018991Y-13701674D01*
X8018991Y-13701674D02*
X8066610Y-13701674D01*
X8066610Y-13701674D02*
X8085658Y-13711198D01*
X8085658Y-13711198D02*
X8095182Y-13720722D01*
X8095182Y-13720722D02*
X8104705Y-13739769D01*
X8104705Y-13739769D02*
X8104705Y-13787388D01*
X8104705Y-13787388D02*
X8095182Y-13806436D01*
X8095182Y-13806436D02*
X8085658Y-13815960D01*
X8085658Y-13815960D02*
X8066610Y-13825484D01*
X8066610Y-13825484D02*
X8018991Y-13825484D01*
X8018991Y-13825484D02*
X7999943Y-13815960D01*
X7999943Y-13815960D02*
X7990420Y-13806436D01*
X8190420Y-13825484D02*
X8190420Y-13692150D01*
X8190420Y-13711198D02*
X8199943Y-13701674D01*
X8199943Y-13701674D02*
X8218991Y-13692150D01*
X8218991Y-13692150D02*
X8247563Y-13692150D01*
X8247563Y-13692150D02*
X8266610Y-13701674D01*
X8266610Y-13701674D02*
X8276134Y-13720722D01*
X8276134Y-13720722D02*
X8276134Y-13825484D01*
X8276134Y-13720722D02*
X8285658Y-13701674D01*
X8285658Y-13701674D02*
X8304705Y-13692150D01*
X8304705Y-13692150D02*
X8333277Y-13692150D01*
X8333277Y-13692150D02*
X8352324Y-13701674D01*
X8352324Y-13701674D02*
X8361848Y-13720722D01*
X8361848Y-13720722D02*
X8361848Y-13825484D01*
X8457086Y-13825484D02*
X8457086Y-13692150D01*
X8457086Y-13711198D02*
X8466610Y-13701674D01*
X8466610Y-13701674D02*
X8485658Y-13692150D01*
X8485658Y-13692150D02*
X8514229Y-13692150D01*
X8514229Y-13692150D02*
X8533277Y-13701674D01*
X8533277Y-13701674D02*
X8542801Y-13720722D01*
X8542801Y-13720722D02*
X8542801Y-13825484D01*
X8542801Y-13720722D02*
X8552325Y-13701674D01*
X8552325Y-13701674D02*
X8571372Y-13692150D01*
X8571372Y-13692150D02*
X8599944Y-13692150D01*
X8599944Y-13692150D02*
X8618991Y-13701674D01*
X8618991Y-13701674D02*
X8628515Y-13720722D01*
X8628515Y-13720722D02*
X8628515Y-13825484D01*
X9018991Y-13615960D02*
X8847563Y-13873103D01*
X9276134Y-13625484D02*
X9295182Y-13625484D01*
X9295182Y-13625484D02*
X9314229Y-13635008D01*
X9314229Y-13635008D02*
X9323753Y-13644531D01*
X9323753Y-13644531D02*
X9333277Y-13663579D01*
X9333277Y-13663579D02*
X9342801Y-13701674D01*
X9342801Y-13701674D02*
X9342801Y-13749293D01*
X9342801Y-13749293D02*
X9333277Y-13787388D01*
X9333277Y-13787388D02*
X9323753Y-13806436D01*
X9323753Y-13806436D02*
X9314229Y-13815960D01*
X9314229Y-13815960D02*
X9295182Y-13825484D01*
X9295182Y-13825484D02*
X9276134Y-13825484D01*
X9276134Y-13825484D02*
X9257087Y-13815960D01*
X9257087Y-13815960D02*
X9247563Y-13806436D01*
X9247563Y-13806436D02*
X9238039Y-13787388D01*
X9238039Y-13787388D02*
X9228515Y-13749293D01*
X9228515Y-13749293D02*
X9228515Y-13701674D01*
X9228515Y-13701674D02*
X9238039Y-13663579D01*
X9238039Y-13663579D02*
X9247563Y-13644531D01*
X9247563Y-13644531D02*
X9257087Y-13635008D01*
X9257087Y-13635008D02*
X9276134Y-13625484D01*
X9428515Y-13806436D02*
X9438039Y-13815960D01*
X9438039Y-13815960D02*
X9428515Y-13825484D01*
X9428515Y-13825484D02*
X9418991Y-13815960D01*
X9418991Y-13815960D02*
X9428515Y-13806436D01*
X9428515Y-13806436D02*
X9428515Y-13825484D01*
X9561848Y-13625484D02*
X9580896Y-13625484D01*
X9580896Y-13625484D02*
X9599944Y-13635008D01*
X9599944Y-13635008D02*
X9609468Y-13644531D01*
X9609468Y-13644531D02*
X9618991Y-13663579D01*
X9618991Y-13663579D02*
X9628515Y-13701674D01*
X9628515Y-13701674D02*
X9628515Y-13749293D01*
X9628515Y-13749293D02*
X9618991Y-13787388D01*
X9618991Y-13787388D02*
X9609468Y-13806436D01*
X9609468Y-13806436D02*
X9599944Y-13815960D01*
X9599944Y-13815960D02*
X9580896Y-13825484D01*
X9580896Y-13825484D02*
X9561848Y-13825484D01*
X9561848Y-13825484D02*
X9542801Y-13815960D01*
X9542801Y-13815960D02*
X9533277Y-13806436D01*
X9533277Y-13806436D02*
X9523753Y-13787388D01*
X9523753Y-13787388D02*
X9514229Y-13749293D01*
X9514229Y-13749293D02*
X9514229Y-13701674D01*
X9514229Y-13701674D02*
X9523753Y-13663579D01*
X9523753Y-13663579D02*
X9533277Y-13644531D01*
X9533277Y-13644531D02*
X9542801Y-13635008D01*
X9542801Y-13635008D02*
X9561848Y-13625484D01*
X9799944Y-13692150D02*
X9799944Y-13825484D01*
X9752325Y-13615960D02*
X9704706Y-13758817D01*
X9704706Y-13758817D02*
X9828515Y-13758817D01*
X9895182Y-13644531D02*
X9904706Y-13635008D01*
X9904706Y-13635008D02*
X9923753Y-13625484D01*
X9923753Y-13625484D02*
X9971372Y-13625484D01*
X9971372Y-13625484D02*
X9990420Y-13635008D01*
X9990420Y-13635008D02*
X9999944Y-13644531D01*
X9999944Y-13644531D02*
X10009468Y-13663579D01*
X10009468Y-13663579D02*
X10009468Y-13682627D01*
X10009468Y-13682627D02*
X9999944Y-13711198D01*
X9999944Y-13711198D02*
X9885658Y-13825484D01*
X9885658Y-13825484D02*
X10009468Y-13825484D01*
X10076134Y-13625484D02*
X10199944Y-13625484D01*
X10199944Y-13625484D02*
X10133277Y-13701674D01*
X10133277Y-13701674D02*
X10161849Y-13701674D01*
X10161849Y-13701674D02*
X10180896Y-13711198D01*
X10180896Y-13711198D02*
X10190420Y-13720722D01*
X10190420Y-13720722D02*
X10199944Y-13739769D01*
X10199944Y-13739769D02*
X10199944Y-13787388D01*
X10199944Y-13787388D02*
X10190420Y-13806436D01*
X10190420Y-13806436D02*
X10180896Y-13815960D01*
X10180896Y-13815960D02*
X10161849Y-13825484D01*
X10161849Y-13825484D02*
X10104706Y-13825484D01*
X10104706Y-13825484D02*
X10085658Y-13815960D01*
X10085658Y-13815960D02*
X10076134Y-13806436D01*
X10276134Y-13625484D02*
X10276134Y-13663579D01*
X10352325Y-13625484D02*
X10352325Y-13663579D01*
X10647563Y-13901674D02*
X10638039Y-13892150D01*
X10638039Y-13892150D02*
X10618991Y-13863579D01*
X10618991Y-13863579D02*
X10609468Y-13844531D01*
X10609468Y-13844531D02*
X10599944Y-13815960D01*
X10599944Y-13815960D02*
X10590420Y-13768341D01*
X10590420Y-13768341D02*
X10590420Y-13730246D01*
X10590420Y-13730246D02*
X10599944Y-13682627D01*
X10599944Y-13682627D02*
X10609468Y-13654055D01*
X10609468Y-13654055D02*
X10618991Y-13635008D01*
X10618991Y-13635008D02*
X10638039Y-13606436D01*
X10638039Y-13606436D02*
X10647563Y-13596912D01*
X10752325Y-13711198D02*
X10733277Y-13701674D01*
X10733277Y-13701674D02*
X10723753Y-13692150D01*
X10723753Y-13692150D02*
X10714230Y-13673103D01*
X10714230Y-13673103D02*
X10714230Y-13663579D01*
X10714230Y-13663579D02*
X10723753Y-13644531D01*
X10723753Y-13644531D02*
X10733277Y-13635008D01*
X10733277Y-13635008D02*
X10752325Y-13625484D01*
X10752325Y-13625484D02*
X10790420Y-13625484D01*
X10790420Y-13625484D02*
X10809468Y-13635008D01*
X10809468Y-13635008D02*
X10818991Y-13644531D01*
X10818991Y-13644531D02*
X10828515Y-13663579D01*
X10828515Y-13663579D02*
X10828515Y-13673103D01*
X10828515Y-13673103D02*
X10818991Y-13692150D01*
X10818991Y-13692150D02*
X10809468Y-13701674D01*
X10809468Y-13701674D02*
X10790420Y-13711198D01*
X10790420Y-13711198D02*
X10752325Y-13711198D01*
X10752325Y-13711198D02*
X10733277Y-13720722D01*
X10733277Y-13720722D02*
X10723753Y-13730246D01*
X10723753Y-13730246D02*
X10714230Y-13749293D01*
X10714230Y-13749293D02*
X10714230Y-13787388D01*
X10714230Y-13787388D02*
X10723753Y-13806436D01*
X10723753Y-13806436D02*
X10733277Y-13815960D01*
X10733277Y-13815960D02*
X10752325Y-13825484D01*
X10752325Y-13825484D02*
X10790420Y-13825484D01*
X10790420Y-13825484D02*
X10809468Y-13815960D01*
X10809468Y-13815960D02*
X10818991Y-13806436D01*
X10818991Y-13806436D02*
X10828515Y-13787388D01*
X10828515Y-13787388D02*
X10828515Y-13749293D01*
X10828515Y-13749293D02*
X10818991Y-13730246D01*
X10818991Y-13730246D02*
X10809468Y-13720722D01*
X10809468Y-13720722D02*
X10790420Y-13711198D01*
X11066611Y-13825484D02*
X11066611Y-13625484D01*
X11152325Y-13825484D02*
X11152325Y-13720722D01*
X11152325Y-13720722D02*
X11142801Y-13701674D01*
X11142801Y-13701674D02*
X11123753Y-13692150D01*
X11123753Y-13692150D02*
X11095182Y-13692150D01*
X11095182Y-13692150D02*
X11076134Y-13701674D01*
X11076134Y-13701674D02*
X11066611Y-13711198D01*
X11276134Y-13825484D02*
X11257087Y-13815960D01*
X11257087Y-13815960D02*
X11247563Y-13806436D01*
X11247563Y-13806436D02*
X11238039Y-13787388D01*
X11238039Y-13787388D02*
X11238039Y-13730246D01*
X11238039Y-13730246D02*
X11247563Y-13711198D01*
X11247563Y-13711198D02*
X11257087Y-13701674D01*
X11257087Y-13701674D02*
X11276134Y-13692150D01*
X11276134Y-13692150D02*
X11304706Y-13692150D01*
X11304706Y-13692150D02*
X11323753Y-13701674D01*
X11323753Y-13701674D02*
X11333277Y-13711198D01*
X11333277Y-13711198D02*
X11342801Y-13730246D01*
X11342801Y-13730246D02*
X11342801Y-13787388D01*
X11342801Y-13787388D02*
X11333277Y-13806436D01*
X11333277Y-13806436D02*
X11323753Y-13815960D01*
X11323753Y-13815960D02*
X11304706Y-13825484D01*
X11304706Y-13825484D02*
X11276134Y-13825484D01*
X11457087Y-13825484D02*
X11438039Y-13815960D01*
X11438039Y-13815960D02*
X11428515Y-13796912D01*
X11428515Y-13796912D02*
X11428515Y-13625484D01*
X11609468Y-13815960D02*
X11590420Y-13825484D01*
X11590420Y-13825484D02*
X11552325Y-13825484D01*
X11552325Y-13825484D02*
X11533277Y-13815960D01*
X11533277Y-13815960D02*
X11523753Y-13796912D01*
X11523753Y-13796912D02*
X11523753Y-13720722D01*
X11523753Y-13720722D02*
X11533277Y-13701674D01*
X11533277Y-13701674D02*
X11552325Y-13692150D01*
X11552325Y-13692150D02*
X11590420Y-13692150D01*
X11590420Y-13692150D02*
X11609468Y-13701674D01*
X11609468Y-13701674D02*
X11618991Y-13720722D01*
X11618991Y-13720722D02*
X11618991Y-13739769D01*
X11618991Y-13739769D02*
X11523753Y-13758817D01*
X11695182Y-13815960D02*
X11714230Y-13825484D01*
X11714230Y-13825484D02*
X11752325Y-13825484D01*
X11752325Y-13825484D02*
X11771372Y-13815960D01*
X11771372Y-13815960D02*
X11780896Y-13796912D01*
X11780896Y-13796912D02*
X11780896Y-13787388D01*
X11780896Y-13787388D02*
X11771372Y-13768341D01*
X11771372Y-13768341D02*
X11752325Y-13758817D01*
X11752325Y-13758817D02*
X11723753Y-13758817D01*
X11723753Y-13758817D02*
X11704706Y-13749293D01*
X11704706Y-13749293D02*
X11695182Y-13730246D01*
X11695182Y-13730246D02*
X11695182Y-13720722D01*
X11695182Y-13720722D02*
X11704706Y-13701674D01*
X11704706Y-13701674D02*
X11723753Y-13692150D01*
X11723753Y-13692150D02*
X11752325Y-13692150D01*
X11752325Y-13692150D02*
X11771372Y-13701674D01*
X11847563Y-13901674D02*
X11857087Y-13892150D01*
X11857087Y-13892150D02*
X11876134Y-13863579D01*
X11876134Y-13863579D02*
X11885658Y-13844531D01*
X11885658Y-13844531D02*
X11895182Y-13815960D01*
X11895182Y-13815960D02*
X11904706Y-13768341D01*
X11904706Y-13768341D02*
X11904706Y-13730246D01*
X11904706Y-13730246D02*
X11895182Y-13682627D01*
X11895182Y-13682627D02*
X11885658Y-13654055D01*
X11885658Y-13654055D02*
X11876134Y-13635008D01*
X11876134Y-13635008D02*
X11857087Y-13606436D01*
X11857087Y-13606436D02*
X11847563Y-13596912D01*
X6972500Y-13898000D02*
X6972500Y-14098000D01*
X6872500Y-13998000D02*
X7072500Y-13998000D01*
X7314229Y-13889484D02*
X7438039Y-13889484D01*
X7438039Y-13889484D02*
X7371372Y-13965674D01*
X7371372Y-13965674D02*
X7399943Y-13965674D01*
X7399943Y-13965674D02*
X7418991Y-13975198D01*
X7418991Y-13975198D02*
X7428515Y-13984722D01*
X7428515Y-13984722D02*
X7438039Y-14003769D01*
X7438039Y-14003769D02*
X7438039Y-14051388D01*
X7438039Y-14051388D02*
X7428515Y-14070436D01*
X7428515Y-14070436D02*
X7418991Y-14079960D01*
X7418991Y-14079960D02*
X7399943Y-14089484D01*
X7399943Y-14089484D02*
X7342801Y-14089484D01*
X7342801Y-14089484D02*
X7323753Y-14079960D01*
X7323753Y-14079960D02*
X7314229Y-14070436D01*
X7523753Y-14070436D02*
X7533277Y-14079960D01*
X7533277Y-14079960D02*
X7523753Y-14089484D01*
X7523753Y-14089484D02*
X7514229Y-14079960D01*
X7514229Y-14079960D02*
X7523753Y-14070436D01*
X7523753Y-14070436D02*
X7523753Y-14089484D01*
X7609467Y-13908531D02*
X7618991Y-13899008D01*
X7618991Y-13899008D02*
X7638039Y-13889484D01*
X7638039Y-13889484D02*
X7685658Y-13889484D01*
X7685658Y-13889484D02*
X7704705Y-13899008D01*
X7704705Y-13899008D02*
X7714229Y-13908531D01*
X7714229Y-13908531D02*
X7723753Y-13927579D01*
X7723753Y-13927579D02*
X7723753Y-13946627D01*
X7723753Y-13946627D02*
X7714229Y-13975198D01*
X7714229Y-13975198D02*
X7599943Y-14089484D01*
X7599943Y-14089484D02*
X7723753Y-14089484D01*
X7847562Y-13889484D02*
X7866610Y-13889484D01*
X7866610Y-13889484D02*
X7885658Y-13899008D01*
X7885658Y-13899008D02*
X7895182Y-13908531D01*
X7895182Y-13908531D02*
X7904705Y-13927579D01*
X7904705Y-13927579D02*
X7914229Y-13965674D01*
X7914229Y-13965674D02*
X7914229Y-14013293D01*
X7914229Y-14013293D02*
X7904705Y-14051388D01*
X7904705Y-14051388D02*
X7895182Y-14070436D01*
X7895182Y-14070436D02*
X7885658Y-14079960D01*
X7885658Y-14079960D02*
X7866610Y-14089484D01*
X7866610Y-14089484D02*
X7847562Y-14089484D01*
X7847562Y-14089484D02*
X7828515Y-14079960D01*
X7828515Y-14079960D02*
X7818991Y-14070436D01*
X7818991Y-14070436D02*
X7809467Y-14051388D01*
X7809467Y-14051388D02*
X7799943Y-14013293D01*
X7799943Y-14013293D02*
X7799943Y-13965674D01*
X7799943Y-13965674D02*
X7809467Y-13927579D01*
X7809467Y-13927579D02*
X7818991Y-13908531D01*
X7818991Y-13908531D02*
X7828515Y-13899008D01*
X7828515Y-13899008D02*
X7847562Y-13889484D01*
X8038039Y-13889484D02*
X8057086Y-13889484D01*
X8057086Y-13889484D02*
X8076134Y-13899008D01*
X8076134Y-13899008D02*
X8085658Y-13908531D01*
X8085658Y-13908531D02*
X8095182Y-13927579D01*
X8095182Y-13927579D02*
X8104705Y-13965674D01*
X8104705Y-13965674D02*
X8104705Y-14013293D01*
X8104705Y-14013293D02*
X8095182Y-14051388D01*
X8095182Y-14051388D02*
X8085658Y-14070436D01*
X8085658Y-14070436D02*
X8076134Y-14079960D01*
X8076134Y-14079960D02*
X8057086Y-14089484D01*
X8057086Y-14089484D02*
X8038039Y-14089484D01*
X8038039Y-14089484D02*
X8018991Y-14079960D01*
X8018991Y-14079960D02*
X8009467Y-14070436D01*
X8009467Y-14070436D02*
X7999943Y-14051388D01*
X7999943Y-14051388D02*
X7990420Y-14013293D01*
X7990420Y-14013293D02*
X7990420Y-13965674D01*
X7990420Y-13965674D02*
X7999943Y-13927579D01*
X7999943Y-13927579D02*
X8009467Y-13908531D01*
X8009467Y-13908531D02*
X8018991Y-13899008D01*
X8018991Y-13899008D02*
X8038039Y-13889484D01*
X8190420Y-14089484D02*
X8190420Y-13956150D01*
X8190420Y-13975198D02*
X8199943Y-13965674D01*
X8199943Y-13965674D02*
X8218991Y-13956150D01*
X8218991Y-13956150D02*
X8247563Y-13956150D01*
X8247563Y-13956150D02*
X8266610Y-13965674D01*
X8266610Y-13965674D02*
X8276134Y-13984722D01*
X8276134Y-13984722D02*
X8276134Y-14089484D01*
X8276134Y-13984722D02*
X8285658Y-13965674D01*
X8285658Y-13965674D02*
X8304705Y-13956150D01*
X8304705Y-13956150D02*
X8333277Y-13956150D01*
X8333277Y-13956150D02*
X8352324Y-13965674D01*
X8352324Y-13965674D02*
X8361848Y-13984722D01*
X8361848Y-13984722D02*
X8361848Y-14089484D01*
X8457086Y-14089484D02*
X8457086Y-13956150D01*
X8457086Y-13975198D02*
X8466610Y-13965674D01*
X8466610Y-13965674D02*
X8485658Y-13956150D01*
X8485658Y-13956150D02*
X8514229Y-13956150D01*
X8514229Y-13956150D02*
X8533277Y-13965674D01*
X8533277Y-13965674D02*
X8542801Y-13984722D01*
X8542801Y-13984722D02*
X8542801Y-14089484D01*
X8542801Y-13984722D02*
X8552325Y-13965674D01*
X8552325Y-13965674D02*
X8571372Y-13956150D01*
X8571372Y-13956150D02*
X8599944Y-13956150D01*
X8599944Y-13956150D02*
X8618991Y-13965674D01*
X8618991Y-13965674D02*
X8628515Y-13984722D01*
X8628515Y-13984722D02*
X8628515Y-14089484D01*
X9018991Y-13879960D02*
X8847563Y-14137103D01*
X9276134Y-13889484D02*
X9295182Y-13889484D01*
X9295182Y-13889484D02*
X9314229Y-13899008D01*
X9314229Y-13899008D02*
X9323753Y-13908531D01*
X9323753Y-13908531D02*
X9333277Y-13927579D01*
X9333277Y-13927579D02*
X9342801Y-13965674D01*
X9342801Y-13965674D02*
X9342801Y-14013293D01*
X9342801Y-14013293D02*
X9333277Y-14051388D01*
X9333277Y-14051388D02*
X9323753Y-14070436D01*
X9323753Y-14070436D02*
X9314229Y-14079960D01*
X9314229Y-14079960D02*
X9295182Y-14089484D01*
X9295182Y-14089484D02*
X9276134Y-14089484D01*
X9276134Y-14089484D02*
X9257087Y-14079960D01*
X9257087Y-14079960D02*
X9247563Y-14070436D01*
X9247563Y-14070436D02*
X9238039Y-14051388D01*
X9238039Y-14051388D02*
X9228515Y-14013293D01*
X9228515Y-14013293D02*
X9228515Y-13965674D01*
X9228515Y-13965674D02*
X9238039Y-13927579D01*
X9238039Y-13927579D02*
X9247563Y-13908531D01*
X9247563Y-13908531D02*
X9257087Y-13899008D01*
X9257087Y-13899008D02*
X9276134Y-13889484D01*
X9428515Y-14070436D02*
X9438039Y-14079960D01*
X9438039Y-14079960D02*
X9428515Y-14089484D01*
X9428515Y-14089484D02*
X9418991Y-14079960D01*
X9418991Y-14079960D02*
X9428515Y-14070436D01*
X9428515Y-14070436D02*
X9428515Y-14089484D01*
X9628515Y-14089484D02*
X9514229Y-14089484D01*
X9571372Y-14089484D02*
X9571372Y-13889484D01*
X9571372Y-13889484D02*
X9552325Y-13918055D01*
X9552325Y-13918055D02*
X9533277Y-13937103D01*
X9533277Y-13937103D02*
X9514229Y-13946627D01*
X9704706Y-13908531D02*
X9714229Y-13899008D01*
X9714229Y-13899008D02*
X9733277Y-13889484D01*
X9733277Y-13889484D02*
X9780896Y-13889484D01*
X9780896Y-13889484D02*
X9799944Y-13899008D01*
X9799944Y-13899008D02*
X9809468Y-13908531D01*
X9809468Y-13908531D02*
X9818991Y-13927579D01*
X9818991Y-13927579D02*
X9818991Y-13946627D01*
X9818991Y-13946627D02*
X9809468Y-13975198D01*
X9809468Y-13975198D02*
X9695182Y-14089484D01*
X9695182Y-14089484D02*
X9818991Y-14089484D01*
X9990420Y-13889484D02*
X9952325Y-13889484D01*
X9952325Y-13889484D02*
X9933277Y-13899008D01*
X9933277Y-13899008D02*
X9923753Y-13908531D01*
X9923753Y-13908531D02*
X9904706Y-13937103D01*
X9904706Y-13937103D02*
X9895182Y-13975198D01*
X9895182Y-13975198D02*
X9895182Y-14051388D01*
X9895182Y-14051388D02*
X9904706Y-14070436D01*
X9904706Y-14070436D02*
X9914229Y-14079960D01*
X9914229Y-14079960D02*
X9933277Y-14089484D01*
X9933277Y-14089484D02*
X9971372Y-14089484D01*
X9971372Y-14089484D02*
X9990420Y-14079960D01*
X9990420Y-14079960D02*
X9999944Y-14070436D01*
X9999944Y-14070436D02*
X10009468Y-14051388D01*
X10009468Y-14051388D02*
X10009468Y-14003769D01*
X10009468Y-14003769D02*
X9999944Y-13984722D01*
X9999944Y-13984722D02*
X9990420Y-13975198D01*
X9990420Y-13975198D02*
X9971372Y-13965674D01*
X9971372Y-13965674D02*
X9933277Y-13965674D01*
X9933277Y-13965674D02*
X9914229Y-13975198D01*
X9914229Y-13975198D02*
X9904706Y-13984722D01*
X9904706Y-13984722D02*
X9895182Y-14003769D01*
X10133277Y-13889484D02*
X10152325Y-13889484D01*
X10152325Y-13889484D02*
X10171372Y-13899008D01*
X10171372Y-13899008D02*
X10180896Y-13908531D01*
X10180896Y-13908531D02*
X10190420Y-13927579D01*
X10190420Y-13927579D02*
X10199944Y-13965674D01*
X10199944Y-13965674D02*
X10199944Y-14013293D01*
X10199944Y-14013293D02*
X10190420Y-14051388D01*
X10190420Y-14051388D02*
X10180896Y-14070436D01*
X10180896Y-14070436D02*
X10171372Y-14079960D01*
X10171372Y-14079960D02*
X10152325Y-14089484D01*
X10152325Y-14089484D02*
X10133277Y-14089484D01*
X10133277Y-14089484D02*
X10114229Y-14079960D01*
X10114229Y-14079960D02*
X10104706Y-14070436D01*
X10104706Y-14070436D02*
X10095182Y-14051388D01*
X10095182Y-14051388D02*
X10085658Y-14013293D01*
X10085658Y-14013293D02*
X10085658Y-13965674D01*
X10085658Y-13965674D02*
X10095182Y-13927579D01*
X10095182Y-13927579D02*
X10104706Y-13908531D01*
X10104706Y-13908531D02*
X10114229Y-13899008D01*
X10114229Y-13899008D02*
X10133277Y-13889484D01*
X10276134Y-13889484D02*
X10276134Y-13927579D01*
X10352325Y-13889484D02*
X10352325Y-13927579D01*
X10647563Y-14165674D02*
X10638039Y-14156150D01*
X10638039Y-14156150D02*
X10618991Y-14127579D01*
X10618991Y-14127579D02*
X10609468Y-14108531D01*
X10609468Y-14108531D02*
X10599944Y-14079960D01*
X10599944Y-14079960D02*
X10590420Y-14032341D01*
X10590420Y-14032341D02*
X10590420Y-13994246D01*
X10590420Y-13994246D02*
X10599944Y-13946627D01*
X10599944Y-13946627D02*
X10609468Y-13918055D01*
X10609468Y-13918055D02*
X10618991Y-13899008D01*
X10618991Y-13899008D02*
X10638039Y-13870436D01*
X10638039Y-13870436D02*
X10647563Y-13860912D01*
X10809468Y-13956150D02*
X10809468Y-14089484D01*
X10761849Y-13879960D02*
X10714230Y-14022817D01*
X10714230Y-14022817D02*
X10838039Y-14022817D01*
X11066611Y-14089484D02*
X11066611Y-13889484D01*
X11152325Y-14089484D02*
X11152325Y-13984722D01*
X11152325Y-13984722D02*
X11142801Y-13965674D01*
X11142801Y-13965674D02*
X11123753Y-13956150D01*
X11123753Y-13956150D02*
X11095182Y-13956150D01*
X11095182Y-13956150D02*
X11076134Y-13965674D01*
X11076134Y-13965674D02*
X11066611Y-13975198D01*
X11276134Y-14089484D02*
X11257087Y-14079960D01*
X11257087Y-14079960D02*
X11247563Y-14070436D01*
X11247563Y-14070436D02*
X11238039Y-14051388D01*
X11238039Y-14051388D02*
X11238039Y-13994246D01*
X11238039Y-13994246D02*
X11247563Y-13975198D01*
X11247563Y-13975198D02*
X11257087Y-13965674D01*
X11257087Y-13965674D02*
X11276134Y-13956150D01*
X11276134Y-13956150D02*
X11304706Y-13956150D01*
X11304706Y-13956150D02*
X11323753Y-13965674D01*
X11323753Y-13965674D02*
X11333277Y-13975198D01*
X11333277Y-13975198D02*
X11342801Y-13994246D01*
X11342801Y-13994246D02*
X11342801Y-14051388D01*
X11342801Y-14051388D02*
X11333277Y-14070436D01*
X11333277Y-14070436D02*
X11323753Y-14079960D01*
X11323753Y-14079960D02*
X11304706Y-14089484D01*
X11304706Y-14089484D02*
X11276134Y-14089484D01*
X11457087Y-14089484D02*
X11438039Y-14079960D01*
X11438039Y-14079960D02*
X11428515Y-14060912D01*
X11428515Y-14060912D02*
X11428515Y-13889484D01*
X11609468Y-14079960D02*
X11590420Y-14089484D01*
X11590420Y-14089484D02*
X11552325Y-14089484D01*
X11552325Y-14089484D02*
X11533277Y-14079960D01*
X11533277Y-14079960D02*
X11523753Y-14060912D01*
X11523753Y-14060912D02*
X11523753Y-13984722D01*
X11523753Y-13984722D02*
X11533277Y-13965674D01*
X11533277Y-13965674D02*
X11552325Y-13956150D01*
X11552325Y-13956150D02*
X11590420Y-13956150D01*
X11590420Y-13956150D02*
X11609468Y-13965674D01*
X11609468Y-13965674D02*
X11618991Y-13984722D01*
X11618991Y-13984722D02*
X11618991Y-14003769D01*
X11618991Y-14003769D02*
X11523753Y-14022817D01*
X11695182Y-14079960D02*
X11714230Y-14089484D01*
X11714230Y-14089484D02*
X11752325Y-14089484D01*
X11752325Y-14089484D02*
X11771372Y-14079960D01*
X11771372Y-14079960D02*
X11780896Y-14060912D01*
X11780896Y-14060912D02*
X11780896Y-14051388D01*
X11780896Y-14051388D02*
X11771372Y-14032341D01*
X11771372Y-14032341D02*
X11752325Y-14022817D01*
X11752325Y-14022817D02*
X11723753Y-14022817D01*
X11723753Y-14022817D02*
X11704706Y-14013293D01*
X11704706Y-14013293D02*
X11695182Y-13994246D01*
X11695182Y-13994246D02*
X11695182Y-13984722D01*
X11695182Y-13984722D02*
X11704706Y-13965674D01*
X11704706Y-13965674D02*
X11723753Y-13956150D01*
X11723753Y-13956150D02*
X11752325Y-13956150D01*
X11752325Y-13956150D02*
X11771372Y-13965674D01*
X11847563Y-14165674D02*
X11857087Y-14156150D01*
X11857087Y-14156150D02*
X11876134Y-14127579D01*
X11876134Y-14127579D02*
X11885658Y-14108531D01*
X11885658Y-14108531D02*
X11895182Y-14079960D01*
X11895182Y-14079960D02*
X11904706Y-14032341D01*
X11904706Y-14032341D02*
X11904706Y-13994246D01*
X11904706Y-13994246D02*
X11895182Y-13946627D01*
X11895182Y-13946627D02*
X11885658Y-13918055D01*
X11885658Y-13918055D02*
X11876134Y-13899008D01*
X11876134Y-13899008D02*
X11857087Y-13870436D01*
X11857087Y-13870436D02*
X11847563Y-13860912D01*
M02*
