M48
; DRILL file {KiCad 8.0.2} date 2024-06-09T17:22:22+0800
; FORMAT={-:-/ absolute / inch / decimal}
; #@! TF.CreationDate,2024-06-09T17:22:22+08:00
; #@! TF.GenerationSoftware,Kicad,Pcbnew,8.0.2
; #@! TF.FileFunction,Plated,1,2,PTH
FMAT,2
INCH
; #@! TA.AperFunction,Plated,PTH,ViaDrill
T1C0.0118
; #@! TA.AperFunction,Plated,PTH,ComponentDrill
T2C0.0423
; #@! TA.AperFunction,Plated,PTH,ComponentDrill
T3C0.1260
%
G90
G05
T1
X3.0709Y-3.1565
X3.0709Y-3.2352
X3.0709Y-3.314
X3.0709Y-3.3927
X3.0709Y-3.4715
X3.0709Y-3.5502
X3.0709Y-3.6289
X3.0709Y-3.7077
X3.0709Y-3.7864
X3.0709Y-3.8652
X3.0709Y-3.9439
X3.0709Y-4.0226
X3.0709Y-4.1014
X3.0709Y-4.1801
X3.0709Y-4.2589
X3.0709Y-4.3376
X3.0709Y-4.4163
X3.0709Y-4.4951
X3.0709Y-4.5738
X3.0709Y-4.6526
X3.0728Y-3.0098
X3.1102Y-3.1171
X3.1102Y-3.1959
X3.1102Y-3.2746
X3.1102Y-3.3533
X3.1102Y-3.4321
X3.1102Y-3.5108
X3.1102Y-3.5896
X3.1102Y-3.6683
X3.1102Y-3.747
X3.1102Y-3.8258
X3.1102Y-3.9045
X3.1102Y-3.9833
X3.1102Y-4.062
X3.1102Y-4.1407
X3.1102Y-4.2195
X3.1102Y-4.2982
X3.1102Y-4.377
X3.1102Y-4.4557
X3.1102Y-4.5344
X3.1102Y-4.6132
X3.1152Y-3.0728
X3.1171Y-2.936
X3.1171Y-3.0148
X3.1496Y-3.1565
X3.1496Y-3.2352
X3.1496Y-3.314
X3.1496Y-3.3927
X3.1496Y-3.4715
X3.1496Y-3.5502
X3.1496Y-3.6289
X3.1496Y-3.7077
X3.1496Y-3.7864
X3.1496Y-3.8652
X3.1496Y-3.9439
X3.1496Y-4.0226
X3.1496Y-4.1014
X3.1496Y-4.1801
X3.1496Y-4.2589
X3.1496Y-4.3376
X3.1496Y-4.4163
X3.1496Y-4.4951
X3.1496Y-4.5738
X3.1496Y-4.6526
X3.1565Y-2.9754
X3.1565Y-3.0541
X3.189Y-3.1171
X3.189Y-3.1959
X3.189Y-3.2746
X3.189Y-3.3533
X3.189Y-3.4321
X3.189Y-3.5108
X3.189Y-3.5896
X3.189Y-3.6683
X3.189Y-3.747
X3.189Y-3.8258
X3.189Y-3.9045
X3.189Y-3.9833
X3.189Y-4.062
X3.189Y-4.1407
X3.189Y-4.2195
X3.189Y-4.2982
X3.189Y-4.377
X3.189Y-4.4557
X3.189Y-4.5344
X3.189Y-4.6132
X3.1959Y-2.936
X3.1959Y-3.0148
X3.2352Y-2.9754
X3.2352Y-3.0541
X3.2598Y-3.4449
X3.2598Y-3.5236
X3.2746Y-2.936
X3.2746Y-3.0148
X3.2756Y-3.0974
X3.2795Y-3.2618
X3.2795Y-3.3406
X3.2992Y-3.4843
X3.2992Y-3.563
X3.314Y-2.9754
X3.314Y-3.0541
X3.3189Y-3.2225
X3.3189Y-3.3012
X3.3191Y-3.8699
X3.3191Y-3.9486
X3.3191Y-4.0274
X3.3386Y-3.4449
X3.3386Y-3.5236
X3.3533Y-2.936
X3.3533Y-3.0148
X3.3533Y-3.1004
X3.3583Y-3.2618
X3.3583Y-3.3406
X3.3585Y-3.9092
X3.3585Y-3.988
X3.3661Y-4.0659
X3.3661Y-4.1447
X3.378Y-3.4843
X3.378Y-3.563
X3.3927Y-2.9754
X3.3927Y-3.0541
X3.3976Y-3.2225
X3.3976Y-3.3012
X3.3978Y-3.8699
X3.3978Y-3.9486
X3.3978Y-4.0274
X3.4055Y-4.1053
X3.4055Y-4.1841
X3.4173Y-3.4449
X3.4173Y-3.5236
X3.4321Y-2.936
X3.4321Y-3.0148
X3.4331Y-3.1024
X3.437Y-3.2618
X3.437Y-3.3406
X3.4372Y-3.9092
X3.4372Y-3.988
X3.4449Y-4.0659
X3.4449Y-4.1447
X3.4567Y-3.4843
X3.4567Y-3.563
X3.4676Y-3.8773
X3.4676Y-3.956
X3.4715Y-2.9754
X3.4715Y-3.0541
X3.4756Y-3.2148
X3.4756Y-3.2935
X3.4843Y-4.1053
X3.4843Y-4.1841
X3.4961Y-3.4449
X3.4961Y-3.5236
X3.5069Y-3.9166
X3.5069Y-3.9954
X3.5108Y-2.936
X3.5108Y-3.0148
X3.5118Y-3.1073
X3.5236Y-4.0659
X3.5236Y-4.1447
X3.5354Y-3.4843
X3.5354Y-3.563
X3.5463Y-3.8773
X3.5463Y-3.956
X3.5502Y-2.9754
X3.5502Y-3.0541
X3.563Y-4.1053
X3.563Y-4.1841
X3.5748Y-3.4449
X3.5748Y-3.5236
X3.5857Y-3.9166
X3.5857Y-3.9954
X3.5862Y-3.2658
X3.5862Y-3.3445
X3.5915Y-2.935
X3.5915Y-3.0138
X3.5925Y-3.1122
X3.6024Y-4.0659
X3.6024Y-4.1447
X3.6142Y-3.4843
X3.6142Y-3.563
X3.6251Y-3.8773
X3.6251Y-3.956
X3.6256Y-3.2264
X3.6256Y-3.3051
X3.6309Y-2.9744
X3.6309Y-3.0531
X3.6417Y-4.1053
X3.6417Y-4.1841
X3.6535Y-3.4449
X3.6535Y-3.5236
X3.6644Y-3.9166
X3.6644Y-3.9954
X3.6649Y-3.2658
X3.6649Y-3.3445
X3.6693Y-3.1142
X3.6703Y-2.935
X3.6703Y-3.0138
X3.6811Y-4.0659
X3.6811Y-4.1447
X3.6929Y-3.4843
X3.6929Y-3.563
X3.7038Y-3.8773
X3.7038Y-3.956
X3.7043Y-3.2264
X3.7043Y-3.3051
X3.7096Y-2.9744
X3.7096Y-3.0531
X3.7323Y-3.4449
X3.7323Y-3.5236
X3.7432Y-3.9166
X3.7432Y-3.9954
X3.7437Y-3.2658
X3.7437Y-3.3445
X3.749Y-2.935
X3.749Y-3.0138
X3.75Y-3.1211
X3.7717Y-3.4843
X3.7717Y-3.563
X3.7823Y-3.2187
X3.7823Y-3.2974
X3.7825Y-3.8773
X3.7825Y-3.956
X3.7884Y-2.9744
X3.7884Y-3.0531
X3.811Y-3.4449
X3.811Y-3.5236
X3.8278Y-2.935
X3.8278Y-3.0138
X3.8287Y-3.122
X3.8504Y-3.4843
X3.8504Y-3.563
X3.8671Y-2.9744
X3.8671Y-3.0531
X3.873Y-4.6585
X3.8898Y-3.4449
X3.8898Y-3.5236
X3.8927Y-4.5596
X3.9065Y-2.935
X3.9065Y-3.0138
X3.9094Y-3.124
X3.9291Y-3.4843
X3.9291Y-3.563
X3.9409Y-4.7963
X3.9459Y-2.9744
X3.9459Y-3.0531
X3.9523Y-4.3081
X3.9528Y-4.2451
X3.9685Y-3.4449
X3.9685Y-3.5236
X4.0079Y-3.4843
X4.0079Y-3.563
X4.0128Y-4.6063
X4.0398Y-4.3431
X4.0472Y-3.4449
X4.0472Y-3.5236
X4.0866Y-3.4843
X4.0866Y-3.563
X4.0965Y-3.6496
X4.0965Y-3.689
X4.0965Y-3.7283
X4.0965Y-3.7677
X4.0998Y-3.1522
X4.0998Y-3.2309
X4.0998Y-3.3096
X4.126Y-3.4449
X4.126Y-3.5236
X4.1358Y-3.6496
X4.1358Y-3.689
X4.1358Y-3.7283
X4.1358Y-3.7677
X4.1392Y-3.1915
X4.1392Y-3.2703
X4.1469Y-3.3482
X4.1654Y-3.4843
X4.1654Y-3.563
X4.1752Y-3.6496
X4.1752Y-3.689
X4.1752Y-3.7283
X4.1752Y-3.7677
X4.1785Y-3.1522
X4.1785Y-3.2309
X4.1785Y-3.3096
X4.1878Y-3.8868
X4.1878Y-3.9262
X4.1878Y-3.9656
X4.1878Y-4.0049
X4.1949Y-3.439
X4.1949Y-3.5177
X4.2146Y-3.6496
X4.2146Y-3.689
X4.2146Y-3.7283
X4.2146Y-3.7677
X4.2146Y-4.3081
X4.2179Y-3.1915
X4.2179Y-3.2703
X4.2256Y-3.3482
X4.2272Y-3.8868
X4.2272Y-3.9262
X4.2272Y-3.9656
X4.2272Y-4.0049
X4.2343Y-3.4783
X4.2343Y-3.5571
X4.2665Y-3.8868
X4.2665Y-3.9262
X4.2665Y-3.9656
X4.2665Y-4.0049
X4.3059Y-3.8868
X4.3059Y-3.9262
X4.3059Y-3.9656
X4.3059Y-4.0049
X4.3169Y-3.6366
X4.3169Y-3.6866
X4.3173Y-3.7364
X4.3177Y-3.788
X4.3657Y-4.3478
X4.373Y-4.1063
X4.452Y-3.6419
X4.452Y-3.7207
X4.452Y-3.7994
X4.452Y-3.8781
X4.452Y-3.9569
X4.4913Y-3.6813
X4.4913Y-3.76
X4.4913Y-3.8388
X4.4913Y-3.9175
X4.4913Y-3.9963
X4.5197Y-3.1575
X4.5197Y-3.2362
X4.5197Y-3.315
X4.5307Y-3.6419
X4.5307Y-3.7207
X4.5307Y-3.7994
X4.5307Y-3.8781
X4.5307Y-3.9569
X4.5591Y-3.1969
X4.5591Y-3.2756
X4.5667Y-3.3536
X4.5667Y-3.4323
X4.5701Y-3.6813
X4.5701Y-3.76
X4.5701Y-3.8388
X4.5701Y-3.9175
X4.5701Y-3.9963
X4.5984Y-3.1575
X4.5984Y-3.2362
X4.5984Y-3.315
X4.6061Y-3.3929
X4.6061Y-3.4717
X4.6094Y-3.6419
X4.6094Y-3.7207
X4.6094Y-3.7994
X4.6094Y-3.8781
X4.6094Y-3.9569
X4.6378Y-3.1969
X4.6378Y-3.2756
X4.6455Y-3.3536
X4.6455Y-3.4323
X4.6682Y-3.1649
X4.6682Y-3.2436
X4.6849Y-3.3929
X4.6849Y-3.4717
X4.7075Y-3.2043
X4.7075Y-3.283
X4.7242Y-3.3536
X4.7242Y-3.4323
X4.7469Y-3.1649
X4.7469Y-3.2436
X4.7636Y-3.3929
X4.7636Y-3.4717
X4.7863Y-3.2043
X4.7863Y-3.283
X4.803Y-3.3536
X4.803Y-3.4323
X4.8039Y-4.2553
X4.8257Y-3.1649
X4.8257Y-3.2436
X4.8423Y-3.3929
X4.8423Y-3.4717
X4.865Y-3.2043
X4.865Y-3.283
X4.8817Y-3.3536
X4.8817Y-3.4323
X4.8819Y-3.6378
X4.8819Y-3.7165
X4.8819Y-3.7953
X4.8819Y-3.874
X4.8819Y-3.9528
X4.9044Y-3.1649
X4.9044Y-3.2436
X4.9161Y-4.6907
X4.9162Y-4.4724
X4.9213Y-3.6772
X4.9213Y-3.7559
X4.9213Y-3.8346
X4.9213Y-3.9134
X4.9213Y-3.9921
X4.9438Y-3.2043
X4.9438Y-3.283
X4.9606Y-3.6378
X4.9606Y-3.7165
X4.9606Y-3.7953
X4.9606Y-3.874
X4.9606Y-3.9528
X4.9654Y-4.3699
X4.9695Y-4.1476
X4.9831Y-3.1649
X4.9831Y-3.2436
X4.9882Y-4.4179
X4.997Y-4.2864
X5.0Y-3.6772
X5.0Y-3.7559
X5.0Y-3.8346
X5.0Y-3.9134
X5.0Y-3.9921
X5.0266Y-4.0797
X5.0394Y-3.6378
X5.0394Y-3.7165
X5.0394Y-3.7953
X5.0394Y-3.874
X5.0394Y-3.9528
X5.0787Y-3.6772
X5.0787Y-3.7559
X5.0787Y-3.8346
X5.0787Y-3.9134
X5.0787Y-3.9921
X5.1181Y-3.6378
X5.1181Y-3.7165
X5.1575Y-3.6772
X5.1811Y-4.1919
X5.1811Y-4.3248
X5.189Y-4.5482
X5.1909Y-3.6366
X5.1909Y-3.6866
X5.1909Y-3.7366
X5.1909Y-3.7866
X5.2067Y-3.8858
X5.2067Y-3.9252
X5.2067Y-3.9646
X5.2067Y-4.0039
X5.2106Y-4.4459
X5.2461Y-3.8858
X5.2461Y-3.9252
X5.2461Y-3.9646
X5.2461Y-4.0039
X5.2746Y-3.6506
X5.2746Y-3.69
X5.2746Y-3.7293
X5.2746Y-3.7687
X5.2854Y-3.8858
X5.2854Y-3.9252
X5.2854Y-3.9646
X5.2854Y-4.0039
X5.314Y-3.6506
X5.314Y-3.69
X5.314Y-3.7293
X5.314Y-3.7687
X5.3248Y-3.8858
X5.3248Y-3.9252
X5.3248Y-3.9646
X5.3248Y-4.0039
X5.3533Y-3.6506
X5.3533Y-3.69
X5.3533Y-3.7293
X5.3533Y-3.7687
X5.3624Y-3.2313
X5.3624Y-3.31
X5.3624Y-3.3888
X5.373Y-4.2402
X5.3927Y-3.6506
X5.3927Y-3.69
X5.3927Y-3.7293
X5.3927Y-3.7687
X5.4018Y-3.2707
X5.4018Y-3.3494
X5.4094Y-3.4274
X5.4321Y-3.69
X5.4321Y-3.7687
X5.4411Y-3.2313
X5.4411Y-3.31
X5.4411Y-3.3888
X5.4715Y-3.6506
X5.4715Y-3.7293
X5.4805Y-3.2707
X5.4805Y-3.3494
X5.4882Y-3.4274
X5.502Y-4.003
X5.5108Y-3.69
X5.5108Y-3.7687
X5.5344Y-2.9488
X5.5344Y-3.0276
X5.5413Y-4.6565
X5.5502Y-3.6506
X5.5502Y-3.7293
X5.5738Y-2.9882
X5.5896Y-3.69
X5.5896Y-3.7687
X5.6132Y-2.9488
X5.6132Y-3.0276
X5.6289Y-3.6506
X5.6289Y-3.7293
X5.6526Y-2.9882
X5.6683Y-3.69
X5.6683Y-3.7687
X5.6919Y-2.9488
X5.6919Y-3.0276
X5.7077Y-3.6506
X5.7077Y-3.7293
X5.7195Y-4.7963
X5.7313Y-2.9882
X5.747Y-3.69
X5.747Y-3.7687
X5.7707Y-2.9488
X5.7707Y-3.0276
X5.7864Y-3.6506
X5.7864Y-3.7293
X5.81Y-2.9882
X5.8219Y-3.123
X5.8219Y-3.2018
X5.8219Y-3.2805
X5.8219Y-3.3593
X5.8219Y-3.438
X5.8219Y-3.5167
X5.8219Y-3.5955
X5.8258Y-3.69
X5.8258Y-3.7687
X5.8494Y-2.9488
X5.8494Y-3.0276
X5.8573Y-4.251
X5.8612Y-3.0837
X5.8612Y-3.1624
X5.8612Y-3.2411
X5.8612Y-3.3199
X5.8612Y-3.3986
X5.8612Y-3.4774
X5.8612Y-3.5561
X5.8652Y-3.6506
X5.8652Y-3.7293
X5.88Y-4.0623
X5.88Y-4.1411
X5.8888Y-2.9882
X5.8967Y-4.2116
X5.8967Y-4.2904
X5.9006Y-3.123
X5.9006Y-3.2805
X5.9006Y-3.3593
X5.9006Y-3.438
X5.9006Y-3.5167
X5.9006Y-3.5955
X5.902Y-3.2033
X5.9045Y-3.69
X5.9045Y-3.7687
X5.9193Y-4.1017
X5.936Y-4.251
X5.9417Y-2.9498
X5.9417Y-3.0285
X5.9587Y-4.0623
X5.9587Y-4.1411
X5.9754Y-4.2116
X5.9754Y-4.2904
X5.9811Y-2.9892
X5.9951Y-4.3681
X5.9981Y-4.1017
X6.0178Y-4.1794
X6.0178Y-4.2582
X6.0197Y-4.0364
X6.0205Y-2.9498
X6.0205Y-3.0285
X6.0344Y-4.3287
X6.0344Y-4.4075
X6.0424Y-3.8478
X6.0424Y-3.9265
X6.0571Y-4.2188
X6.0591Y-3.997
X6.0591Y-4.0758
X6.0598Y-2.9892
X6.0738Y-4.3681
X6.0817Y-3.8871
X6.0965Y-4.1794
X6.0965Y-4.2582
X6.0984Y-4.0364
X6.0992Y-2.9498
X6.0992Y-3.0285
X6.1132Y-4.3287
X6.1132Y-4.4075
X6.1201Y-3.6575
X6.1211Y-3.8478
X6.1211Y-3.9265
X6.1359Y-4.2188
X6.1378Y-3.997
X6.1378Y-4.0758
X6.1386Y-2.9892
X6.1428Y-3.4688
X6.1428Y-3.5476
X6.1594Y-3.6181
X6.1594Y-3.6969
X6.1605Y-3.8871
X6.1644Y-4.2982
X6.178Y-2.9498
X6.178Y-3.0285
X6.1821Y-3.5082
X6.1871Y-4.1096
X6.1871Y-4.1883
X6.1988Y-3.6575
X6.2037Y-4.2589
X6.2037Y-4.3376
X6.2173Y-2.9892
X6.2215Y-3.4688
X6.2215Y-3.5476
X6.2264Y-4.1489
X6.2382Y-3.6181
X6.2382Y-3.6969
X6.2431Y-4.2982
X6.2567Y-2.9498
X6.2567Y-3.0285
X6.2609Y-3.5082
X6.2961Y-2.9892
X6.3449Y-3.8148
X6.3449Y-3.8935
X6.3449Y-3.9722
X6.3449Y-4.051
X6.3449Y-4.1297
X6.3459Y-4.2104
X6.3459Y-4.2892
X6.3459Y-4.3679
X6.3459Y-4.4467
X6.3459Y-4.5254
X6.3459Y-4.6041
X6.3472Y-2.9474
X6.3472Y-3.0262
X6.3472Y-3.1049
X6.3472Y-3.1837
X6.3472Y-3.2624
X6.3482Y-3.3431
X6.3482Y-3.4219
X6.3482Y-3.5006
X6.3482Y-3.5793
X6.3482Y-3.6581
X6.3482Y-3.7368
X6.3843Y-3.8541
X6.3843Y-3.9329
X6.3843Y-4.0116
X6.3843Y-4.0904
X6.3843Y-4.1691
X6.3852Y-4.2498
X6.3852Y-4.3285
X6.3852Y-4.4073
X6.3852Y-4.486
X6.3852Y-4.5648
X6.3852Y-4.6435
X6.3866Y-2.9868
X6.3866Y-3.0656
X6.3866Y-3.1443
X6.3866Y-3.223
X6.3866Y-3.3018
X6.3876Y-3.3825
X6.3876Y-3.4612
X6.3876Y-3.54
X6.3876Y-3.6187
X6.3876Y-3.6974
X6.3876Y-3.7762
X6.4236Y-3.8148
X6.4236Y-3.8935
X6.4236Y-3.9722
X6.4236Y-4.051
X6.4236Y-4.1297
X6.4246Y-4.2104
X6.4246Y-4.2892
X6.4246Y-4.3679
X6.4246Y-4.4467
X6.4246Y-4.5254
X6.4246Y-4.6041
X6.426Y-2.9474
X6.426Y-3.0262
X6.426Y-3.1049
X6.426Y-3.1837
X6.426Y-3.2624
X6.427Y-3.3431
X6.427Y-3.4219
X6.427Y-3.5006
X6.427Y-3.5793
X6.427Y-3.6581
X6.427Y-3.7368
X6.4433Y-4.6455
X6.4457Y-3.7781
T2
X3.5728Y-4.4596
X3.5728Y-4.5596
X3.5728Y-4.6596
X3.5728Y-4.7596
X5.935Y-4.4596
X5.935Y-4.5596
X5.935Y-4.6596
X5.935Y-4.7596
T3
X2.9114Y-2.814
X2.9114Y-4.9242
X6.5965Y-2.814
X6.5965Y-4.9242
M30
