%TF.GenerationSoftware,KiCad,Pcbnew,8.0.2*%
%TF.CreationDate,2024-06-09T17:22:21+08:00*%
%TF.ProjectId,MW_Buck_Boost_PB,4d575f42-7563-46b5-9f42-6f6f73745f50,rev?*%
%TF.SameCoordinates,Original*%
%TF.FileFunction,Drillmap*%
%TF.FilePolarity,Positive*%
%FSLAX45Y45*%
G04 Gerber Fmt 4.5, Leading zero omitted, Abs format (unit mm)*
G04 Created by KiCad (PCBNEW 8.0.2) date 2024-06-09 17:22:21*
%MOMM*%
%LPD*%
G01*
G04 APERTURE LIST*
%ADD10C,0.050000*%
%ADD11C,0.200000*%
G04 APERTURE END LIST*
D10*
X17075000Y-7027500D02*
X17075000Y-12627500D01*
X16875000Y-6827500D02*
G75*
G02*
X17075000Y-7027500I0J-200000D01*
G01*
X17075000Y-12627500D02*
G75*
G02*
X16875000Y-12827500I-200000J0D01*
G01*
X7275000Y-6827500D02*
X16875000Y-6827500D01*
X7075000Y-7027500D02*
G75*
G02*
X7275000Y-6827500I200000J0D01*
G01*
X7075000Y-12627500D02*
X7075000Y-7027500D01*
X7275000Y-12827500D02*
X16875000Y-12827500D01*
X7275000Y-12827500D02*
G75*
G02*
X7075000Y-12627500I0J200000D01*
G01*
D11*
X7333277Y-13141484D02*
X7333277Y-12941484D01*
X7333277Y-12941484D02*
X7380896Y-12941484D01*
X7380896Y-12941484D02*
X7409467Y-12951008D01*
X7409467Y-12951008D02*
X7428515Y-12970055D01*
X7428515Y-12970055D02*
X7438039Y-12989103D01*
X7438039Y-12989103D02*
X7447562Y-13027198D01*
X7447562Y-13027198D02*
X7447562Y-13055769D01*
X7447562Y-13055769D02*
X7438039Y-13093865D01*
X7438039Y-13093865D02*
X7428515Y-13112912D01*
X7428515Y-13112912D02*
X7409467Y-13131960D01*
X7409467Y-13131960D02*
X7380896Y-13141484D01*
X7380896Y-13141484D02*
X7333277Y-13141484D01*
X7533277Y-13141484D02*
X7533277Y-13008150D01*
X7533277Y-13046246D02*
X7542801Y-13027198D01*
X7542801Y-13027198D02*
X7552324Y-13017674D01*
X7552324Y-13017674D02*
X7571372Y-13008150D01*
X7571372Y-13008150D02*
X7590420Y-13008150D01*
X7657086Y-13141484D02*
X7657086Y-13008150D01*
X7657086Y-12941484D02*
X7647562Y-12951008D01*
X7647562Y-12951008D02*
X7657086Y-12960531D01*
X7657086Y-12960531D02*
X7666610Y-12951008D01*
X7666610Y-12951008D02*
X7657086Y-12941484D01*
X7657086Y-12941484D02*
X7657086Y-12960531D01*
X7780896Y-13141484D02*
X7761848Y-13131960D01*
X7761848Y-13131960D02*
X7752324Y-13112912D01*
X7752324Y-13112912D02*
X7752324Y-12941484D01*
X7885658Y-13141484D02*
X7866610Y-13131960D01*
X7866610Y-13131960D02*
X7857086Y-13112912D01*
X7857086Y-13112912D02*
X7857086Y-12941484D01*
X8114229Y-13141484D02*
X8114229Y-12941484D01*
X8114229Y-12941484D02*
X8180896Y-13084341D01*
X8180896Y-13084341D02*
X8247562Y-12941484D01*
X8247562Y-12941484D02*
X8247562Y-13141484D01*
X8428515Y-13141484D02*
X8428515Y-13036722D01*
X8428515Y-13036722D02*
X8418991Y-13017674D01*
X8418991Y-13017674D02*
X8399944Y-13008150D01*
X8399944Y-13008150D02*
X8361848Y-13008150D01*
X8361848Y-13008150D02*
X8342801Y-13017674D01*
X8428515Y-13131960D02*
X8409467Y-13141484D01*
X8409467Y-13141484D02*
X8361848Y-13141484D01*
X8361848Y-13141484D02*
X8342801Y-13131960D01*
X8342801Y-13131960D02*
X8333277Y-13112912D01*
X8333277Y-13112912D02*
X8333277Y-13093865D01*
X8333277Y-13093865D02*
X8342801Y-13074817D01*
X8342801Y-13074817D02*
X8361848Y-13065293D01*
X8361848Y-13065293D02*
X8409467Y-13065293D01*
X8409467Y-13065293D02*
X8428515Y-13055769D01*
X8523753Y-13008150D02*
X8523753Y-13208150D01*
X8523753Y-13017674D02*
X8542801Y-13008150D01*
X8542801Y-13008150D02*
X8580896Y-13008150D01*
X8580896Y-13008150D02*
X8599944Y-13017674D01*
X8599944Y-13017674D02*
X8609467Y-13027198D01*
X8609467Y-13027198D02*
X8618991Y-13046246D01*
X8618991Y-13046246D02*
X8618991Y-13103388D01*
X8618991Y-13103388D02*
X8609467Y-13122436D01*
X8609467Y-13122436D02*
X8599944Y-13131960D01*
X8599944Y-13131960D02*
X8580896Y-13141484D01*
X8580896Y-13141484D02*
X8542801Y-13141484D01*
X8542801Y-13141484D02*
X8523753Y-13131960D01*
X8704705Y-13122436D02*
X8714229Y-13131960D01*
X8714229Y-13131960D02*
X8704705Y-13141484D01*
X8704705Y-13141484D02*
X8695182Y-13131960D01*
X8695182Y-13131960D02*
X8704705Y-13122436D01*
X8704705Y-13122436D02*
X8704705Y-13141484D01*
X8704705Y-13017674D02*
X8714229Y-13027198D01*
X8714229Y-13027198D02*
X8704705Y-13036722D01*
X8704705Y-13036722D02*
X8695182Y-13027198D01*
X8695182Y-13027198D02*
X8704705Y-13017674D01*
X8704705Y-13017674D02*
X8704705Y-13036722D01*
M02*
