%TF.GenerationSoftware,KiCad,Pcbnew,8.0.2*%
%TF.CreationDate,2024-06-09T17:22:24+08:00*%
%TF.ProjectId,MW_Buck_Boost_PB,4d575f42-7563-46b5-9f42-6f6f73745f50,rev?*%
%TF.SameCoordinates,Original*%
%TF.FileFunction,Paste,Top*%
%TF.FilePolarity,Positive*%
%FSLAX46Y46*%
G04 Gerber Fmt 4.6, Leading zero omitted, Abs format (unit mm)*
G04 Created by KiCad (PCBNEW 8.0.2) date 2024-06-09 17:22:24*
%MOMM*%
%LPD*%
G01*
G04 APERTURE LIST*
G04 Aperture macros list*
%AMRoundRect*
0 Rectangle with rounded corners*
0 $1 Rounding radius*
0 $2 $3 $4 $5 $6 $7 $8 $9 X,Y pos of 4 corners*
0 Add a 4 corners polygon primitive as box body*
4,1,4,$2,$3,$4,$5,$6,$7,$8,$9,$2,$3,0*
0 Add four circle primitives for the rounded corners*
1,1,$1+$1,$2,$3*
1,1,$1+$1,$4,$5*
1,1,$1+$1,$6,$7*
1,1,$1+$1,$8,$9*
0 Add four rect primitives between the rounded corners*
20,1,$1+$1,$2,$3,$4,$5,0*
20,1,$1+$1,$4,$5,$6,$7,0*
20,1,$1+$1,$6,$7,$8,$9,0*
20,1,$1+$1,$8,$9,$2,$3,0*%
G04 Aperture macros list end*
%ADD10RoundRect,0.035000X-0.700000X-0.105000X0.700000X-0.105000X0.700000X0.105000X-0.700000X0.105000X0*%
%ADD11RoundRect,0.035000X0.700000X0.105000X-0.700000X0.105000X-0.700000X-0.105000X0.700000X-0.105000X0*%
%ADD12RoundRect,0.225000X-0.225000X-0.375000X0.225000X-0.375000X0.225000X0.375000X-0.225000X0.375000X0*%
%ADD13RoundRect,0.225000X0.225000X0.250000X-0.225000X0.250000X-0.225000X-0.250000X0.225000X-0.250000X0*%
%ADD14RoundRect,0.218750X0.218750X0.256250X-0.218750X0.256250X-0.218750X-0.256250X0.218750X-0.256250X0*%
%ADD15RoundRect,0.225000X0.250000X-0.225000X0.250000X0.225000X-0.250000X0.225000X-0.250000X-0.225000X0*%
%ADD16RoundRect,0.200000X0.200000X0.275000X-0.200000X0.275000X-0.200000X-0.275000X0.200000X-0.275000X0*%
%ADD17RoundRect,0.250000X1.500000X0.550000X-1.500000X0.550000X-1.500000X-0.550000X1.500000X-0.550000X0*%
%ADD18RoundRect,0.250000X-1.500000X-0.550000X1.500000X-0.550000X1.500000X0.550000X-1.500000X0.550000X0*%
%ADD19RoundRect,0.225000X0.225000X0.375000X-0.225000X0.375000X-0.225000X-0.375000X0.225000X-0.375000X0*%
%ADD20RoundRect,0.250000X0.325000X0.650000X-0.325000X0.650000X-0.325000X-0.650000X0.325000X-0.650000X0*%
%ADD21RoundRect,0.375000X0.375000X0.375000X-0.375000X0.375000X-0.375000X-0.375000X0.375000X-0.375000X0*%
%ADD22RoundRect,0.125000X0.250000X0.125000X-0.250000X0.125000X-0.250000X-0.125000X0.250000X-0.125000X0*%
%ADD23RoundRect,0.100000X0.275000X0.100000X-0.275000X0.100000X-0.275000X-0.100000X0.275000X-0.100000X0*%
%ADD24RoundRect,0.225000X-0.225000X-0.250000X0.225000X-0.250000X0.225000X0.250000X-0.225000X0.250000X0*%
%ADD25RoundRect,0.200000X-0.200000X-0.275000X0.200000X-0.275000X0.200000X0.275000X-0.200000X0.275000X0*%
%ADD26RoundRect,0.375000X-0.375000X-0.375000X0.375000X-0.375000X0.375000X0.375000X-0.375000X0.375000X0*%
%ADD27RoundRect,0.125000X-0.250000X-0.125000X0.250000X-0.125000X0.250000X0.125000X-0.250000X0.125000X0*%
%ADD28RoundRect,0.100000X-0.275000X-0.100000X0.275000X-0.100000X0.275000X0.100000X-0.275000X0.100000X0*%
%ADD29RoundRect,0.250000X0.550000X-1.500000X0.550000X1.500000X-0.550000X1.500000X-0.550000X-1.500000X0*%
%ADD30RoundRect,0.225000X0.375000X-0.225000X0.375000X0.225000X-0.375000X0.225000X-0.375000X-0.225000X0*%
%ADD31RoundRect,0.250000X-0.325000X-0.650000X0.325000X-0.650000X0.325000X0.650000X-0.325000X0.650000X0*%
%ADD32RoundRect,0.250000X-0.650000X0.325000X-0.650000X-0.325000X0.650000X-0.325000X0.650000X0.325000X0*%
%ADD33RoundRect,0.200000X-0.275000X0.200000X-0.275000X-0.200000X0.275000X-0.200000X0.275000X0.200000X0*%
%ADD34RoundRect,0.218750X-0.218750X-0.256250X0.218750X-0.256250X0.218750X0.256250X-0.218750X0.256250X0*%
%ADD35RoundRect,0.250000X0.650000X-0.325000X0.650000X0.325000X-0.650000X0.325000X-0.650000X-0.325000X0*%
%ADD36R,1.000000X3.000000*%
%ADD37RoundRect,1.397000X-1.397000X-1.397000X1.397000X-1.397000X1.397000X1.397000X-1.397000X1.397000X0*%
%ADD38RoundRect,1.270000X-1.270000X-1.587500X1.270000X-1.587500X1.270000X1.587500X-1.270000X1.587500X0*%
%ADD39RoundRect,0.200000X0.275000X-0.200000X0.275000X0.200000X-0.275000X0.200000X-0.275000X-0.200000X0*%
%ADD40RoundRect,0.225000X-0.375000X0.225000X-0.375000X-0.225000X0.375000X-0.225000X0.375000X0.225000X0*%
G04 APERTURE END LIST*
D10*
%TO.C,U2*%
X123847100Y-110005001D03*
X123847100Y-110505001D03*
X123847100Y-111005001D03*
X123847100Y-111505001D03*
X123847100Y-112005001D03*
X128147100Y-112005001D03*
X128147100Y-111505001D03*
X128147100Y-111005001D03*
X128147100Y-110505001D03*
X128147100Y-110005001D03*
%TD*%
D11*
%TO.C,U1*%
X108270000Y-110905000D03*
X108270000Y-110405000D03*
X108270000Y-109905000D03*
X108270000Y-109405000D03*
X108270000Y-108905000D03*
X103970000Y-108905000D03*
X103970000Y-109405000D03*
X103970000Y-109905000D03*
X103970000Y-110405000D03*
X103970000Y-110905000D03*
%TD*%
D12*
%TO.C,D10*%
X145275000Y-121825000D03*
X148575000Y-121825000D03*
%TD*%
D13*
%TO.C,C23*%
X124872100Y-113600001D03*
X123322100Y-113600001D03*
%TD*%
D14*
%TO.C,D4*%
X88537500Y-119293750D03*
X86962500Y-119293750D03*
%TD*%
D15*
%TO.C,C26*%
X148525000Y-119875000D03*
X148525000Y-118325000D03*
%TD*%
D16*
%TO.C,R2*%
X112675000Y-106275000D03*
X111025000Y-106275000D03*
%TD*%
%TO.C,R4*%
X105350000Y-107075000D03*
X103700000Y-107075000D03*
%TD*%
D17*
%TO.C,C16*%
X78450000Y-102275000D03*
X73050000Y-102275000D03*
%TD*%
%TO.C,C18*%
X78450000Y-86275000D03*
X73050000Y-86275000D03*
%TD*%
D18*
%TO.C,C39*%
X163050000Y-78275000D03*
X168450000Y-78275000D03*
%TD*%
D19*
%TO.C,D6*%
X121130000Y-110455000D03*
X117830000Y-110455000D03*
%TD*%
D20*
%TO.C,C27*%
X147650000Y-86550000D03*
X144700000Y-86550000D03*
%TD*%
D18*
%TO.C,C42*%
X163050000Y-94275000D03*
X168450000Y-94275000D03*
%TD*%
D21*
%TO.C,Q1*%
X106950000Y-95125000D03*
X106950000Y-93425000D03*
X105250000Y-95125000D03*
X105250000Y-93425000D03*
D22*
X103845000Y-96180000D03*
X103845000Y-94910000D03*
X103845000Y-93640000D03*
X103845000Y-92370000D03*
D23*
X109650000Y-96180000D03*
X109650000Y-94910000D03*
X109650000Y-93640000D03*
X109650000Y-92370000D03*
%TD*%
D24*
%TO.C,C5*%
X123322100Y-108275001D03*
X124872100Y-108275001D03*
%TD*%
D17*
%TO.C,C20*%
X78450000Y-78275000D03*
X73050000Y-78275000D03*
%TD*%
D25*
%TO.C,R12*%
X100388900Y-109425000D03*
X102038900Y-109425000D03*
%TD*%
D19*
%TO.C,D3*%
X114375000Y-104300000D03*
X111075000Y-104300000D03*
%TD*%
D20*
%TO.C,C28*%
X147650000Y-83200000D03*
X144700000Y-83200000D03*
%TD*%
D17*
%TO.C,C17*%
X78450000Y-94275000D03*
X73050000Y-94275000D03*
%TD*%
D26*
%TO.C,Q2*%
X106550000Y-99425000D03*
X106550000Y-101125000D03*
X108250000Y-99425000D03*
X108250000Y-101125000D03*
D27*
X109655000Y-98370000D03*
X109655000Y-99640000D03*
X109655000Y-100910000D03*
X109655000Y-102180000D03*
D28*
X103850000Y-98370000D03*
X103850000Y-99640000D03*
X103850000Y-100910000D03*
X103850000Y-102180000D03*
%TD*%
D16*
%TO.C,R14*%
X131600000Y-111425000D03*
X129950000Y-111425000D03*
%TD*%
D29*
%TO.C,C38*%
X140750000Y-75975000D03*
X140750000Y-70575000D03*
%TD*%
D18*
%TO.C,C36*%
X163050000Y-118275000D03*
X168450000Y-118275000D03*
%TD*%
D30*
%TO.C,D7*%
X139750000Y-101675000D03*
X139750000Y-98375000D03*
%TD*%
D25*
%TO.C,R13*%
X129950000Y-109850000D03*
X131600000Y-109850000D03*
%TD*%
D31*
%TO.C,C31*%
X150000000Y-79850000D03*
X152950000Y-79850000D03*
%TD*%
D17*
%TO.C,C15*%
X78450000Y-110275000D03*
X73050000Y-110275000D03*
%TD*%
D32*
%TO.C,C12*%
X92250000Y-90300000D03*
X92250000Y-93250000D03*
%TD*%
D18*
%TO.C,C43*%
X163050000Y-102275000D03*
X168450000Y-102275000D03*
%TD*%
D12*
%TO.C,D1*%
X110890000Y-110435000D03*
X114190000Y-110435000D03*
%TD*%
D18*
%TO.C,C44*%
X163050000Y-110275000D03*
X168450000Y-110275000D03*
%TD*%
D33*
%TO.C,R8*%
X119900000Y-98900000D03*
X119900000Y-100550000D03*
%TD*%
D34*
%TO.C,D9*%
X156812500Y-119250000D03*
X158387500Y-119250000D03*
%TD*%
D24*
%TO.C,C6*%
X107100000Y-107075000D03*
X108650000Y-107075000D03*
%TD*%
D32*
%TO.C,C9*%
X84250000Y-79300000D03*
X84250000Y-82250000D03*
%TD*%
%TO.C,C4*%
X84250000Y-90300000D03*
X84250000Y-93250000D03*
%TD*%
D16*
%TO.C,R5*%
X88600000Y-120893750D03*
X86950000Y-120893750D03*
%TD*%
D29*
%TO.C,C46*%
X156750000Y-75975000D03*
X156750000Y-70575000D03*
%TD*%
D35*
%TO.C,C11*%
X92250000Y-87750000D03*
X92250000Y-84800000D03*
%TD*%
D31*
%TO.C,C34*%
X150000000Y-89900000D03*
X152950000Y-89900000D03*
%TD*%
D36*
%TO.C,J2*%
X139290000Y-114795000D03*
X139290000Y-109755000D03*
X136750000Y-114795000D03*
X136750000Y-109755000D03*
X134210000Y-114795000D03*
X134210000Y-109755000D03*
%TD*%
%TO.C,J1*%
X144480000Y-98755000D03*
X144480000Y-103795000D03*
X147020000Y-98755000D03*
X147020000Y-103795000D03*
%TD*%
D20*
%TO.C,C30*%
X147650000Y-89900000D03*
X144700000Y-89900000D03*
%TD*%
D29*
%TO.C,C24*%
X84250000Y-75975000D03*
X84250000Y-70575000D03*
%TD*%
D37*
%TO.C,L1*%
X120750000Y-72655000D03*
D38*
X115416000Y-94245000D03*
X126084000Y-94245000D03*
%TD*%
D35*
%TO.C,C3*%
X84250000Y-87750000D03*
X84250000Y-84800000D03*
%TD*%
D18*
%TO.C,C40*%
X163050000Y-86275000D03*
X168450000Y-86275000D03*
%TD*%
D31*
%TO.C,C33*%
X150000000Y-86550000D03*
X152950000Y-86550000D03*
%TD*%
D21*
%TO.C,Q4*%
X134950000Y-101125000D03*
X134950000Y-99425000D03*
X133250000Y-101125000D03*
X133250000Y-99425000D03*
D22*
X131845000Y-102180000D03*
X131845000Y-100910000D03*
X131845000Y-99640000D03*
X131845000Y-98370000D03*
D23*
X137650000Y-102180000D03*
X137650000Y-100910000D03*
X137650000Y-99640000D03*
X137650000Y-98370000D03*
%TD*%
D29*
%TO.C,C25*%
X100250000Y-75975000D03*
X100250000Y-70575000D03*
%TD*%
D17*
%TO.C,C13*%
X78450000Y-118275000D03*
X73050000Y-118275000D03*
%TD*%
D25*
%TO.C,R11*%
X126672100Y-113600001D03*
X128322100Y-113600001D03*
%TD*%
D39*
%TO.C,R7*%
X141700000Y-99975000D03*
X141700000Y-98325000D03*
%TD*%
D25*
%TO.C,R10*%
X156770000Y-120890000D03*
X158420000Y-120890000D03*
%TD*%
D32*
%TO.C,C7*%
X92250000Y-79300000D03*
X92250000Y-82250000D03*
%TD*%
%TO.C,C8*%
X88250000Y-79300000D03*
X88250000Y-82250000D03*
%TD*%
%TO.C,C1*%
X88250000Y-90300000D03*
X88250000Y-93250000D03*
%TD*%
D33*
%TO.C,R3*%
X96825000Y-118275000D03*
X96825000Y-119925000D03*
%TD*%
D15*
%TO.C,C14*%
X98375000Y-119875000D03*
X98375000Y-118325000D03*
%TD*%
%TO.C,C2*%
X156825000Y-115800000D03*
X156825000Y-114250000D03*
%TD*%
D35*
%TO.C,C10*%
X88250000Y-87750000D03*
X88250000Y-84800000D03*
%TD*%
D16*
%TO.C,R6*%
X102038900Y-107825000D03*
X100388900Y-107825000D03*
%TD*%
D31*
%TO.C,C32*%
X150000000Y-83200000D03*
X152950000Y-83200000D03*
%TD*%
D20*
%TO.C,C29*%
X147650000Y-79850000D03*
X144700000Y-79850000D03*
%TD*%
D12*
%TO.C,D2*%
X98825000Y-102175000D03*
X102125000Y-102175000D03*
%TD*%
D29*
%TO.C,C22*%
X92250000Y-75975000D03*
X92250000Y-70575000D03*
%TD*%
%TO.C,C35*%
X148750000Y-75975000D03*
X148750000Y-70575000D03*
%TD*%
D19*
%TO.C,D5*%
X100100000Y-121825000D03*
X96800000Y-121825000D03*
%TD*%
D26*
%TO.C,Q3*%
X134550000Y-93425000D03*
X134550000Y-95125000D03*
X136250000Y-93425000D03*
X136250000Y-95125000D03*
D27*
X137655000Y-92370000D03*
X137655000Y-93640000D03*
X137655000Y-94910000D03*
X137655000Y-96180000D03*
D28*
X131850000Y-92370000D03*
X131850000Y-93640000D03*
X131850000Y-94910000D03*
X131850000Y-96180000D03*
%TD*%
D40*
%TO.C,D8*%
X121850000Y-98950000D03*
X121850000Y-102250000D03*
%TD*%
D33*
%TO.C,R9*%
X146975000Y-118275000D03*
X146975000Y-119925000D03*
%TD*%
D25*
%TO.C,R1*%
X100525000Y-104175000D03*
X102175000Y-104175000D03*
%TD*%
D15*
%TO.C,C21*%
X88375000Y-115825000D03*
X88375000Y-114275000D03*
%TD*%
D13*
%TO.C,C19*%
X108663900Y-112650000D03*
X107113900Y-112650000D03*
%TD*%
M02*
