%TF.GenerationSoftware,KiCad,Pcbnew,8.0.2*%
%TF.CreationDate,2024-06-09T17:22:24+08:00*%
%TF.ProjectId,MW_Buck_Boost_PB,4d575f42-7563-46b5-9f42-6f6f73745f50,rev?*%
%TF.SameCoordinates,Original*%
%TF.FileFunction,Copper,L2,Bot*%
%TF.FilePolarity,Positive*%
%FSLAX46Y46*%
G04 Gerber Fmt 4.6, Leading zero omitted, Abs format (unit mm)*
G04 Created by KiCad (PCBNEW 8.0.2) date 2024-06-09 17:22:24*
%MOMM*%
%LPD*%
G01*
G04 APERTURE LIST*
%TA.AperFunction,ComponentPad*%
%ADD10C,5.600000*%
%TD*%
%TA.AperFunction,ComponentPad*%
%ADD11R,2.250000X1.750000*%
%TD*%
%TA.AperFunction,ComponentPad*%
%ADD12O,2.250000X1.750000*%
%TD*%
%TA.AperFunction,ViaPad*%
%ADD13C,0.600000*%
%TD*%
%TA.AperFunction,Conductor*%
%ADD14C,0.200000*%
%TD*%
%TA.AperFunction,Conductor*%
%ADD15C,0.500000*%
%TD*%
G04 APERTURE END LIST*
D10*
%TO.P,H4,1,1*%
%TO.N,/V_out*%
X167550000Y-71475000D03*
%TD*%
%TO.P,H3,1,1*%
%TO.N,GND*%
X167550000Y-125075000D03*
%TD*%
%TO.P,H2,1,1*%
%TO.N,GND*%
X73950000Y-125075000D03*
%TD*%
%TO.P,H1,1,1*%
%TO.N,/V_in*%
X73950000Y-71475000D03*
%TD*%
D11*
%TO.P,PS2,1,-Vin*%
%TO.N,GND*%
X150750000Y-113275000D03*
D12*
%TO.P,PS2,2,+Vin*%
%TO.N,+12V*%
X150750000Y-115815000D03*
%TO.P,PS2,3,-Vout*%
%TO.N,/HS2*%
X150750000Y-118355000D03*
%TO.P,PS2,4,+Vout*%
%TO.N,Net-(D10-A)*%
X150750000Y-120895000D03*
%TD*%
D11*
%TO.P,PS1,1,-Vin*%
%TO.N,GND*%
X90750000Y-113275000D03*
D12*
%TO.P,PS1,2,+Vin*%
%TO.N,+12V*%
X90750000Y-115815000D03*
%TO.P,PS1,3,-Vout*%
%TO.N,/HS1*%
X90750000Y-118355000D03*
%TO.P,PS1,4,+Vout*%
%TO.N,Net-(D5-A)*%
X90750000Y-120895000D03*
%TD*%
D13*
%TO.N,GND*%
X122020000Y-108085000D03*
%TO.N,/SW2*%
X126700000Y-112215000D03*
%TO.N,12V_IOS2*%
X124870000Y-119145000D03*
%TO.N,GND*%
X119571742Y-81388201D03*
X137204661Y-85074690D03*
X89076403Y-101482891D03*
X90500000Y-106275000D03*
X120571742Y-80388201D03*
X89500000Y-105275000D03*
X86500000Y-106275000D03*
X139204661Y-83074690D03*
X90500000Y-104275000D03*
X157151403Y-106382891D03*
X136204661Y-84074690D03*
X117995339Y-85180310D03*
X86299690Y-81850339D03*
X86304661Y-98294690D03*
X158026403Y-88107891D03*
X126925000Y-108875000D03*
X122571742Y-80388201D03*
X138204661Y-86074690D03*
X88280000Y-83655000D03*
X155275000Y-111950000D03*
X96070000Y-81755000D03*
X106134661Y-84064690D03*
X150775000Y-107975000D03*
X85500000Y-105275000D03*
X119571742Y-83388201D03*
X83299690Y-84850339D03*
X153476403Y-97732891D03*
X91076403Y-99482891D03*
X152900000Y-102525000D03*
X96070000Y-83755000D03*
X116800000Y-82200000D03*
X93500000Y-105275000D03*
X96076403Y-100482891D03*
X124571742Y-82388201D03*
X86299690Y-83850339D03*
X122571742Y-82388201D03*
X154275000Y-110950000D03*
X158450000Y-91900000D03*
X93076403Y-101482891D03*
X153476403Y-99732891D03*
X137204661Y-83074690D03*
X155476403Y-99732891D03*
X117995339Y-87180310D03*
X139204661Y-85074690D03*
X122995339Y-86180310D03*
X126571742Y-80388201D03*
X156476403Y-98732891D03*
X157151403Y-104382891D03*
X152851403Y-108157891D03*
X156450000Y-93900000D03*
X94076403Y-98482891D03*
X85299690Y-82850339D03*
X123571742Y-83388201D03*
X104134661Y-84064690D03*
X87304661Y-101294690D03*
X118571742Y-82388201D03*
X95076403Y-101482891D03*
X88280000Y-81655000D03*
X87304661Y-99294690D03*
X155476403Y-97732891D03*
X88076403Y-98482891D03*
X153900000Y-101525000D03*
X149775000Y-108975000D03*
X92076403Y-98482891D03*
X159026403Y-89107891D03*
X120571742Y-82388201D03*
X84299690Y-83850339D03*
X156575000Y-109175000D03*
X137400000Y-87055000D03*
X90076403Y-100482891D03*
X84304661Y-100294690D03*
X92500000Y-104275000D03*
X124571742Y-80388201D03*
X123571742Y-81388201D03*
X117800000Y-83200000D03*
X91089690Y-84950339D03*
X107330000Y-85045000D03*
X153851403Y-107157891D03*
X92089690Y-83950339D03*
X150351403Y-104182891D03*
X85304661Y-99294690D03*
X119995339Y-85180310D03*
X121571742Y-81388201D03*
X125571742Y-81388201D03*
X121995339Y-85180310D03*
X151775000Y-108975000D03*
X100388900Y-109425000D03*
X158575000Y-109175000D03*
X92089690Y-81950339D03*
X136204661Y-86074690D03*
X118995339Y-88180310D03*
X121571742Y-83388201D03*
X122995339Y-88180310D03*
X93076403Y-99482891D03*
X153900000Y-103525000D03*
X152351403Y-104182891D03*
X104134661Y-80064690D03*
X84299690Y-81850339D03*
X157450000Y-92900000D03*
X95076403Y-99482891D03*
X93089690Y-82950339D03*
X87500000Y-103275000D03*
X138204661Y-84074690D03*
X156450000Y-91900000D03*
X114800000Y-80200000D03*
X155900000Y-101525000D03*
X123995339Y-85180310D03*
X126571742Y-82388201D03*
X114800000Y-84200000D03*
X88500000Y-104275000D03*
X92076403Y-100482891D03*
X104134661Y-82064690D03*
X83299690Y-82850339D03*
X90076403Y-98482891D03*
X155450000Y-92900000D03*
X157575000Y-108175000D03*
X152275000Y-110950000D03*
X116800000Y-80200000D03*
X86304661Y-100294690D03*
X106134661Y-80064690D03*
X84304661Y-98294690D03*
X151775000Y-106975000D03*
X158151403Y-105382891D03*
X148775000Y-107975000D03*
X92500000Y-106275000D03*
X153275000Y-109950000D03*
X155851403Y-107157891D03*
X114800000Y-82200000D03*
X152851403Y-106157891D03*
X154900000Y-102525000D03*
X115995339Y-87180310D03*
X156026403Y-90107891D03*
X107134661Y-81064690D03*
X155900000Y-103525000D03*
X91500000Y-105275000D03*
X115995339Y-85180310D03*
X94089690Y-81950339D03*
X156026403Y-88107891D03*
X115800000Y-83200000D03*
X95089690Y-84950339D03*
X116995339Y-86180310D03*
X105134661Y-81064690D03*
X105134661Y-83064690D03*
X155275000Y-109950000D03*
X106134661Y-82064690D03*
X95089690Y-82950339D03*
X138204661Y-82074690D03*
X151351403Y-103182891D03*
X94076403Y-100482891D03*
X154851403Y-108157891D03*
X116800000Y-84200000D03*
X154851403Y-106157891D03*
X151351403Y-105182891D03*
X84304661Y-102294690D03*
X125571742Y-83388201D03*
X149351403Y-105182891D03*
X149775000Y-106975000D03*
X87299690Y-84850339D03*
X93089690Y-84950339D03*
X149351403Y-103182891D03*
X139400000Y-87055000D03*
X123995339Y-87180310D03*
X118995339Y-86180310D03*
X86500000Y-104275000D03*
X105330000Y-85045000D03*
X91500000Y-103275000D03*
X120995339Y-86180310D03*
X157575000Y-110175000D03*
X158450000Y-93900000D03*
X115800000Y-81200000D03*
X158026403Y-90107891D03*
X118571742Y-80388201D03*
X87299690Y-82850339D03*
X87500000Y-105275000D03*
X116995339Y-88180310D03*
X93500000Y-103275000D03*
X89500000Y-103275000D03*
X85299690Y-84850339D03*
X117800000Y-81200000D03*
X86304661Y-102294690D03*
X107134661Y-83064690D03*
X121995339Y-87180310D03*
X89076403Y-99482891D03*
X119995339Y-87180310D03*
X136204661Y-82074690D03*
X120995339Y-88180310D03*
X154476403Y-98732891D03*
X157026403Y-89107891D03*
X91076403Y-101482891D03*
X85304661Y-101294690D03*
X94089690Y-83950339D03*
X153275000Y-111950000D03*
X88076403Y-100482891D03*
X85500000Y-103275000D03*
X88500000Y-106275000D03*
X96076403Y-98482891D03*
X91089690Y-82950339D03*
%TO.N,+12V*%
X131600000Y-106475000D03*
X98875000Y-115815000D03*
X100400000Y-107825000D03*
X131600000Y-109850000D03*
%TO.N,/HS1*%
X109370000Y-101725000D03*
X117080000Y-92505000D03*
X115080000Y-94505000D03*
X116080000Y-93505000D03*
X109370000Y-98725000D03*
X114080000Y-95505000D03*
X106370000Y-100725000D03*
X108370000Y-100725000D03*
X113080000Y-96505000D03*
X116080000Y-97505000D03*
X116080000Y-95505000D03*
X115080000Y-96505000D03*
X108370000Y-98725000D03*
X107370000Y-101725000D03*
X117080000Y-94505000D03*
X109660000Y-94905000D03*
X114080000Y-101505000D03*
X109670000Y-96215000D03*
X108370000Y-99725000D03*
X113080000Y-98505000D03*
X114080000Y-93505000D03*
X113080000Y-100505000D03*
X115080000Y-92505000D03*
X108370000Y-101725000D03*
X114080000Y-99505000D03*
X107370000Y-98725000D03*
X98375000Y-118325000D03*
X114080000Y-97505000D03*
X106370000Y-101725000D03*
X115080000Y-100505000D03*
X107370000Y-100725000D03*
X115080000Y-98505000D03*
X109650000Y-93640000D03*
X113080000Y-92505000D03*
X116080000Y-99505000D03*
X106370000Y-98725000D03*
X107370000Y-99725000D03*
X116080000Y-101505000D03*
X109370000Y-99725000D03*
X109370000Y-100725000D03*
X106370000Y-99725000D03*
X107050000Y-109425000D03*
X117080000Y-100505000D03*
X117080000Y-98505000D03*
X117080000Y-96505000D03*
X113080000Y-94505000D03*
%TO.N,12V_IOS1*%
X100100000Y-121825000D03*
X110890000Y-110435000D03*
%TO.N,12V_IOS2*%
X124872100Y-113600001D03*
X145275000Y-121825000D03*
%TO.N,/HS2*%
X131000000Y-93400000D03*
X132250000Y-101700000D03*
X129000000Y-99400000D03*
X125000000Y-99400000D03*
X129000000Y-97400000D03*
X131850000Y-93640000D03*
X128000000Y-100400000D03*
X125000000Y-95400000D03*
X135250000Y-100700000D03*
X133250000Y-99700000D03*
X127000000Y-93400000D03*
X124000000Y-92400000D03*
X128000000Y-98400000D03*
X127000000Y-101400000D03*
X134250000Y-100700000D03*
X132250000Y-100700000D03*
X129000000Y-95400000D03*
X126000000Y-92400000D03*
X124000000Y-94400000D03*
X124000000Y-98400000D03*
X132250000Y-98700000D03*
X133250000Y-101700000D03*
X124000000Y-96400000D03*
X131850000Y-92370000D03*
X130000000Y-94400000D03*
X135250000Y-101700000D03*
X128000000Y-92400000D03*
X125000000Y-101400000D03*
X134250000Y-99700000D03*
X131850000Y-94910000D03*
X129000000Y-93400000D03*
X128000000Y-96400000D03*
X140750000Y-118275000D03*
X132250000Y-99700000D03*
X135250000Y-99700000D03*
X125000000Y-93400000D03*
X124000000Y-100400000D03*
X134250000Y-98700000D03*
X129000000Y-101400000D03*
X130000000Y-92400000D03*
X135250000Y-98700000D03*
X127000000Y-99400000D03*
X127000000Y-95400000D03*
X128000000Y-94400000D03*
X133250000Y-98700000D03*
X125000000Y-97400000D03*
X126000000Y-98400000D03*
X126000000Y-96400000D03*
X127000000Y-97400000D03*
X134250000Y-101700000D03*
X131800000Y-115525000D03*
X133250000Y-100700000D03*
X126000000Y-100400000D03*
X126000000Y-94400000D03*
%TO.N,Net-(D3-A)*%
X109650000Y-92370000D03*
X111075000Y-104300000D03*
%TO.N,/LO2*%
X136475000Y-107700000D03*
X139750000Y-101675000D03*
%TO.N,Net-(D8-A)*%
X127675000Y-103625000D03*
X131850000Y-96180000D03*
%TO.N,/HO2*%
X126225000Y-105350000D03*
X126120000Y-110995000D03*
%TO.N,/V_in*%
X91800000Y-90500000D03*
X81000000Y-111175000D03*
X78000000Y-92175000D03*
X82800000Y-89500000D03*
X99800000Y-88500000D03*
X80175000Y-77575000D03*
X97800000Y-90500000D03*
X80000000Y-90175000D03*
X85800000Y-90500000D03*
X87800000Y-90500000D03*
X81000000Y-81175000D03*
X86800000Y-87500000D03*
X93200000Y-79100000D03*
X80000000Y-104175000D03*
X78000000Y-84175000D03*
X96225000Y-75550000D03*
X80000000Y-108175000D03*
X80000000Y-88175000D03*
X105800000Y-90500000D03*
X103800000Y-88500000D03*
X85175000Y-78750000D03*
X81000000Y-93175000D03*
X99800000Y-90500000D03*
X80000000Y-116175000D03*
X79000000Y-85175000D03*
X100225000Y-77550000D03*
X92800000Y-87500000D03*
X107550000Y-90350000D03*
X78000000Y-110175000D03*
X83200000Y-78675000D03*
X81175000Y-76575000D03*
X81000000Y-89175000D03*
X80000000Y-94175000D03*
X99225000Y-76550000D03*
X91800000Y-88500000D03*
X81000000Y-103175000D03*
X79000000Y-115175000D03*
X103800000Y-90500000D03*
X85175000Y-74575000D03*
X81000000Y-99175000D03*
X89800000Y-90500000D03*
X101800000Y-90500000D03*
X98225000Y-75550000D03*
X79000000Y-113175000D03*
X88800000Y-87500000D03*
X105800000Y-88500000D03*
X81000000Y-79175000D03*
X81000000Y-101175000D03*
X87175000Y-74575000D03*
X91225000Y-74550000D03*
X84175000Y-77575000D03*
X96800000Y-87500000D03*
X80000000Y-96175000D03*
X90175000Y-75575000D03*
X92800000Y-89500000D03*
X78000000Y-90175000D03*
X88175000Y-77575000D03*
X79000000Y-97175000D03*
X81175000Y-74575000D03*
X78000000Y-96175000D03*
X79000000Y-99175000D03*
X95225000Y-74550000D03*
X81000000Y-87175000D03*
X79000000Y-81175000D03*
X94225000Y-75550000D03*
X98225000Y-77550000D03*
X78050000Y-76450000D03*
X81000000Y-91175000D03*
X80000000Y-110175000D03*
X97800000Y-88500000D03*
X90175000Y-77575000D03*
X78000000Y-112175000D03*
X79125000Y-78050000D03*
X82800000Y-87500000D03*
X98800000Y-87500000D03*
X89200000Y-78925000D03*
X89175000Y-74575000D03*
X81000000Y-83175000D03*
X79000000Y-117175000D03*
X93800000Y-90500000D03*
X86175000Y-75575000D03*
X80000000Y-98175000D03*
X104050000Y-94700000D03*
X79175000Y-76575000D03*
X79000000Y-93175000D03*
X80000000Y-102175000D03*
X90800000Y-89500000D03*
X96800000Y-89500000D03*
X94225000Y-77550000D03*
X80000000Y-82175000D03*
X107050000Y-94700000D03*
X89800000Y-88500000D03*
X79000000Y-111175000D03*
X80000000Y-112175000D03*
X87800000Y-88500000D03*
X101800000Y-88500000D03*
X78000000Y-98175000D03*
X85175000Y-76575000D03*
X81000000Y-97175000D03*
X78000000Y-106175000D03*
X83800000Y-88500000D03*
X79000000Y-101175000D03*
X84175000Y-75575000D03*
X85800000Y-88500000D03*
X78000000Y-100175000D03*
X97225000Y-76550000D03*
X80000000Y-106175000D03*
X93225000Y-76550000D03*
X79000000Y-107175000D03*
X79000000Y-95175000D03*
X79000000Y-105175000D03*
X82175000Y-75575000D03*
X87200000Y-78800000D03*
X78000000Y-80175000D03*
X79000000Y-91175000D03*
X95800000Y-88500000D03*
X81000000Y-105175000D03*
X79175000Y-74575000D03*
X80000000Y-86175000D03*
X95225000Y-76550000D03*
X98800000Y-89500000D03*
X97250000Y-79300000D03*
X83800000Y-90500000D03*
X80000000Y-80175000D03*
X102800000Y-89500000D03*
X94800000Y-89500000D03*
X79000000Y-79175000D03*
X79000000Y-109175000D03*
X81000000Y-113175000D03*
X92225000Y-75550000D03*
X78000000Y-108175000D03*
X80175000Y-75575000D03*
X94800000Y-87500000D03*
X81000000Y-115175000D03*
X78000000Y-102175000D03*
X78000000Y-116175000D03*
X106050000Y-92700000D03*
X81000000Y-85175000D03*
X93800000Y-88500000D03*
X81000000Y-107175000D03*
X81000000Y-95175000D03*
X81000000Y-117175000D03*
X79000000Y-89175000D03*
X104800000Y-89500000D03*
X78000000Y-82175000D03*
X107050000Y-95700000D03*
X107050000Y-92700000D03*
X99300000Y-79350000D03*
X102800000Y-87500000D03*
X81000000Y-109175000D03*
X106050000Y-94700000D03*
X83175000Y-76575000D03*
X92225000Y-77550000D03*
X84800000Y-87500000D03*
X104050000Y-92700000D03*
X78000000Y-114175000D03*
X105050000Y-92700000D03*
X78000000Y-86175000D03*
X84800000Y-89500000D03*
X106050000Y-95700000D03*
X80000000Y-114175000D03*
X107550000Y-88350000D03*
X87175000Y-76575000D03*
X78000000Y-88175000D03*
X78000000Y-118175000D03*
X80000000Y-100175000D03*
X95250000Y-79275000D03*
X106550000Y-87350000D03*
X80000000Y-92175000D03*
X80000000Y-84175000D03*
X88800000Y-89500000D03*
X79000000Y-87175000D03*
X93225000Y-74550000D03*
X100800000Y-89500000D03*
X86800000Y-89500000D03*
X80000000Y-118175000D03*
X89175000Y-76575000D03*
X99225000Y-74550000D03*
X82175000Y-77575000D03*
X104050000Y-93700000D03*
X100225000Y-75550000D03*
X88175000Y-75575000D03*
X83175000Y-74575000D03*
X90800000Y-87500000D03*
X105050000Y-93700000D03*
X91225000Y-76550000D03*
X78000000Y-104175000D03*
X104800000Y-87500000D03*
X96225000Y-77550000D03*
X107050000Y-93700000D03*
X86175000Y-77575000D03*
X106550000Y-89350000D03*
X100800000Y-87500000D03*
X79000000Y-103175000D03*
X104050000Y-95700000D03*
X105050000Y-95700000D03*
X105050000Y-94700000D03*
X79000000Y-83175000D03*
X106050000Y-93700000D03*
X78000000Y-94175000D03*
X97225000Y-74550000D03*
X91250000Y-79050000D03*
X95800000Y-90500000D03*
%TO.N,/V_out*%
X143975000Y-95725000D03*
X161160000Y-98895000D03*
X163185000Y-108945000D03*
X159920000Y-75925000D03*
X162185000Y-117945000D03*
X162245000Y-93915000D03*
X146575000Y-74900000D03*
X162185000Y-111945000D03*
X145575000Y-75900000D03*
X146575000Y-76900000D03*
X161220000Y-82865000D03*
X150920000Y-74925000D03*
X163185000Y-116945000D03*
X134975000Y-95725000D03*
X163160000Y-98895000D03*
X153920000Y-75925000D03*
X162185000Y-109945000D03*
X136975000Y-92725000D03*
X147875000Y-81325000D03*
X138975000Y-92725000D03*
X162160000Y-99895000D03*
X145975000Y-95725000D03*
X158920000Y-76925000D03*
X135975000Y-92725000D03*
X141575000Y-75900000D03*
X140975000Y-94725000D03*
X163185000Y-106945000D03*
X161185000Y-110945000D03*
X163220000Y-74865000D03*
X146975000Y-92725000D03*
X147875000Y-91325000D03*
X162220000Y-75865000D03*
X151920000Y-75925000D03*
X156920000Y-76925000D03*
X163160000Y-100895000D03*
X162220000Y-77865000D03*
X135975000Y-94725000D03*
X157920000Y-75925000D03*
X149875000Y-89325000D03*
X162220000Y-81865000D03*
X139975000Y-93725000D03*
X149910000Y-81365000D03*
X148975000Y-94725000D03*
X161185000Y-114945000D03*
X162245000Y-91915000D03*
X158920000Y-74925000D03*
X136975000Y-94725000D03*
X162185000Y-107945000D03*
X147575000Y-75900000D03*
X161160000Y-104895000D03*
X149875000Y-91325000D03*
X144575000Y-76900000D03*
X163185000Y-114945000D03*
X163185000Y-110945000D03*
X161245000Y-92915000D03*
X142575000Y-76900000D03*
X161160000Y-102895000D03*
X149975000Y-95725000D03*
X141975000Y-93725000D03*
X162245000Y-87915000D03*
X154920000Y-74925000D03*
X163220000Y-76865000D03*
X161185000Y-116945000D03*
X146975000Y-94725000D03*
X145975000Y-93725000D03*
X161160000Y-100895000D03*
X133975000Y-94725000D03*
X133975000Y-95725000D03*
X161220000Y-78865000D03*
X161245000Y-84915000D03*
X152920000Y-76925000D03*
X149875000Y-83325000D03*
X148575000Y-76900000D03*
X147875000Y-87325000D03*
X163220000Y-80865000D03*
X149575000Y-75900000D03*
X163160000Y-104895000D03*
X161185000Y-112945000D03*
X150920000Y-76925000D03*
X161220000Y-80865000D03*
X162245000Y-95915000D03*
X137975000Y-95725000D03*
X140575000Y-76900000D03*
X149975000Y-93725000D03*
X162160000Y-103895000D03*
X163660000Y-117995000D03*
X147975000Y-95725000D03*
X148875000Y-90325000D03*
X140575000Y-74900000D03*
X142975000Y-92725000D03*
X162245000Y-85915000D03*
X142575000Y-74900000D03*
X163220000Y-78865000D03*
X138975000Y-94725000D03*
X161185000Y-108945000D03*
X149875000Y-79325000D03*
X143975000Y-93725000D03*
X148875000Y-78325000D03*
X149875000Y-85325000D03*
X149875000Y-87325000D03*
X163185000Y-112945000D03*
X161220000Y-74865000D03*
X162185000Y-115945000D03*
X161245000Y-90915000D03*
X163245000Y-94915000D03*
X140975000Y-92725000D03*
X147875000Y-83325000D03*
X135975000Y-95725000D03*
X162220000Y-79865000D03*
X161160000Y-96895000D03*
X161245000Y-86915000D03*
X137975000Y-93725000D03*
X144575000Y-74900000D03*
X155920000Y-75925000D03*
X148575000Y-74900000D03*
X162185000Y-113945000D03*
X161245000Y-88915000D03*
X154920000Y-76925000D03*
X162220000Y-83865000D03*
X156920000Y-74925000D03*
X143575000Y-75900000D03*
X147875000Y-85325000D03*
X163245000Y-92915000D03*
X147975000Y-93725000D03*
X161220000Y-76865000D03*
X142975000Y-94725000D03*
X148875000Y-86325000D03*
X163160000Y-96895000D03*
X134975000Y-93725000D03*
X161185000Y-106945000D03*
X163245000Y-86915000D03*
X162245000Y-89915000D03*
X161245000Y-94915000D03*
X147875000Y-89325000D03*
X152920000Y-74925000D03*
X148875000Y-88325000D03*
X163245000Y-84915000D03*
X162160000Y-101895000D03*
X136975000Y-93725000D03*
X162160000Y-105895000D03*
X163160000Y-102895000D03*
X133975000Y-92725000D03*
X144975000Y-92725000D03*
X162160000Y-97895000D03*
X134975000Y-92725000D03*
X147875000Y-79325000D03*
X148875000Y-84325000D03*
X144975000Y-94725000D03*
X141975000Y-95725000D03*
X163720000Y-95965000D03*
X148875000Y-80325000D03*
X163245000Y-88915000D03*
X148875000Y-82325000D03*
X139975000Y-95725000D03*
X163245000Y-90915000D03*
X148975000Y-92725000D03*
X163220000Y-82865000D03*
X136975000Y-95725000D03*
X134975000Y-94725000D03*
X135975000Y-93725000D03*
X133975000Y-93725000D03*
%TO.N,/SW1*%
X101925000Y-117000000D03*
X102610000Y-110315000D03*
%TO.N,/SW2*%
X132350000Y-112925000D03*
%TD*%
D14*
%TO.N,/HO2*%
X126325000Y-105450000D02*
X126225000Y-105350000D01*
X126325000Y-110790000D02*
X126325000Y-105450000D01*
X126120000Y-110995000D02*
X126325000Y-110790000D01*
D15*
%TO.N,12V_IOS1*%
X110030000Y-121825000D02*
X100100000Y-121825000D01*
X110920000Y-120935000D02*
X110030000Y-121825000D01*
X110920000Y-110465000D02*
X110920000Y-120935000D01*
X110890000Y-110435000D02*
X110920000Y-110465000D01*
D14*
%TO.N,/SW2*%
X126700000Y-112645000D02*
X126700000Y-112215000D01*
X126980000Y-112925000D02*
X126700000Y-112645000D01*
X132350000Y-112925000D02*
X126980000Y-112925000D01*
%TO.N,/SW1*%
X101925000Y-110475000D02*
X101925000Y-117000000D01*
X102610000Y-110315000D02*
X102085000Y-110315000D01*
X102085000Y-110315000D02*
X101925000Y-110475000D01*
D15*
%TO.N,+12V*%
X98875000Y-108225000D02*
X98875000Y-115815000D01*
X100400000Y-107825000D02*
X99275000Y-107825000D01*
X131600000Y-109850000D02*
X131600000Y-106475000D01*
X99275000Y-107825000D02*
X98875000Y-108225000D01*
D14*
%TO.N,/HS1*%
X105700000Y-109425000D02*
X105550000Y-109575000D01*
X105550000Y-117950000D02*
X105150000Y-118350000D01*
X107050000Y-109425000D02*
X105700000Y-109425000D01*
X105550000Y-109575000D02*
X105550000Y-117950000D01*
X105150000Y-118350000D02*
X98400000Y-118350000D01*
X98400000Y-118350000D02*
X98375000Y-118325000D01*
%TO.N,/HS2*%
X140750000Y-118275000D02*
X132000000Y-118275000D01*
X134575000Y-100800000D02*
X134225000Y-100800000D01*
X134925000Y-115275000D02*
X134925000Y-101150000D01*
X131800000Y-118075000D02*
X131800000Y-115525000D01*
X132000000Y-118275000D02*
X131800000Y-118075000D01*
X134675000Y-115525000D02*
X134925000Y-115275000D01*
X134925000Y-101150000D02*
X134575000Y-100800000D01*
X131800000Y-115525000D02*
X134675000Y-115525000D01*
%TO.N,Net-(D3-A)*%
X111420000Y-92370000D02*
X111750000Y-92700000D01*
X111750000Y-92700000D02*
X111750000Y-103625000D01*
X111750000Y-103625000D02*
X111075000Y-104300000D01*
X109650000Y-92370000D02*
X111420000Y-92370000D01*
%TO.N,/LO2*%
X136475000Y-107700000D02*
X140050000Y-107700000D01*
X140350000Y-107400000D02*
X140350000Y-102275000D01*
X140350000Y-102275000D02*
X139750000Y-101675000D01*
X140050000Y-107700000D02*
X140350000Y-107400000D01*
%TO.N,Net-(D8-A)*%
X127675000Y-103625000D02*
X129725000Y-103625000D01*
X129725000Y-103625000D02*
X130575000Y-102775000D01*
X130820000Y-96180000D02*
X131850000Y-96180000D01*
X130575000Y-96425000D02*
X130820000Y-96180000D01*
X130575000Y-102775000D02*
X130575000Y-96425000D01*
D15*
%TO.N,12V_IOS2*%
X142595000Y-119145000D02*
X145275000Y-121825000D01*
X124870000Y-119145000D02*
X142595000Y-119145000D01*
X124872100Y-118667100D02*
X124872100Y-113600001D01*
X124870000Y-119145000D02*
X124870000Y-118669200D01*
X124870000Y-118669200D02*
X124872100Y-118667100D01*
%TD*%
%TA.AperFunction,Conductor*%
%TO.N,/HS1*%
G36*
X111092539Y-92990185D02*
G01*
X111138294Y-93042989D01*
X111149500Y-93094500D01*
X111149500Y-102401000D01*
X111129815Y-102468039D01*
X111077011Y-102513794D01*
X111025500Y-102525000D01*
X110475000Y-102525000D01*
X110475000Y-93094500D01*
X110494685Y-93027461D01*
X110547489Y-92981706D01*
X110599000Y-92970500D01*
X111025500Y-92970500D01*
X111092539Y-92990185D01*
G37*
%TD.AperFunction*%
%TA.AperFunction,Conductor*%
G36*
X117918039Y-91394685D02*
G01*
X117963794Y-91447489D01*
X117975000Y-91499000D01*
X117975000Y-102401000D01*
X117955315Y-102468039D01*
X117902511Y-102513794D01*
X117851000Y-102525000D01*
X112474500Y-102525000D01*
X112407461Y-102505315D01*
X112361706Y-102452511D01*
X112350500Y-102401000D01*
X112350500Y-92620942D01*
X112345366Y-92601784D01*
X112345365Y-92601780D01*
X112339534Y-92580018D01*
X112339534Y-92580019D01*
X112309577Y-92468216D01*
X112298516Y-92449057D01*
X112230524Y-92331290D01*
X112230521Y-92331286D01*
X112230520Y-92331284D01*
X112118716Y-92219480D01*
X112118715Y-92219479D01*
X112114385Y-92215149D01*
X112114374Y-92215139D01*
X111907590Y-92008355D01*
X111907588Y-92008352D01*
X111788717Y-91889481D01*
X111788716Y-91889480D01*
X111701904Y-91839360D01*
X111701904Y-91839359D01*
X111701900Y-91839358D01*
X111651785Y-91810423D01*
X111499057Y-91769499D01*
X111340943Y-91769499D01*
X111333347Y-91769499D01*
X111333331Y-91769500D01*
X110599000Y-91769500D01*
X110531961Y-91749815D01*
X110486206Y-91697011D01*
X110475000Y-91645500D01*
X110475000Y-91499000D01*
X110494685Y-91431961D01*
X110547489Y-91386206D01*
X110599000Y-91375000D01*
X117851000Y-91375000D01*
X117918039Y-91394685D01*
G37*
%TD.AperFunction*%
%TD*%
%TA.AperFunction,Conductor*%
%TO.N,/V_in*%
G36*
X81500000Y-91075000D02*
G01*
X81500000Y-119151000D01*
X81480315Y-119218039D01*
X81427511Y-119263794D01*
X81376000Y-119275000D01*
X76824000Y-119275000D01*
X76756961Y-119255315D01*
X76711206Y-119202511D01*
X76700000Y-119151000D01*
X76700000Y-77225000D01*
X81500000Y-77225000D01*
X81500000Y-91075000D01*
G37*
%TD.AperFunction*%
%TD*%
%TA.AperFunction,Conductor*%
%TO.N,/HS2*%
G36*
X129917539Y-98069685D02*
G01*
X129963294Y-98122489D01*
X129974500Y-98174000D01*
X129974500Y-102351000D01*
X129954815Y-102418039D01*
X129902011Y-102463794D01*
X129850500Y-102475000D01*
X123550000Y-102475000D01*
X123550000Y-98050000D01*
X129700000Y-98050000D01*
X129850500Y-98050000D01*
X129917539Y-98069685D01*
G37*
%TD.AperFunction*%
%TA.AperFunction,Conductor*%
G36*
X135918039Y-98069685D02*
G01*
X135963794Y-98122489D01*
X135975000Y-98174000D01*
X135975000Y-102351000D01*
X135955315Y-102418039D01*
X135902511Y-102463794D01*
X135851000Y-102475000D01*
X131299500Y-102475000D01*
X131232461Y-102455315D01*
X131186706Y-102402511D01*
X131175500Y-102351000D01*
X131175500Y-98174000D01*
X131195185Y-98106961D01*
X131247989Y-98061206D01*
X131299500Y-98050000D01*
X135851000Y-98050000D01*
X135918039Y-98069685D01*
G37*
%TD.AperFunction*%
%TD*%
%TA.AperFunction,Conductor*%
%TO.N,/HS1*%
G36*
X110150000Y-102525000D02*
G01*
X109225000Y-102525000D01*
X105574000Y-102525000D01*
X105506961Y-102505315D01*
X105461206Y-102452511D01*
X105450000Y-102401000D01*
X105450000Y-98124000D01*
X105469685Y-98056961D01*
X105522489Y-98011206D01*
X105574000Y-98000000D01*
X109225000Y-98000000D01*
X110150000Y-98000000D01*
X110150000Y-102525000D01*
G37*
%TD.AperFunction*%
%TD*%
%TA.AperFunction,Conductor*%
%TO.N,/HS1*%
G36*
X111149500Y-97100000D02*
G01*
X109225000Y-97100000D01*
X109225000Y-93299000D01*
X109244685Y-93231961D01*
X109297489Y-93186206D01*
X109349000Y-93175000D01*
X110475000Y-93175000D01*
X111149500Y-93175000D01*
X111149500Y-97100000D01*
G37*
%TD.AperFunction*%
%TA.AperFunction,Conductor*%
G36*
X117975000Y-97100000D02*
G01*
X112350500Y-97100000D01*
X112350500Y-93175000D01*
X117975000Y-93175000D01*
X117975000Y-97100000D01*
G37*
%TD.AperFunction*%
%TD*%
%TA.AperFunction,Conductor*%
%TO.N,/V_out*%
G36*
X150575000Y-96500000D02*
G01*
X146695000Y-96500000D01*
X133649000Y-96500000D01*
X133581961Y-96480315D01*
X133536206Y-96427511D01*
X133525000Y-96376000D01*
X133525000Y-92199000D01*
X133544685Y-92131961D01*
X133597489Y-92086206D01*
X133649000Y-92075000D01*
X146695000Y-92075000D01*
X150575000Y-92075000D01*
X150575000Y-96500000D01*
G37*
%TD.AperFunction*%
%TD*%
%TA.AperFunction,Conductor*%
%TO.N,GND*%
G36*
X166109978Y-68294685D02*
G01*
X166155733Y-68347489D01*
X166165677Y-68416647D01*
X166136652Y-68480203D01*
X166095006Y-68511538D01*
X166061746Y-68526926D01*
X166001745Y-68554685D01*
X165739415Y-68712524D01*
X165695081Y-68739200D01*
X165606768Y-68806333D01*
X165410172Y-68955781D01*
X165410163Y-68955789D01*
X165150331Y-69201914D01*
X164918641Y-69474680D01*
X164918634Y-69474690D01*
X164717790Y-69770913D01*
X164717784Y-69770922D01*
X164550151Y-70087111D01*
X164550142Y-70087129D01*
X164417674Y-70419600D01*
X164417672Y-70419607D01*
X164321932Y-70764434D01*
X164321926Y-70764460D01*
X164264029Y-71117614D01*
X164264028Y-71117631D01*
X164244652Y-71474997D01*
X164244652Y-71475002D01*
X164264028Y-71832368D01*
X164264029Y-71832385D01*
X164321926Y-72185539D01*
X164321932Y-72185565D01*
X164417672Y-72530392D01*
X164417674Y-72530399D01*
X164550142Y-72862870D01*
X164550151Y-72862888D01*
X164717784Y-73179077D01*
X164717787Y-73179082D01*
X164717789Y-73179085D01*
X164909942Y-73462490D01*
X164918634Y-73475309D01*
X164918641Y-73475319D01*
X164982947Y-73551025D01*
X165011345Y-73614863D01*
X165000721Y-73683920D01*
X164954448Y-73736271D01*
X164887218Y-73755295D01*
X164853504Y-73750278D01*
X164818421Y-73739976D01*
X164716690Y-73725350D01*
X164676000Y-73719500D01*
X140074000Y-73719500D01*
X140073991Y-73719500D01*
X140073990Y-73719501D01*
X139966549Y-73731052D01*
X139966537Y-73731054D01*
X139915027Y-73742260D01*
X139812502Y-73776383D01*
X139812496Y-73776386D01*
X139691462Y-73854171D01*
X139691451Y-73854179D01*
X139638659Y-73899923D01*
X139544433Y-74008664D01*
X139544430Y-74008668D01*
X139484664Y-74139534D01*
X139464976Y-74206582D01*
X139459949Y-74241549D01*
X139444500Y-74349000D01*
X139444500Y-77601000D01*
X139444501Y-77601009D01*
X139456052Y-77708450D01*
X139456054Y-77708462D01*
X139467260Y-77759972D01*
X139501383Y-77862497D01*
X139501386Y-77862503D01*
X139579171Y-77983537D01*
X139579179Y-77983548D01*
X139624923Y-78036340D01*
X139624926Y-78036343D01*
X139624930Y-78036347D01*
X139733664Y-78130567D01*
X139864541Y-78190338D01*
X139931580Y-78210023D01*
X139931584Y-78210024D01*
X140074000Y-78230500D01*
X146065500Y-78230500D01*
X146132539Y-78250185D01*
X146178294Y-78302989D01*
X146189500Y-78354500D01*
X146189500Y-91445500D01*
X146169815Y-91512539D01*
X146117011Y-91558294D01*
X146065500Y-91569500D01*
X133649000Y-91569500D01*
X133648991Y-91569500D01*
X133648990Y-91569501D01*
X133541549Y-91581052D01*
X133541537Y-91581054D01*
X133490027Y-91592260D01*
X133387502Y-91626383D01*
X133387496Y-91626386D01*
X133266462Y-91704171D01*
X133266451Y-91704179D01*
X133213659Y-91749923D01*
X133119433Y-91858664D01*
X133119430Y-91858668D01*
X133059664Y-91989534D01*
X133039976Y-92056582D01*
X133027238Y-92145181D01*
X132998213Y-92208737D01*
X132939435Y-92246511D01*
X132869565Y-92246511D01*
X132810787Y-92208737D01*
X132781762Y-92145181D01*
X132780500Y-92127534D01*
X132780500Y-91299010D01*
X132780500Y-91299000D01*
X132768947Y-91191544D01*
X132757741Y-91140033D01*
X132749892Y-91116451D01*
X132723616Y-91037502D01*
X132723613Y-91037496D01*
X132645828Y-90916462D01*
X132645825Y-90916457D01*
X132639937Y-90909662D01*
X132600076Y-90863659D01*
X132600072Y-90863656D01*
X132600070Y-90863653D01*
X132491336Y-90769433D01*
X132491333Y-90769431D01*
X132491331Y-90769430D01*
X132360465Y-90709664D01*
X132360460Y-90709662D01*
X132360459Y-90709662D01*
X132293420Y-90689977D01*
X132293422Y-90689977D01*
X132293417Y-90689976D01*
X132231347Y-90681052D01*
X132151000Y-90669500D01*
X129700000Y-90669500D01*
X123474000Y-90669500D01*
X123473991Y-90669500D01*
X123473990Y-90669501D01*
X123366549Y-90681052D01*
X123366537Y-90681054D01*
X123315027Y-90692260D01*
X123212502Y-90726383D01*
X123212496Y-90726386D01*
X123091462Y-90804171D01*
X123091451Y-90804179D01*
X123038659Y-90849923D01*
X122944433Y-90958664D01*
X122944430Y-90958668D01*
X122884664Y-91089534D01*
X122864976Y-91156582D01*
X122859949Y-91191549D01*
X122844500Y-91299000D01*
X122844500Y-102351000D01*
X122844501Y-102351009D01*
X122856052Y-102458450D01*
X122856054Y-102458462D01*
X122867260Y-102509972D01*
X122901383Y-102612497D01*
X122901386Y-102612503D01*
X122979171Y-102733537D01*
X122979179Y-102733548D01*
X123024923Y-102786340D01*
X123024926Y-102786343D01*
X123024930Y-102786347D01*
X123133664Y-102880567D01*
X123133667Y-102880568D01*
X123133668Y-102880569D01*
X123243143Y-102930566D01*
X123264541Y-102940338D01*
X123331580Y-102960023D01*
X123331584Y-102960024D01*
X123474000Y-102980500D01*
X123550000Y-102980500D01*
X126910197Y-102980500D01*
X126977236Y-103000185D01*
X127022991Y-103052989D01*
X127032935Y-103122147D01*
X127015191Y-103170472D01*
X126949211Y-103275477D01*
X126889631Y-103445745D01*
X126889630Y-103445750D01*
X126869435Y-103624996D01*
X126869435Y-103625003D01*
X126889630Y-103804249D01*
X126889631Y-103804254D01*
X126949211Y-103974523D01*
X127031523Y-104105521D01*
X127045184Y-104127262D01*
X127172738Y-104254816D01*
X127325478Y-104350789D01*
X127444204Y-104392333D01*
X127495745Y-104410368D01*
X127495750Y-104410369D01*
X127674996Y-104430565D01*
X127675000Y-104430565D01*
X127675004Y-104430565D01*
X127854249Y-104410369D01*
X127854252Y-104410368D01*
X127854255Y-104410368D01*
X128024522Y-104350789D01*
X128177262Y-104254816D01*
X128177267Y-104254810D01*
X128180097Y-104252555D01*
X128182275Y-104251665D01*
X128183158Y-104251111D01*
X128183255Y-104251265D01*
X128244783Y-104226145D01*
X128257412Y-104225500D01*
X129638331Y-104225500D01*
X129638347Y-104225501D01*
X129645943Y-104225501D01*
X129804054Y-104225501D01*
X129804057Y-104225501D01*
X129956785Y-104184577D01*
X130006904Y-104155639D01*
X130093716Y-104105520D01*
X130205520Y-103993716D01*
X130205520Y-103993714D01*
X130215728Y-103983507D01*
X130215729Y-103983504D01*
X131055520Y-103143716D01*
X131119268Y-103033299D01*
X131169833Y-102985086D01*
X131238440Y-102971862D01*
X131244266Y-102972558D01*
X131299500Y-102980500D01*
X134200500Y-102980500D01*
X134267539Y-103000185D01*
X134313294Y-103052989D01*
X134324500Y-103104500D01*
X134324500Y-114800500D01*
X134304815Y-114867539D01*
X134252011Y-114913294D01*
X134200500Y-114924500D01*
X132382412Y-114924500D01*
X132315373Y-114904815D01*
X132305097Y-114897445D01*
X132302263Y-114895185D01*
X132302262Y-114895184D01*
X132245496Y-114859515D01*
X132149523Y-114799211D01*
X131979254Y-114739631D01*
X131979249Y-114739630D01*
X131800004Y-114719435D01*
X131799996Y-114719435D01*
X131620750Y-114739630D01*
X131620745Y-114739631D01*
X131450476Y-114799211D01*
X131297737Y-114895184D01*
X131170184Y-115022737D01*
X131074211Y-115175476D01*
X131014631Y-115345745D01*
X131014630Y-115345750D01*
X130994435Y-115524996D01*
X130994435Y-115525003D01*
X131014630Y-115704249D01*
X131014631Y-115704254D01*
X131074211Y-115874523D01*
X131104831Y-115923254D01*
X131156521Y-116005518D01*
X131170185Y-116027263D01*
X131172445Y-116030097D01*
X131173334Y-116032275D01*
X131173889Y-116033158D01*
X131173734Y-116033255D01*
X131198855Y-116094783D01*
X131199500Y-116107412D01*
X131199500Y-117988330D01*
X131199499Y-117988348D01*
X131199499Y-118154054D01*
X131199498Y-118154054D01*
X131222101Y-118238406D01*
X131220438Y-118308256D01*
X131181276Y-118366119D01*
X131117047Y-118393623D01*
X131102326Y-118394500D01*
X125746600Y-118394500D01*
X125679561Y-118374815D01*
X125633806Y-118322011D01*
X125622600Y-118270500D01*
X125622600Y-113899973D01*
X125629558Y-113859018D01*
X125657468Y-113779255D01*
X125657469Y-113779250D01*
X125677665Y-113600004D01*
X125677665Y-113599997D01*
X125657469Y-113420751D01*
X125657468Y-113420746D01*
X125597888Y-113250477D01*
X125506010Y-113104255D01*
X125501916Y-113097739D01*
X125374362Y-112970185D01*
X125221623Y-112874212D01*
X125051354Y-112814632D01*
X125051349Y-112814631D01*
X124872104Y-112794436D01*
X124872096Y-112794436D01*
X124692850Y-112814631D01*
X124692845Y-112814632D01*
X124522576Y-112874212D01*
X124369837Y-112970185D01*
X124242284Y-113097738D01*
X124146311Y-113250477D01*
X124086731Y-113420746D01*
X124086730Y-113420751D01*
X124066535Y-113599997D01*
X124066535Y-113600004D01*
X124086730Y-113779250D01*
X124086731Y-113779255D01*
X124114642Y-113859018D01*
X124121600Y-113899973D01*
X124121600Y-118572510D01*
X124119956Y-118589204D01*
X124120097Y-118589218D01*
X124119500Y-118595280D01*
X124119500Y-118845028D01*
X124112542Y-118885982D01*
X124084631Y-118965747D01*
X124064435Y-119144996D01*
X124064435Y-119145003D01*
X124084630Y-119324249D01*
X124084631Y-119324254D01*
X124144211Y-119494523D01*
X124210531Y-119600070D01*
X124240184Y-119647262D01*
X124367738Y-119774816D01*
X124520478Y-119870789D01*
X124690745Y-119930368D01*
X124690750Y-119930369D01*
X124869996Y-119950565D01*
X124870000Y-119950565D01*
X124870004Y-119950565D01*
X125049249Y-119930369D01*
X125049252Y-119930368D01*
X125049255Y-119930368D01*
X125129017Y-119902457D01*
X125169972Y-119895500D01*
X142232770Y-119895500D01*
X142299809Y-119915185D01*
X142320451Y-119931819D01*
X144521692Y-122133059D01*
X144544358Y-122169125D01*
X144546188Y-122168244D01*
X144549209Y-122174518D01*
X144549211Y-122174522D01*
X144645184Y-122327262D01*
X144772738Y-122454816D01*
X144863080Y-122511582D01*
X144918903Y-122546658D01*
X144925478Y-122550789D01*
X144996098Y-122575500D01*
X145095745Y-122610368D01*
X145095750Y-122610369D01*
X145274996Y-122630565D01*
X145275000Y-122630565D01*
X145275004Y-122630565D01*
X145454249Y-122610369D01*
X145454252Y-122610368D01*
X145454255Y-122610368D01*
X145624522Y-122550789D01*
X145777262Y-122454816D01*
X145904816Y-122327262D01*
X146000789Y-122174522D01*
X146060368Y-122004255D01*
X146080565Y-121825000D01*
X146076743Y-121791080D01*
X146060369Y-121645750D01*
X146060368Y-121645745D01*
X146000788Y-121475476D01*
X145904815Y-121322737D01*
X145777262Y-121195184D01*
X145711586Y-121153917D01*
X145624522Y-121099211D01*
X145624518Y-121099209D01*
X145618244Y-121096188D01*
X145619125Y-121094358D01*
X145583059Y-121071692D01*
X143073421Y-118562052D01*
X143073420Y-118562051D01*
X142976455Y-118497262D01*
X142950495Y-118479916D01*
X142950488Y-118479912D01*
X142813917Y-118423343D01*
X142813907Y-118423340D01*
X142668920Y-118394500D01*
X142668918Y-118394500D01*
X141679565Y-118394500D01*
X141612526Y-118374815D01*
X141566771Y-118322011D01*
X141558008Y-118281731D01*
X141556345Y-118281919D01*
X141535369Y-118095750D01*
X141535368Y-118095745D01*
X141475788Y-117925476D01*
X141379815Y-117772737D01*
X141252262Y-117645184D01*
X141099523Y-117549211D01*
X140929254Y-117489631D01*
X140929249Y-117489630D01*
X140750004Y-117469435D01*
X140749996Y-117469435D01*
X140570750Y-117489630D01*
X140570745Y-117489631D01*
X140400476Y-117549211D01*
X140247736Y-117645185D01*
X140244903Y-117647445D01*
X140242724Y-117648334D01*
X140241842Y-117648889D01*
X140241744Y-117648734D01*
X140180217Y-117673855D01*
X140167588Y-117674500D01*
X132524500Y-117674500D01*
X132457461Y-117654815D01*
X132411706Y-117602011D01*
X132400500Y-117550500D01*
X132400500Y-116249500D01*
X132420185Y-116182461D01*
X132472989Y-116136706D01*
X132524500Y-116125500D01*
X134588331Y-116125500D01*
X134588347Y-116125501D01*
X134595943Y-116125501D01*
X134754054Y-116125501D01*
X134754057Y-116125501D01*
X134906785Y-116084577D01*
X134994537Y-116033913D01*
X135043716Y-116005520D01*
X135155520Y-115893716D01*
X135155520Y-115893714D01*
X135165724Y-115883511D01*
X135165728Y-115883506D01*
X135283506Y-115765728D01*
X135283511Y-115765724D01*
X135293714Y-115755520D01*
X135293716Y-115755520D01*
X135342490Y-115706746D01*
X149124500Y-115706746D01*
X149124500Y-115923254D01*
X149135746Y-115994255D01*
X149158370Y-116137098D01*
X149225272Y-116343006D01*
X149225273Y-116343009D01*
X149304113Y-116497738D01*
X149323567Y-116535919D01*
X149450828Y-116711078D01*
X149603922Y-116864172D01*
X149758190Y-116976255D01*
X149769789Y-116984682D01*
X149812454Y-117040012D01*
X149818433Y-117109626D01*
X149785827Y-117171421D01*
X149769788Y-117185318D01*
X149603922Y-117305828D01*
X149603920Y-117305830D01*
X149603919Y-117305830D01*
X149450830Y-117458919D01*
X149450830Y-117458920D01*
X149450828Y-117458922D01*
X149428517Y-117489631D01*
X149323567Y-117634080D01*
X149225273Y-117826990D01*
X149225272Y-117826993D01*
X149158370Y-118032901D01*
X149148416Y-118095750D01*
X149124500Y-118246746D01*
X149124500Y-118463254D01*
X149130993Y-118504249D01*
X149158370Y-118677098D01*
X149225272Y-118883006D01*
X149225273Y-118883009D01*
X149323567Y-119075919D01*
X149450828Y-119251078D01*
X149603922Y-119404172D01*
X149728278Y-119494522D01*
X149769789Y-119524682D01*
X149812454Y-119580012D01*
X149818433Y-119649626D01*
X149785827Y-119711421D01*
X149769788Y-119725318D01*
X149603922Y-119845828D01*
X149603920Y-119845830D01*
X149603919Y-119845830D01*
X149450830Y-119998919D01*
X149450830Y-119998920D01*
X149450828Y-119998922D01*
X149428269Y-120029972D01*
X149323567Y-120174080D01*
X149225273Y-120366990D01*
X149225272Y-120366993D01*
X149158370Y-120572901D01*
X149124500Y-120786746D01*
X149124500Y-121003254D01*
X149138510Y-121091705D01*
X149158370Y-121217098D01*
X149225272Y-121423006D01*
X149225273Y-121423009D01*
X149252007Y-121475476D01*
X149323567Y-121615919D01*
X149450828Y-121791078D01*
X149603922Y-121944172D01*
X149779081Y-122071433D01*
X149873697Y-122119642D01*
X149971990Y-122169726D01*
X149971993Y-122169727D01*
X150074947Y-122203178D01*
X150177903Y-122236630D01*
X150391746Y-122270500D01*
X150391747Y-122270500D01*
X151108253Y-122270500D01*
X151108254Y-122270500D01*
X151322097Y-122236630D01*
X151528009Y-122169726D01*
X151720919Y-122071433D01*
X151896078Y-121944172D01*
X152049172Y-121791078D01*
X152176433Y-121615919D01*
X152274726Y-121423009D01*
X152341630Y-121217097D01*
X152375500Y-121003254D01*
X152375500Y-120786746D01*
X152341630Y-120572903D01*
X152285636Y-120400569D01*
X152274727Y-120366993D01*
X152274726Y-120366990D01*
X152176432Y-120174080D01*
X152146225Y-120132504D01*
X152049172Y-119998922D01*
X151896078Y-119845828D01*
X151730208Y-119725316D01*
X151687545Y-119669988D01*
X151681566Y-119600375D01*
X151714172Y-119538580D01*
X151730205Y-119524686D01*
X151896078Y-119404172D01*
X152049172Y-119251078D01*
X152176433Y-119075919D01*
X152274726Y-118883009D01*
X152341630Y-118677097D01*
X152375500Y-118463254D01*
X152375500Y-118246746D01*
X152341630Y-118032903D01*
X152274726Y-117826991D01*
X152274726Y-117826990D01*
X152198307Y-117677011D01*
X152176433Y-117634081D01*
X152049172Y-117458922D01*
X151896078Y-117305828D01*
X151730208Y-117185316D01*
X151687545Y-117129988D01*
X151681566Y-117060375D01*
X151714172Y-116998580D01*
X151730205Y-116984686D01*
X151896078Y-116864172D01*
X152049172Y-116711078D01*
X152176433Y-116535919D01*
X152274726Y-116343009D01*
X152341630Y-116137097D01*
X152375500Y-115923254D01*
X152375500Y-115706746D01*
X152341630Y-115492903D01*
X152274726Y-115286991D01*
X152274726Y-115286990D01*
X152176432Y-115094080D01*
X152049172Y-114918922D01*
X151896078Y-114765828D01*
X151720919Y-114638567D01*
X151528009Y-114540273D01*
X151528006Y-114540272D01*
X151322098Y-114473370D01*
X151215175Y-114456435D01*
X151108254Y-114439500D01*
X150391746Y-114439500D01*
X150320465Y-114450790D01*
X150177901Y-114473370D01*
X149971993Y-114540272D01*
X149971990Y-114540273D01*
X149779080Y-114638567D01*
X149679145Y-114711174D01*
X149603922Y-114765828D01*
X149603920Y-114765830D01*
X149603919Y-114765830D01*
X149450830Y-114918919D01*
X149450830Y-114918920D01*
X149450828Y-114918922D01*
X149396174Y-114994145D01*
X149323567Y-115094080D01*
X149225273Y-115286990D01*
X149225272Y-115286993D01*
X149158370Y-115492901D01*
X149148379Y-115555982D01*
X149124500Y-115706746D01*
X135342490Y-115706746D01*
X135405520Y-115643716D01*
X135484577Y-115506784D01*
X135518675Y-115379530D01*
X135525500Y-115354058D01*
X135525500Y-115195943D01*
X135525500Y-108123902D01*
X135545185Y-108056863D01*
X135597989Y-108011108D01*
X135667147Y-108001164D01*
X135730703Y-108030189D01*
X135754494Y-108057930D01*
X135761271Y-108068716D01*
X135845184Y-108202262D01*
X135972738Y-108329816D01*
X136125478Y-108425789D01*
X136295745Y-108485368D01*
X136295750Y-108485369D01*
X136474996Y-108505565D01*
X136475000Y-108505565D01*
X136475004Y-108505565D01*
X136654249Y-108485369D01*
X136654252Y-108485368D01*
X136654255Y-108485368D01*
X136824522Y-108425789D01*
X136977262Y-108329816D01*
X136977267Y-108329810D01*
X136980097Y-108327555D01*
X136982275Y-108326665D01*
X136983158Y-108326111D01*
X136983255Y-108326265D01*
X137044783Y-108301145D01*
X137057412Y-108300500D01*
X139963331Y-108300500D01*
X139963347Y-108300501D01*
X139970943Y-108300501D01*
X140129054Y-108300501D01*
X140129057Y-108300501D01*
X140281785Y-108259577D01*
X140331904Y-108230639D01*
X140418716Y-108180520D01*
X140530520Y-108068716D01*
X140530520Y-108068714D01*
X140540728Y-108058507D01*
X140540730Y-108058504D01*
X140708506Y-107890728D01*
X140708511Y-107890724D01*
X140718714Y-107880520D01*
X140718716Y-107880520D01*
X140830520Y-107768716D01*
X140883321Y-107677262D01*
X140909577Y-107631785D01*
X140950500Y-107479057D01*
X140950500Y-107320943D01*
X140950500Y-102195943D01*
X140934121Y-102134816D01*
X140909577Y-102043215D01*
X140849714Y-101939530D01*
X140830520Y-101906284D01*
X140718716Y-101794480D01*
X140718715Y-101794479D01*
X140714385Y-101790149D01*
X140714374Y-101790139D01*
X140580700Y-101656465D01*
X140547215Y-101595142D01*
X140545163Y-101582686D01*
X140535368Y-101495745D01*
X140475789Y-101325478D01*
X140379816Y-101172738D01*
X140252262Y-101045184D01*
X140099523Y-100949211D01*
X139929254Y-100889631D01*
X139929249Y-100889630D01*
X139750004Y-100869435D01*
X139749996Y-100869435D01*
X139570750Y-100889630D01*
X139570745Y-100889631D01*
X139400476Y-100949211D01*
X139247737Y-101045184D01*
X139120184Y-101172737D01*
X139024211Y-101325476D01*
X138964631Y-101495745D01*
X138964630Y-101495750D01*
X138944435Y-101674996D01*
X138944435Y-101675003D01*
X138964630Y-101854249D01*
X138964631Y-101854254D01*
X139024211Y-102024523D01*
X139093513Y-102134816D01*
X139120184Y-102177262D01*
X139247738Y-102304816D01*
X139400478Y-102400789D01*
X139570745Y-102460368D01*
X139639384Y-102468101D01*
X139703796Y-102495166D01*
X139743352Y-102552760D01*
X139749500Y-102591321D01*
X139749500Y-106975500D01*
X139729815Y-107042539D01*
X139677011Y-107088294D01*
X139625500Y-107099500D01*
X137057412Y-107099500D01*
X136990373Y-107079815D01*
X136980097Y-107072445D01*
X136977263Y-107070185D01*
X136977262Y-107070184D01*
X136896496Y-107019435D01*
X136824523Y-106974211D01*
X136654254Y-106914631D01*
X136654249Y-106914630D01*
X136475004Y-106894435D01*
X136474996Y-106894435D01*
X136295750Y-106914630D01*
X136295745Y-106914631D01*
X136125476Y-106974211D01*
X135972737Y-107070184D01*
X135845182Y-107197739D01*
X135754493Y-107342070D01*
X135702159Y-107388360D01*
X135633105Y-107399008D01*
X135569257Y-107370633D01*
X135530885Y-107312243D01*
X135525500Y-107276097D01*
X135525500Y-103104500D01*
X135545185Y-103037461D01*
X135597989Y-102991706D01*
X135649500Y-102980500D01*
X135850990Y-102980500D01*
X135851000Y-102980500D01*
X135958456Y-102968947D01*
X136009967Y-102957741D01*
X136044197Y-102946347D01*
X136112497Y-102923616D01*
X136112501Y-102923613D01*
X136112504Y-102923613D01*
X136233543Y-102845825D01*
X136286347Y-102800070D01*
X136380567Y-102691336D01*
X136440338Y-102560459D01*
X136460023Y-102493420D01*
X136460024Y-102493416D01*
X136480500Y-102351000D01*
X136480500Y-98174000D01*
X136468947Y-98066544D01*
X136457741Y-98015033D01*
X136446608Y-97981584D01*
X136423616Y-97912502D01*
X136423613Y-97912496D01*
X136345828Y-97791462D01*
X136345825Y-97791457D01*
X136339076Y-97783668D01*
X136300076Y-97738659D01*
X136300072Y-97738656D01*
X136300070Y-97738653D01*
X136191336Y-97644433D01*
X136191333Y-97644431D01*
X136191331Y-97644430D01*
X136060465Y-97584664D01*
X136060460Y-97584662D01*
X136060459Y-97584662D01*
X135993420Y-97564977D01*
X135993422Y-97564977D01*
X135993417Y-97564976D01*
X135931354Y-97556053D01*
X135851000Y-97544500D01*
X131299500Y-97544500D01*
X131232461Y-97524815D01*
X131186706Y-97472011D01*
X131175500Y-97420500D01*
X131175500Y-96925952D01*
X131195185Y-96858913D01*
X131247989Y-96813158D01*
X131317147Y-96803214D01*
X131365470Y-96820958D01*
X131422656Y-96856890D01*
X131500475Y-96905788D01*
X131670745Y-96965368D01*
X131670750Y-96965369D01*
X131849996Y-96985565D01*
X131850000Y-96985565D01*
X131850004Y-96985565D01*
X132029249Y-96965369D01*
X132029252Y-96965368D01*
X132029255Y-96965368D01*
X132199522Y-96905789D01*
X132352262Y-96809816D01*
X132479816Y-96682262D01*
X132575789Y-96529522D01*
X132635368Y-96359255D01*
X132655565Y-96180000D01*
X132635368Y-96000745D01*
X132575789Y-95830478D01*
X132575788Y-95830477D01*
X132575787Y-95830473D01*
X132501429Y-95712134D01*
X132482428Y-95644898D01*
X132502795Y-95578063D01*
X132530292Y-95548835D01*
X132530197Y-95548725D01*
X132531275Y-95547790D01*
X132532134Y-95546878D01*
X132533523Y-95545837D01*
X132533543Y-95545825D01*
X132586347Y-95500070D01*
X132680567Y-95391336D01*
X132740338Y-95260459D01*
X132760023Y-95193420D01*
X132760024Y-95193416D01*
X132772762Y-95104817D01*
X132801787Y-95041263D01*
X132860565Y-95003488D01*
X132930434Y-95003488D01*
X132989213Y-95041262D01*
X133018238Y-95104817D01*
X133019500Y-95122465D01*
X133019500Y-96376000D01*
X133019501Y-96376009D01*
X133031052Y-96483450D01*
X133031054Y-96483462D01*
X133042260Y-96534972D01*
X133076383Y-96637497D01*
X133076386Y-96637503D01*
X133154171Y-96758537D01*
X133154179Y-96758548D01*
X133199923Y-96811340D01*
X133199926Y-96811343D01*
X133199930Y-96811347D01*
X133308664Y-96905567D01*
X133308667Y-96905568D01*
X133308668Y-96905569D01*
X133402925Y-96948616D01*
X133439541Y-96965338D01*
X133506580Y-96985023D01*
X133506584Y-96985024D01*
X133649000Y-97005500D01*
X133649003Y-97005500D01*
X151150990Y-97005500D01*
X151151000Y-97005500D01*
X151258456Y-96993947D01*
X151309967Y-96982741D01*
X151362164Y-96965368D01*
X151412497Y-96948616D01*
X151412501Y-96948613D01*
X151412504Y-96948613D01*
X151533543Y-96870825D01*
X151586347Y-96825070D01*
X151680567Y-96716336D01*
X151740338Y-96585459D01*
X151760023Y-96518420D01*
X151760024Y-96518416D01*
X151780500Y-96376000D01*
X151780500Y-78354500D01*
X151800185Y-78287461D01*
X151852989Y-78241706D01*
X151904500Y-78230500D01*
X159295500Y-78230500D01*
X159362539Y-78250185D01*
X159408294Y-78302989D01*
X159419500Y-78354500D01*
X159419500Y-119871000D01*
X159419501Y-119871009D01*
X159431052Y-119978450D01*
X159431054Y-119978462D01*
X159442260Y-120029972D01*
X159476383Y-120132497D01*
X159476386Y-120132503D01*
X159554171Y-120253537D01*
X159554179Y-120253548D01*
X159599923Y-120306340D01*
X159599926Y-120306343D01*
X159599930Y-120306347D01*
X159708664Y-120400567D01*
X159708667Y-120400568D01*
X159708668Y-120400569D01*
X159802925Y-120443616D01*
X159839541Y-120460338D01*
X159906580Y-120480023D01*
X159906584Y-120480024D01*
X160049000Y-120500500D01*
X160049003Y-120500500D01*
X164675990Y-120500500D01*
X164676000Y-120500500D01*
X164783456Y-120488947D01*
X164834967Y-120477741D01*
X164869197Y-120466347D01*
X164937497Y-120443616D01*
X164937501Y-120443613D01*
X164937504Y-120443613D01*
X165058543Y-120365825D01*
X165111347Y-120320070D01*
X165205567Y-120211336D01*
X165265338Y-120080459D01*
X165285023Y-120013420D01*
X165285024Y-120013416D01*
X165305500Y-119871000D01*
X165305500Y-77475000D01*
X165305500Y-74349000D01*
X165293947Y-74241544D01*
X165282741Y-74190033D01*
X165279031Y-74178886D01*
X165276536Y-74109061D01*
X165312188Y-74048972D01*
X165374667Y-74017696D01*
X165444137Y-74025164D01*
X165471726Y-74041010D01*
X165472435Y-74041549D01*
X165695081Y-74210800D01*
X166001747Y-74395315D01*
X166001749Y-74395316D01*
X166001751Y-74395317D01*
X166001755Y-74395319D01*
X166326552Y-74545585D01*
X166326565Y-74545591D01*
X166665726Y-74659868D01*
X167015254Y-74736805D01*
X167371052Y-74775500D01*
X167371058Y-74775500D01*
X167728942Y-74775500D01*
X167728948Y-74775500D01*
X168084746Y-74736805D01*
X168434274Y-74659868D01*
X168773435Y-74545591D01*
X169098253Y-74395315D01*
X169404919Y-74210800D01*
X169689837Y-73994211D01*
X169949668Y-73748086D01*
X170181365Y-73475311D01*
X170382211Y-73179085D01*
X170516445Y-72925894D01*
X170565238Y-72875885D01*
X170633323Y-72860193D01*
X170699083Y-72883803D01*
X170741640Y-72939217D01*
X170750000Y-72983977D01*
X170750000Y-126273910D01*
X170749980Y-126276122D01*
X170747590Y-126410101D01*
X170746348Y-126425536D01*
X170708051Y-126691897D01*
X170704290Y-126709185D01*
X170628791Y-126966311D01*
X170622608Y-126982887D01*
X170511284Y-127226654D01*
X170502805Y-127242183D01*
X170357922Y-127467624D01*
X170347320Y-127481787D01*
X170171827Y-127684317D01*
X170159317Y-127696827D01*
X169956787Y-127872320D01*
X169942624Y-127882922D01*
X169717183Y-128027805D01*
X169701654Y-128036284D01*
X169457887Y-128147608D01*
X169441311Y-128153791D01*
X169184185Y-128229290D01*
X169166897Y-128233051D01*
X168900536Y-128271348D01*
X168885101Y-128272590D01*
X168754818Y-128274914D01*
X168751120Y-128274980D01*
X168748910Y-128275000D01*
X72751090Y-128275000D01*
X72748879Y-128274980D01*
X72745015Y-128274911D01*
X72614898Y-128272590D01*
X72599463Y-128271348D01*
X72333102Y-128233051D01*
X72315814Y-128229290D01*
X72058688Y-128153791D01*
X72042112Y-128147608D01*
X71798345Y-128036284D01*
X71782821Y-128027808D01*
X71557374Y-127882921D01*
X71543212Y-127872320D01*
X71340682Y-127696827D01*
X71328172Y-127684317D01*
X71152679Y-127481787D01*
X71142077Y-127467624D01*
X70997188Y-127242173D01*
X70988715Y-127226654D01*
X70877391Y-126982887D01*
X70871208Y-126966311D01*
X70795709Y-126709185D01*
X70791948Y-126691897D01*
X70753651Y-126425536D01*
X70752409Y-126410109D01*
X70750020Y-126276121D01*
X70750000Y-126273910D01*
X70750000Y-72983977D01*
X70769685Y-72916938D01*
X70822489Y-72871183D01*
X70891647Y-72861239D01*
X70955203Y-72890264D01*
X70983555Y-72925894D01*
X71117784Y-73179077D01*
X71117787Y-73179082D01*
X71117789Y-73179085D01*
X71309942Y-73462490D01*
X71318634Y-73475309D01*
X71318641Y-73475319D01*
X71545383Y-73742260D01*
X71550332Y-73748086D01*
X71810163Y-73994211D01*
X72095081Y-74210800D01*
X72401747Y-74395315D01*
X72401749Y-74395316D01*
X72401751Y-74395317D01*
X72401755Y-74395319D01*
X72726552Y-74545585D01*
X72726565Y-74545591D01*
X73065726Y-74659868D01*
X73415254Y-74736805D01*
X73771052Y-74775500D01*
X73771058Y-74775500D01*
X74128942Y-74775500D01*
X74128948Y-74775500D01*
X74484746Y-74736805D01*
X74834274Y-74659868D01*
X75173435Y-74545591D01*
X75498253Y-74395315D01*
X75804919Y-74210800D01*
X75995459Y-74065954D01*
X76060741Y-74041056D01*
X76129122Y-74055403D01*
X76178890Y-74104442D01*
X76194500Y-74164671D01*
X76194500Y-77225000D01*
X76194500Y-119151000D01*
X76194501Y-119151009D01*
X76206052Y-119258450D01*
X76206054Y-119258462D01*
X76217260Y-119309972D01*
X76251383Y-119412497D01*
X76251386Y-119412503D01*
X76329171Y-119533537D01*
X76329179Y-119533548D01*
X76374923Y-119586340D01*
X76374926Y-119586343D01*
X76374930Y-119586347D01*
X76483664Y-119680567D01*
X76483667Y-119680568D01*
X76483668Y-119680569D01*
X76581652Y-119725318D01*
X76614541Y-119740338D01*
X76681580Y-119760023D01*
X76681584Y-119760024D01*
X76824000Y-119780500D01*
X76824003Y-119780500D01*
X81375990Y-119780500D01*
X81376000Y-119780500D01*
X81483456Y-119768947D01*
X81534967Y-119757741D01*
X81569197Y-119746347D01*
X81637497Y-119723616D01*
X81637501Y-119723613D01*
X81637504Y-119723613D01*
X81758543Y-119645825D01*
X81811347Y-119600070D01*
X81905567Y-119491336D01*
X81965338Y-119360459D01*
X81985023Y-119293420D01*
X81985024Y-119293416D01*
X82005500Y-119151000D01*
X82005500Y-115706746D01*
X89124500Y-115706746D01*
X89124500Y-115923254D01*
X89135746Y-115994255D01*
X89158370Y-116137098D01*
X89225272Y-116343006D01*
X89225273Y-116343009D01*
X89304113Y-116497738D01*
X89323567Y-116535919D01*
X89450828Y-116711078D01*
X89603922Y-116864172D01*
X89758190Y-116976255D01*
X89769789Y-116984682D01*
X89812454Y-117040012D01*
X89818433Y-117109626D01*
X89785827Y-117171421D01*
X89769788Y-117185318D01*
X89603922Y-117305828D01*
X89603920Y-117305830D01*
X89603919Y-117305830D01*
X89450830Y-117458919D01*
X89450830Y-117458920D01*
X89450828Y-117458922D01*
X89428517Y-117489631D01*
X89323567Y-117634080D01*
X89225273Y-117826990D01*
X89225272Y-117826993D01*
X89158370Y-118032901D01*
X89148416Y-118095750D01*
X89124500Y-118246746D01*
X89124500Y-118463254D01*
X89130993Y-118504249D01*
X89158370Y-118677098D01*
X89225272Y-118883006D01*
X89225273Y-118883009D01*
X89323567Y-119075919D01*
X89450828Y-119251078D01*
X89603922Y-119404172D01*
X89728278Y-119494522D01*
X89769789Y-119524682D01*
X89812454Y-119580012D01*
X89818433Y-119649626D01*
X89785827Y-119711421D01*
X89769788Y-119725318D01*
X89603922Y-119845828D01*
X89603920Y-119845830D01*
X89603919Y-119845830D01*
X89450830Y-119998919D01*
X89450830Y-119998920D01*
X89450828Y-119998922D01*
X89428269Y-120029972D01*
X89323567Y-120174080D01*
X89225273Y-120366990D01*
X89225272Y-120366993D01*
X89158370Y-120572901D01*
X89124500Y-120786746D01*
X89124500Y-121003254D01*
X89138510Y-121091705D01*
X89158370Y-121217098D01*
X89225272Y-121423006D01*
X89225273Y-121423009D01*
X89252007Y-121475476D01*
X89323567Y-121615919D01*
X89450828Y-121791078D01*
X89603922Y-121944172D01*
X89779081Y-122071433D01*
X89873697Y-122119642D01*
X89971990Y-122169726D01*
X89971993Y-122169727D01*
X90074947Y-122203178D01*
X90177903Y-122236630D01*
X90391746Y-122270500D01*
X90391747Y-122270500D01*
X91108253Y-122270500D01*
X91108254Y-122270500D01*
X91322097Y-122236630D01*
X91528009Y-122169726D01*
X91720919Y-122071433D01*
X91896078Y-121944172D01*
X92015254Y-121824996D01*
X99294435Y-121824996D01*
X99294435Y-121825003D01*
X99314630Y-122004249D01*
X99314631Y-122004254D01*
X99374211Y-122174523D01*
X99413235Y-122236629D01*
X99470184Y-122327262D01*
X99597738Y-122454816D01*
X99688080Y-122511582D01*
X99743903Y-122546658D01*
X99750478Y-122550789D01*
X99821098Y-122575500D01*
X99920745Y-122610368D01*
X99920750Y-122610369D01*
X100099996Y-122630565D01*
X100100000Y-122630565D01*
X100100004Y-122630565D01*
X100279249Y-122610369D01*
X100279252Y-122610368D01*
X100279255Y-122610368D01*
X100359017Y-122582457D01*
X100399972Y-122575500D01*
X110103920Y-122575500D01*
X110201462Y-122556096D01*
X110248913Y-122546658D01*
X110385495Y-122490084D01*
X110438277Y-122454816D01*
X110508416Y-122407952D01*
X111502952Y-121413416D01*
X111522879Y-121383591D01*
X111563532Y-121322751D01*
X111563534Y-121322746D01*
X111563540Y-121322738D01*
X111585084Y-121290495D01*
X111641658Y-121153913D01*
X111652539Y-121099211D01*
X111670500Y-121008920D01*
X111670500Y-110994996D01*
X125314435Y-110994996D01*
X125314435Y-110995003D01*
X125334630Y-111174249D01*
X125334631Y-111174254D01*
X125394211Y-111344523D01*
X125447689Y-111429632D01*
X125490184Y-111497262D01*
X125617738Y-111624816D01*
X125757663Y-111712737D01*
X125770478Y-111720789D01*
X125880050Y-111759130D01*
X125936826Y-111799852D01*
X125962574Y-111864805D01*
X125956138Y-111917126D01*
X125914632Y-112035742D01*
X125914630Y-112035750D01*
X125894435Y-112214996D01*
X125894435Y-112215003D01*
X125914630Y-112394249D01*
X125914631Y-112394254D01*
X125974211Y-112564523D01*
X126070184Y-112717262D01*
X126084247Y-112731325D01*
X126116340Y-112786911D01*
X126140422Y-112876784D01*
X126141323Y-112878343D01*
X126141337Y-112878368D01*
X126219477Y-113013712D01*
X126219481Y-113013717D01*
X126348720Y-113142956D01*
X126348725Y-113142960D01*
X126611284Y-113405520D01*
X126707533Y-113461089D01*
X126748211Y-113484575D01*
X126748212Y-113484575D01*
X126748215Y-113484577D01*
X126900943Y-113525501D01*
X126900946Y-113525501D01*
X127066654Y-113525501D01*
X127066670Y-113525500D01*
X131767588Y-113525500D01*
X131834627Y-113545185D01*
X131844903Y-113552555D01*
X131847736Y-113554814D01*
X131847738Y-113554816D01*
X132000478Y-113650789D01*
X132170745Y-113710368D01*
X132170750Y-113710369D01*
X132349996Y-113730565D01*
X132350000Y-113730565D01*
X132350004Y-113730565D01*
X132529249Y-113710369D01*
X132529252Y-113710368D01*
X132529255Y-113710368D01*
X132699522Y-113650789D01*
X132852262Y-113554816D01*
X132979816Y-113427262D01*
X133075789Y-113274522D01*
X133135368Y-113104255D01*
X133136102Y-113097739D01*
X133155565Y-112925003D01*
X133155565Y-112924996D01*
X133135369Y-112745750D01*
X133135368Y-112745745D01*
X133075788Y-112575476D01*
X132979815Y-112422737D01*
X132852262Y-112295184D01*
X132699523Y-112199211D01*
X132529254Y-112139631D01*
X132529249Y-112139630D01*
X132350004Y-112119435D01*
X132349996Y-112119435D01*
X132170750Y-112139630D01*
X132170745Y-112139631D01*
X132000476Y-112199211D01*
X131847736Y-112295185D01*
X131844903Y-112297445D01*
X131842724Y-112298334D01*
X131841842Y-112298889D01*
X131841744Y-112298734D01*
X131780217Y-112323855D01*
X131767588Y-112324500D01*
X127628716Y-112324500D01*
X127561677Y-112304815D01*
X127515922Y-112252011D01*
X127505496Y-112214383D01*
X127485369Y-112035750D01*
X127485368Y-112035745D01*
X127425788Y-111865476D01*
X127358966Y-111759130D01*
X127329816Y-111712738D01*
X127202262Y-111585184D01*
X127049521Y-111489210D01*
X126970461Y-111461546D01*
X126939948Y-111450869D01*
X126883173Y-111410148D01*
X126857425Y-111345196D01*
X126863862Y-111292873D01*
X126905366Y-111174262D01*
X126905369Y-111174249D01*
X126925565Y-110995003D01*
X126925565Y-110994997D01*
X126918183Y-110929485D01*
X126921628Y-110883507D01*
X126925501Y-110869057D01*
X126925501Y-110710942D01*
X126925501Y-110703347D01*
X126925500Y-110703329D01*
X126925500Y-106474996D01*
X130794435Y-106474996D01*
X130794435Y-106475003D01*
X130814630Y-106654249D01*
X130814631Y-106654254D01*
X130842542Y-106734017D01*
X130849500Y-106774972D01*
X130849500Y-109550028D01*
X130842542Y-109590982D01*
X130814631Y-109670747D01*
X130794435Y-109849996D01*
X130794435Y-109850003D01*
X130814630Y-110029249D01*
X130814631Y-110029254D01*
X130874211Y-110199523D01*
X130959061Y-110334560D01*
X130970184Y-110352262D01*
X131097738Y-110479816D01*
X131120708Y-110494249D01*
X131215896Y-110554060D01*
X131250478Y-110575789D01*
X131360399Y-110614252D01*
X131420745Y-110635368D01*
X131420750Y-110635369D01*
X131599996Y-110655565D01*
X131600000Y-110655565D01*
X131600004Y-110655565D01*
X131779249Y-110635369D01*
X131779252Y-110635368D01*
X131779255Y-110635368D01*
X131949522Y-110575789D01*
X132102262Y-110479816D01*
X132229816Y-110352262D01*
X132325789Y-110199522D01*
X132385368Y-110029255D01*
X132389286Y-109994480D01*
X132405565Y-109850003D01*
X132405565Y-109849996D01*
X132387350Y-109688334D01*
X132385368Y-109670745D01*
X132357458Y-109590982D01*
X132350500Y-109550028D01*
X132350500Y-106774972D01*
X132357458Y-106734017D01*
X132385368Y-106654254D01*
X132385369Y-106654249D01*
X132405565Y-106475003D01*
X132405565Y-106474996D01*
X132385369Y-106295750D01*
X132385368Y-106295745D01*
X132325788Y-106125476D01*
X132267643Y-106032940D01*
X132229816Y-105972738D01*
X132102262Y-105845184D01*
X131991350Y-105775493D01*
X131949523Y-105749211D01*
X131779254Y-105689631D01*
X131779249Y-105689630D01*
X131600004Y-105669435D01*
X131599996Y-105669435D01*
X131420750Y-105689630D01*
X131420745Y-105689631D01*
X131250476Y-105749211D01*
X131097737Y-105845184D01*
X130970184Y-105972737D01*
X130874211Y-106125476D01*
X130814631Y-106295745D01*
X130814630Y-106295750D01*
X130794435Y-106474996D01*
X126925500Y-106474996D01*
X126925500Y-105775493D01*
X126944508Y-105709519D01*
X126950787Y-105699525D01*
X126950788Y-105699523D01*
X126950789Y-105699522D01*
X127010368Y-105529255D01*
X127030565Y-105350000D01*
X127010368Y-105170745D01*
X126950789Y-105000478D01*
X126854816Y-104847738D01*
X126727262Y-104720184D01*
X126574523Y-104624211D01*
X126404254Y-104564631D01*
X126404249Y-104564630D01*
X126225004Y-104544435D01*
X126224996Y-104544435D01*
X126045750Y-104564630D01*
X126045745Y-104564631D01*
X125875476Y-104624211D01*
X125722737Y-104720184D01*
X125595184Y-104847737D01*
X125499211Y-105000476D01*
X125439631Y-105170745D01*
X125439630Y-105170750D01*
X125419435Y-105349996D01*
X125419435Y-105350003D01*
X125439630Y-105529249D01*
X125439631Y-105529254D01*
X125499211Y-105699523D01*
X125595184Y-105852262D01*
X125688181Y-105945259D01*
X125721666Y-106006582D01*
X125724500Y-106032940D01*
X125724500Y-110229567D01*
X125704815Y-110296606D01*
X125666473Y-110334560D01*
X125617741Y-110365180D01*
X125490184Y-110492737D01*
X125394211Y-110645476D01*
X125334631Y-110815745D01*
X125334630Y-110815750D01*
X125314435Y-110994996D01*
X111670500Y-110994996D01*
X111670500Y-110649236D01*
X111675237Y-110621366D01*
X111673819Y-110621043D01*
X111675369Y-110614252D01*
X111695565Y-110435003D01*
X111695565Y-110434996D01*
X111675369Y-110255750D01*
X111675368Y-110255745D01*
X111655695Y-110199522D01*
X111615789Y-110085478D01*
X111613893Y-110082461D01*
X111540388Y-109965478D01*
X111519816Y-109932738D01*
X111392262Y-109805184D01*
X111239523Y-109709211D01*
X111069254Y-109649631D01*
X111069249Y-109649630D01*
X110890004Y-109629435D01*
X110889996Y-109629435D01*
X110710750Y-109649630D01*
X110710745Y-109649631D01*
X110540476Y-109709211D01*
X110387737Y-109805184D01*
X110260184Y-109932737D01*
X110164211Y-110085476D01*
X110104631Y-110255745D01*
X110104630Y-110255750D01*
X110084435Y-110434996D01*
X110084435Y-110435003D01*
X110104630Y-110614249D01*
X110104633Y-110614262D01*
X110162541Y-110779749D01*
X110169500Y-110820704D01*
X110169500Y-120572770D01*
X110149815Y-120639809D01*
X110133181Y-120660451D01*
X109755451Y-121038181D01*
X109694128Y-121071666D01*
X109667770Y-121074500D01*
X100399972Y-121074500D01*
X100359017Y-121067542D01*
X100279254Y-121039631D01*
X100279249Y-121039630D01*
X100100004Y-121019435D01*
X100099996Y-121019435D01*
X99920750Y-121039630D01*
X99920745Y-121039631D01*
X99750476Y-121099211D01*
X99597737Y-121195184D01*
X99470184Y-121322737D01*
X99374211Y-121475476D01*
X99314631Y-121645745D01*
X99314630Y-121645750D01*
X99294435Y-121824996D01*
X92015254Y-121824996D01*
X92049172Y-121791078D01*
X92176433Y-121615919D01*
X92274726Y-121423009D01*
X92341630Y-121217097D01*
X92375500Y-121003254D01*
X92375500Y-120786746D01*
X92341630Y-120572903D01*
X92285636Y-120400569D01*
X92274727Y-120366993D01*
X92274726Y-120366990D01*
X92176432Y-120174080D01*
X92146225Y-120132504D01*
X92049172Y-119998922D01*
X91896078Y-119845828D01*
X91730208Y-119725316D01*
X91687545Y-119669988D01*
X91681566Y-119600375D01*
X91714172Y-119538580D01*
X91730205Y-119524686D01*
X91896078Y-119404172D01*
X92049172Y-119251078D01*
X92176433Y-119075919D01*
X92274726Y-118883009D01*
X92341630Y-118677097D01*
X92375500Y-118463254D01*
X92375500Y-118324996D01*
X97569435Y-118324996D01*
X97569435Y-118325003D01*
X97589630Y-118504249D01*
X97589631Y-118504254D01*
X97649211Y-118674523D01*
X97676978Y-118718713D01*
X97745184Y-118827262D01*
X97872738Y-118954816D01*
X98025478Y-119050789D01*
X98195745Y-119110368D01*
X98195750Y-119110369D01*
X98374996Y-119130565D01*
X98375000Y-119130565D01*
X98375004Y-119130565D01*
X98554249Y-119110369D01*
X98554252Y-119110368D01*
X98554255Y-119110368D01*
X98724522Y-119050789D01*
X98853883Y-118969505D01*
X98919855Y-118950500D01*
X105063331Y-118950500D01*
X105063347Y-118950501D01*
X105070943Y-118950501D01*
X105229054Y-118950501D01*
X105229057Y-118950501D01*
X105381785Y-118909577D01*
X105440806Y-118875501D01*
X105518716Y-118830520D01*
X105630520Y-118718716D01*
X105630520Y-118718714D01*
X105640724Y-118708511D01*
X105640728Y-118708506D01*
X105908506Y-118440728D01*
X105908511Y-118440724D01*
X105918714Y-118430520D01*
X105918716Y-118430520D01*
X106030520Y-118318716D01*
X106109577Y-118181784D01*
X106146706Y-118043216D01*
X106150500Y-118029058D01*
X106150500Y-117870943D01*
X106150500Y-110149500D01*
X106170185Y-110082461D01*
X106222989Y-110036706D01*
X106274500Y-110025500D01*
X106467588Y-110025500D01*
X106534627Y-110045185D01*
X106544903Y-110052555D01*
X106547736Y-110054814D01*
X106547738Y-110054816D01*
X106629649Y-110106284D01*
X106698426Y-110149500D01*
X106700478Y-110150789D01*
X106839749Y-110199522D01*
X106870745Y-110210368D01*
X106870750Y-110210369D01*
X107049996Y-110230565D01*
X107050000Y-110230565D01*
X107050004Y-110230565D01*
X107229249Y-110210369D01*
X107229252Y-110210368D01*
X107229255Y-110210368D01*
X107399522Y-110150789D01*
X107552262Y-110054816D01*
X107679816Y-109927262D01*
X107775789Y-109774522D01*
X107835368Y-109604255D01*
X107835369Y-109604249D01*
X107855565Y-109425003D01*
X107855565Y-109424996D01*
X107835369Y-109245750D01*
X107835368Y-109245745D01*
X107775788Y-109075476D01*
X107679815Y-108922737D01*
X107552262Y-108795184D01*
X107399523Y-108699211D01*
X107229254Y-108639631D01*
X107229249Y-108639630D01*
X107050004Y-108619435D01*
X107049996Y-108619435D01*
X106870750Y-108639630D01*
X106870745Y-108639631D01*
X106700476Y-108699211D01*
X106547736Y-108795185D01*
X106544903Y-108797445D01*
X106542724Y-108798334D01*
X106541842Y-108798889D01*
X106541744Y-108798734D01*
X106480217Y-108823855D01*
X106467588Y-108824500D01*
X105786669Y-108824500D01*
X105786653Y-108824499D01*
X105779057Y-108824499D01*
X105620943Y-108824499D01*
X105513587Y-108853265D01*
X105468210Y-108865424D01*
X105468209Y-108865425D01*
X105418096Y-108894359D01*
X105418095Y-108894360D01*
X105374689Y-108919420D01*
X105331285Y-108944479D01*
X105331282Y-108944481D01*
X105069481Y-109206282D01*
X105069479Y-109206285D01*
X105033745Y-109268180D01*
X105033744Y-109268182D01*
X104990423Y-109343214D01*
X104990423Y-109343215D01*
X104949499Y-109495943D01*
X104949499Y-109495945D01*
X104949499Y-109664046D01*
X104949500Y-109664059D01*
X104949500Y-117625500D01*
X104929815Y-117692539D01*
X104877011Y-117738294D01*
X104825500Y-117749500D01*
X102606940Y-117749500D01*
X102539901Y-117729815D01*
X102494146Y-117677011D01*
X102484202Y-117607853D01*
X102513227Y-117544297D01*
X102519259Y-117537819D01*
X102554816Y-117502262D01*
X102650789Y-117349522D01*
X102710368Y-117179255D01*
X102715919Y-117129988D01*
X102730565Y-117000003D01*
X102730565Y-116999996D01*
X102710369Y-116820750D01*
X102710368Y-116820745D01*
X102650789Y-116650478D01*
X102631993Y-116620565D01*
X102617645Y-116597730D01*
X102554816Y-116497738D01*
X102554814Y-116497736D01*
X102554813Y-116497734D01*
X102552550Y-116494896D01*
X102551659Y-116492715D01*
X102551111Y-116491842D01*
X102551264Y-116491745D01*
X102526144Y-116430209D01*
X102525500Y-116417587D01*
X102525500Y-111240899D01*
X102545185Y-111173860D01*
X102597989Y-111128105D01*
X102635617Y-111117679D01*
X102789249Y-111100369D01*
X102789252Y-111100368D01*
X102789255Y-111100368D01*
X102959522Y-111040789D01*
X103112262Y-110944816D01*
X103239816Y-110817262D01*
X103335789Y-110664522D01*
X103395368Y-110494255D01*
X103402044Y-110435003D01*
X103415565Y-110315003D01*
X103415565Y-110314996D01*
X103395369Y-110135750D01*
X103395368Y-110135745D01*
X103367049Y-110054814D01*
X103335789Y-109965478D01*
X103315216Y-109932737D01*
X103239815Y-109812737D01*
X103112262Y-109685184D01*
X102959523Y-109589211D01*
X102789254Y-109529631D01*
X102789249Y-109529630D01*
X102610004Y-109509435D01*
X102609996Y-109509435D01*
X102430750Y-109529630D01*
X102430745Y-109529631D01*
X102260476Y-109589211D01*
X102107736Y-109685185D01*
X102104903Y-109687445D01*
X102102724Y-109688334D01*
X102101842Y-109688889D01*
X102101744Y-109688734D01*
X102040217Y-109713855D01*
X102027588Y-109714500D01*
X102005943Y-109714500D01*
X101853215Y-109755423D01*
X101828113Y-109769916D01*
X101828112Y-109769916D01*
X101716290Y-109834475D01*
X101716282Y-109834481D01*
X101444479Y-110106284D01*
X101427471Y-110135745D01*
X101414517Y-110158182D01*
X101390649Y-110199522D01*
X101372727Y-110230565D01*
X101365423Y-110243215D01*
X101324499Y-110395943D01*
X101324499Y-110395945D01*
X101324499Y-110564046D01*
X101324500Y-110564059D01*
X101324500Y-116417587D01*
X101304815Y-116484626D01*
X101297450Y-116494896D01*
X101295186Y-116497734D01*
X101199211Y-116650476D01*
X101139631Y-116820745D01*
X101139630Y-116820750D01*
X101119435Y-116999996D01*
X101119435Y-117000003D01*
X101139630Y-117179249D01*
X101139631Y-117179254D01*
X101199211Y-117349523D01*
X101295184Y-117502262D01*
X101330741Y-117537819D01*
X101364226Y-117599142D01*
X101359242Y-117668834D01*
X101317370Y-117724767D01*
X101251906Y-117749184D01*
X101243060Y-117749500D01*
X98982940Y-117749500D01*
X98915901Y-117729815D01*
X98895259Y-117713181D01*
X98877262Y-117695184D01*
X98724523Y-117599211D01*
X98554254Y-117539631D01*
X98554249Y-117539630D01*
X98375004Y-117519435D01*
X98374996Y-117519435D01*
X98195750Y-117539630D01*
X98195745Y-117539631D01*
X98025476Y-117599211D01*
X97872737Y-117695184D01*
X97745184Y-117822737D01*
X97649211Y-117975476D01*
X97589631Y-118145745D01*
X97589630Y-118145750D01*
X97569435Y-118324996D01*
X92375500Y-118324996D01*
X92375500Y-118246746D01*
X92341630Y-118032903D01*
X92274726Y-117826991D01*
X92274726Y-117826990D01*
X92198307Y-117677011D01*
X92176433Y-117634081D01*
X92049172Y-117458922D01*
X91896078Y-117305828D01*
X91730208Y-117185316D01*
X91687545Y-117129988D01*
X91681566Y-117060375D01*
X91714172Y-116998580D01*
X91730205Y-116984686D01*
X91896078Y-116864172D01*
X92049172Y-116711078D01*
X92176433Y-116535919D01*
X92274726Y-116343009D01*
X92341630Y-116137097D01*
X92375500Y-115923254D01*
X92375500Y-115814996D01*
X98069435Y-115814996D01*
X98069435Y-115815003D01*
X98089630Y-115994249D01*
X98089631Y-115994254D01*
X98149211Y-116164523D01*
X98202606Y-116249500D01*
X98245184Y-116317262D01*
X98372738Y-116444816D01*
X98525478Y-116540789D01*
X98695745Y-116600368D01*
X98695750Y-116600369D01*
X98874996Y-116620565D01*
X98875000Y-116620565D01*
X98875004Y-116620565D01*
X99054249Y-116600369D01*
X99054252Y-116600368D01*
X99054255Y-116600368D01*
X99224522Y-116540789D01*
X99377262Y-116444816D01*
X99504816Y-116317262D01*
X99600789Y-116164522D01*
X99660368Y-115994255D01*
X99671696Y-115893716D01*
X99680565Y-115815003D01*
X99680565Y-115814996D01*
X99660368Y-115635747D01*
X99660368Y-115635745D01*
X99632458Y-115555982D01*
X99625500Y-115515028D01*
X99625500Y-108699500D01*
X99645185Y-108632461D01*
X99697989Y-108586706D01*
X99749500Y-108575500D01*
X100100028Y-108575500D01*
X100140983Y-108582458D01*
X100220745Y-108610368D01*
X100220750Y-108610369D01*
X100399996Y-108630565D01*
X100400000Y-108630565D01*
X100400004Y-108630565D01*
X100579249Y-108610369D01*
X100579252Y-108610368D01*
X100579255Y-108610368D01*
X100749522Y-108550789D01*
X100902262Y-108454816D01*
X101029816Y-108327262D01*
X101125789Y-108174522D01*
X101185368Y-108004255D01*
X101185369Y-108004249D01*
X101205565Y-107825003D01*
X101205565Y-107824996D01*
X101185369Y-107645750D01*
X101185368Y-107645745D01*
X101180483Y-107631784D01*
X101125789Y-107475478D01*
X101029816Y-107322738D01*
X100902262Y-107195184D01*
X100846138Y-107159919D01*
X100749523Y-107099211D01*
X100579254Y-107039631D01*
X100579249Y-107039630D01*
X100400004Y-107019435D01*
X100399996Y-107019435D01*
X100220750Y-107039630D01*
X100220745Y-107039631D01*
X100140983Y-107067542D01*
X100100028Y-107074500D01*
X99201080Y-107074500D01*
X99056092Y-107103340D01*
X99056082Y-107103343D01*
X98919511Y-107159912D01*
X98919498Y-107159919D01*
X98796584Y-107242048D01*
X98796580Y-107242051D01*
X98292047Y-107746584D01*
X98292042Y-107746590D01*
X98264256Y-107788179D01*
X98264254Y-107788182D01*
X98239656Y-107824996D01*
X98209914Y-107869507D01*
X98153343Y-108006082D01*
X98153340Y-108006092D01*
X98124500Y-108151079D01*
X98124500Y-115515028D01*
X98117542Y-115555982D01*
X98089631Y-115635747D01*
X98069435Y-115814996D01*
X92375500Y-115814996D01*
X92375500Y-115706746D01*
X92341630Y-115492903D01*
X92274726Y-115286991D01*
X92274726Y-115286990D01*
X92176432Y-115094080D01*
X92049172Y-114918922D01*
X91896078Y-114765828D01*
X91720919Y-114638567D01*
X91528009Y-114540273D01*
X91528006Y-114540272D01*
X91322098Y-114473370D01*
X91215175Y-114456435D01*
X91108254Y-114439500D01*
X90391746Y-114439500D01*
X90320465Y-114450790D01*
X90177901Y-114473370D01*
X89971993Y-114540272D01*
X89971990Y-114540273D01*
X89779080Y-114638567D01*
X89679145Y-114711174D01*
X89603922Y-114765828D01*
X89603920Y-114765830D01*
X89603919Y-114765830D01*
X89450830Y-114918919D01*
X89450830Y-114918920D01*
X89450828Y-114918922D01*
X89396174Y-114994145D01*
X89323567Y-115094080D01*
X89225273Y-115286990D01*
X89225272Y-115286993D01*
X89158370Y-115492901D01*
X89148379Y-115555982D01*
X89124500Y-115706746D01*
X82005500Y-115706746D01*
X82005500Y-91704500D01*
X82025185Y-91637461D01*
X82077989Y-91591706D01*
X82129500Y-91580500D01*
X102795500Y-91580500D01*
X102862539Y-91600185D01*
X102908294Y-91652989D01*
X102919500Y-91704500D01*
X102919500Y-96376000D01*
X102919501Y-96376009D01*
X102931052Y-96483450D01*
X102931054Y-96483462D01*
X102942260Y-96534972D01*
X102976383Y-96637497D01*
X102976386Y-96637503D01*
X103054171Y-96758537D01*
X103054179Y-96758548D01*
X103099923Y-96811340D01*
X103099926Y-96811343D01*
X103099930Y-96811347D01*
X103208664Y-96905567D01*
X103208667Y-96905568D01*
X103208668Y-96905569D01*
X103302925Y-96948616D01*
X103339541Y-96965338D01*
X103406580Y-96985023D01*
X103406584Y-96985024D01*
X103549000Y-97005500D01*
X103549003Y-97005500D01*
X107850990Y-97005500D01*
X107851000Y-97005500D01*
X107958456Y-96993947D01*
X108009967Y-96982741D01*
X108062164Y-96965368D01*
X108112497Y-96948616D01*
X108112501Y-96948613D01*
X108112504Y-96948613D01*
X108233543Y-96870825D01*
X108286347Y-96825070D01*
X108380567Y-96716336D01*
X108440338Y-96585459D01*
X108460023Y-96518420D01*
X108460024Y-96518416D01*
X108472762Y-96429817D01*
X108501787Y-96366263D01*
X108560565Y-96328488D01*
X108630434Y-96328488D01*
X108689213Y-96366262D01*
X108718238Y-96429817D01*
X108719500Y-96447465D01*
X108719500Y-97370500D01*
X108699815Y-97437539D01*
X108647011Y-97483294D01*
X108595500Y-97494500D01*
X105574000Y-97494500D01*
X105573991Y-97494500D01*
X105573990Y-97494501D01*
X105466549Y-97506052D01*
X105466537Y-97506054D01*
X105415027Y-97517260D01*
X105312502Y-97551383D01*
X105312496Y-97551386D01*
X105191462Y-97629171D01*
X105191451Y-97629179D01*
X105138659Y-97674923D01*
X105044433Y-97783664D01*
X105044430Y-97783668D01*
X104984664Y-97914534D01*
X104984662Y-97914541D01*
X104964977Y-97981580D01*
X104964976Y-97981584D01*
X104944500Y-98124000D01*
X104944500Y-102401000D01*
X104944501Y-102401009D01*
X104956052Y-102508450D01*
X104956054Y-102508462D01*
X104967260Y-102559972D01*
X105001383Y-102662497D01*
X105001386Y-102662503D01*
X105079171Y-102783537D01*
X105079179Y-102783548D01*
X105124923Y-102836340D01*
X105124926Y-102836343D01*
X105124930Y-102836347D01*
X105233664Y-102930567D01*
X105233667Y-102930568D01*
X105233668Y-102930569D01*
X105327925Y-102973616D01*
X105364541Y-102990338D01*
X105431580Y-103010023D01*
X105431584Y-103010024D01*
X105574000Y-103030500D01*
X105574003Y-103030500D01*
X111025500Y-103030500D01*
X111092539Y-103050185D01*
X111138294Y-103102989D01*
X111149500Y-103154500D01*
X111149500Y-103324901D01*
X111129815Y-103391940D01*
X111113180Y-103412583D01*
X111056463Y-103469299D01*
X110995140Y-103502783D01*
X110982667Y-103504837D01*
X110895750Y-103514630D01*
X110725478Y-103574210D01*
X110572737Y-103670184D01*
X110445184Y-103797737D01*
X110349211Y-103950476D01*
X110289631Y-104120745D01*
X110289630Y-104120750D01*
X110269435Y-104299996D01*
X110269435Y-104300003D01*
X110289630Y-104479249D01*
X110289631Y-104479254D01*
X110349211Y-104649523D01*
X110393611Y-104720184D01*
X110445184Y-104802262D01*
X110572738Y-104929816D01*
X110663080Y-104986582D01*
X110685192Y-105000476D01*
X110725478Y-105025789D01*
X110895745Y-105085368D01*
X110895750Y-105085369D01*
X111074996Y-105105565D01*
X111075000Y-105105565D01*
X111075004Y-105105565D01*
X111254249Y-105085369D01*
X111254252Y-105085368D01*
X111254255Y-105085368D01*
X111424522Y-105025789D01*
X111577262Y-104929816D01*
X111704816Y-104802262D01*
X111800789Y-104649522D01*
X111860368Y-104479255D01*
X111870161Y-104392329D01*
X111897226Y-104327918D01*
X111905690Y-104318543D01*
X112108506Y-104115728D01*
X112108511Y-104115724D01*
X112118714Y-104105520D01*
X112118716Y-104105520D01*
X112230520Y-103993716D01*
X112287513Y-103895000D01*
X112309577Y-103856785D01*
X112350500Y-103704057D01*
X112350500Y-103545943D01*
X112350500Y-103154500D01*
X112370185Y-103087461D01*
X112422989Y-103041706D01*
X112474500Y-103030500D01*
X117850990Y-103030500D01*
X117851000Y-103030500D01*
X117958456Y-103018947D01*
X118009967Y-103007741D01*
X118058144Y-102991706D01*
X118112497Y-102973616D01*
X118112501Y-102973613D01*
X118112504Y-102973613D01*
X118233543Y-102895825D01*
X118286347Y-102850070D01*
X118380567Y-102741336D01*
X118440338Y-102610459D01*
X118460023Y-102543420D01*
X118460024Y-102543416D01*
X118480500Y-102401000D01*
X118480500Y-93375000D01*
X118480500Y-91499000D01*
X118468947Y-91391544D01*
X118457741Y-91340033D01*
X118444084Y-91299000D01*
X118423616Y-91237502D01*
X118423613Y-91237496D01*
X118394081Y-91191544D01*
X118345825Y-91116457D01*
X118345820Y-91116451D01*
X118300076Y-91063659D01*
X118300072Y-91063656D01*
X118300070Y-91063653D01*
X118191336Y-90969433D01*
X118191333Y-90969431D01*
X118191331Y-90969430D01*
X118060465Y-90909664D01*
X118060460Y-90909662D01*
X118060459Y-90909662D01*
X117993420Y-90889977D01*
X117993422Y-90889977D01*
X117993417Y-90889976D01*
X117931347Y-90881052D01*
X117851000Y-90869500D01*
X110599000Y-90869500D01*
X110598991Y-90869500D01*
X110598990Y-90869501D01*
X110491549Y-90881052D01*
X110491537Y-90881054D01*
X110440027Y-90892260D01*
X110337502Y-90926383D01*
X110337496Y-90926386D01*
X110216462Y-91004171D01*
X110216451Y-91004179D01*
X110163659Y-91049923D01*
X110069433Y-91158664D01*
X110069430Y-91158668D01*
X110009664Y-91289534D01*
X109989976Y-91356581D01*
X109972263Y-91479779D01*
X109943238Y-91543334D01*
X109884459Y-91581108D01*
X109835642Y-91585351D01*
X109650004Y-91564435D01*
X109649996Y-91564435D01*
X109470750Y-91584630D01*
X109470745Y-91584631D01*
X109300476Y-91644211D01*
X109147737Y-91740184D01*
X109020184Y-91867737D01*
X108924211Y-92020476D01*
X108864631Y-92190745D01*
X108864630Y-92190750D01*
X108844435Y-92369996D01*
X108844435Y-92370003D01*
X108864630Y-92549249D01*
X108864633Y-92549262D01*
X108924210Y-92719521D01*
X108925449Y-92722094D01*
X108925750Y-92723922D01*
X108926510Y-92726094D01*
X108926129Y-92726227D01*
X108936801Y-92791035D01*
X108909079Y-92855169D01*
X108907441Y-92857098D01*
X108819435Y-92958660D01*
X108819430Y-92958668D01*
X108759664Y-93089534D01*
X108739976Y-93156582D01*
X108727238Y-93245181D01*
X108698213Y-93308737D01*
X108639435Y-93346511D01*
X108569565Y-93346511D01*
X108510787Y-93308737D01*
X108481762Y-93245181D01*
X108480500Y-93227534D01*
X108480500Y-87099010D01*
X108480500Y-87099000D01*
X108468947Y-86991544D01*
X108457741Y-86940033D01*
X108457637Y-86939722D01*
X108423616Y-86837502D01*
X108423613Y-86837496D01*
X108345828Y-86716462D01*
X108345825Y-86716457D01*
X108345820Y-86716451D01*
X108300076Y-86663659D01*
X108300072Y-86663656D01*
X108300070Y-86663653D01*
X108191336Y-86569433D01*
X108191333Y-86569431D01*
X108191331Y-86569430D01*
X108060465Y-86509664D01*
X108060460Y-86509662D01*
X108060459Y-86509662D01*
X107993420Y-86489977D01*
X107993422Y-86489977D01*
X107993417Y-86489976D01*
X107945944Y-86483150D01*
X107851000Y-86469500D01*
X107850998Y-86469500D01*
X82129500Y-86469500D01*
X82062461Y-86449815D01*
X82016706Y-86397011D01*
X82005500Y-86345500D01*
X82005500Y-80704500D01*
X82025185Y-80637461D01*
X82077989Y-80591706D01*
X82129500Y-80580500D01*
X101125990Y-80580500D01*
X101126000Y-80580500D01*
X101233456Y-80568947D01*
X101284967Y-80557741D01*
X101319197Y-80546347D01*
X101387497Y-80523616D01*
X101387501Y-80523613D01*
X101387504Y-80523613D01*
X101508543Y-80445825D01*
X101561347Y-80400070D01*
X101655567Y-80291336D01*
X101715338Y-80160459D01*
X101735023Y-80093420D01*
X101735024Y-80093416D01*
X101755500Y-79951000D01*
X101755500Y-74149000D01*
X101743947Y-74041544D01*
X101732741Y-73990033D01*
X101724894Y-73966457D01*
X101698616Y-73887502D01*
X101698613Y-73887496D01*
X101620828Y-73766462D01*
X101620825Y-73766457D01*
X101606806Y-73750278D01*
X101575076Y-73713659D01*
X101575072Y-73713656D01*
X101575070Y-73713653D01*
X101466336Y-73619433D01*
X101466333Y-73619431D01*
X101466331Y-73619430D01*
X101335465Y-73559664D01*
X101335460Y-73559662D01*
X101335459Y-73559662D01*
X101268420Y-73539977D01*
X101268422Y-73539977D01*
X101268417Y-73539976D01*
X101206354Y-73531053D01*
X101126000Y-73519500D01*
X76824000Y-73519500D01*
X76796023Y-73522507D01*
X76727265Y-73510101D01*
X76676128Y-73462490D01*
X76658850Y-73394790D01*
X76680138Y-73329631D01*
X76782210Y-73179086D01*
X76782215Y-73179077D01*
X76885651Y-72983977D01*
X76949853Y-72862880D01*
X77082324Y-72530403D01*
X77178071Y-72185552D01*
X77235972Y-71832371D01*
X77255348Y-71475000D01*
X77235972Y-71117629D01*
X77178071Y-70764448D01*
X77082324Y-70419597D01*
X76949853Y-70087120D01*
X76782211Y-69770915D01*
X76581365Y-69474689D01*
X76581361Y-69474684D01*
X76581358Y-69474680D01*
X76349668Y-69201914D01*
X76223471Y-69082374D01*
X76089837Y-68955789D01*
X76089830Y-68955783D01*
X76089827Y-68955781D01*
X75954853Y-68853177D01*
X75804919Y-68739200D01*
X75629418Y-68633604D01*
X75498254Y-68554685D01*
X75454026Y-68534223D01*
X75404993Y-68511538D01*
X75352417Y-68465525D01*
X75333063Y-68398390D01*
X75353077Y-68331448D01*
X75406105Y-68285954D01*
X75457061Y-68275000D01*
X166042939Y-68275000D01*
X166109978Y-68294685D01*
G37*
%TD.AperFunction*%
%TD*%
%TA.AperFunction,Conductor*%
%TO.N,/V_out*%
G36*
X151275000Y-77725000D02*
G01*
X151275000Y-96376000D01*
X151255315Y-96443039D01*
X151202511Y-96488794D01*
X151151000Y-96500000D01*
X146695000Y-96500000D01*
X146695000Y-74225000D01*
X151275000Y-74225000D01*
X151275000Y-77725000D01*
G37*
%TD.AperFunction*%
%TD*%
%TA.AperFunction,Conductor*%
%TO.N,/V_out*%
G36*
X164743039Y-74244685D02*
G01*
X164788794Y-74297489D01*
X164800000Y-74349000D01*
X164800000Y-77725000D01*
X140074000Y-77725000D01*
X140006961Y-77705315D01*
X139961206Y-77652511D01*
X139950000Y-77601000D01*
X139950000Y-74349000D01*
X139969685Y-74281961D01*
X140022489Y-74236206D01*
X140074000Y-74225000D01*
X164676000Y-74225000D01*
X164743039Y-74244685D01*
G37*
%TD.AperFunction*%
%TD*%
%TA.AperFunction,Conductor*%
%TO.N,/HS2*%
G36*
X129700000Y-102475000D02*
G01*
X123550000Y-102475000D01*
X123474000Y-102475000D01*
X123406961Y-102455315D01*
X123361206Y-102402511D01*
X123350000Y-102351000D01*
X123350000Y-91299000D01*
X123369685Y-91231961D01*
X123422489Y-91186206D01*
X123474000Y-91175000D01*
X129700000Y-91175000D01*
X129700000Y-102475000D01*
G37*
%TD.AperFunction*%
%TD*%
%TA.AperFunction,Conductor*%
%TO.N,/HS1*%
G36*
X111149500Y-102401000D02*
G01*
X111129815Y-102468039D01*
X111077011Y-102513794D01*
X111025500Y-102525000D01*
X109225000Y-102525000D01*
X109225000Y-93375000D01*
X111149500Y-93375000D01*
X111149500Y-102401000D01*
G37*
%TD.AperFunction*%
%TA.AperFunction,Conductor*%
G36*
X117975000Y-102401000D02*
G01*
X117955315Y-102468039D01*
X117902511Y-102513794D01*
X117851000Y-102525000D01*
X112474500Y-102525000D01*
X112407461Y-102505315D01*
X112361706Y-102452511D01*
X112350500Y-102401000D01*
X112350500Y-93375000D01*
X117975000Y-93375000D01*
X117975000Y-102401000D01*
G37*
%TD.AperFunction*%
%TD*%
%TA.AperFunction,Conductor*%
%TO.N,/V_in*%
G36*
X107918039Y-86994685D02*
G01*
X107963794Y-87047489D01*
X107975000Y-87099000D01*
X107975000Y-96376000D01*
X107955315Y-96443039D01*
X107902511Y-96488794D01*
X107851000Y-96500000D01*
X103549000Y-96500000D01*
X103481961Y-96480315D01*
X103436206Y-96427511D01*
X103425000Y-96376000D01*
X103425000Y-91075000D01*
X103425000Y-86975000D01*
X107851000Y-86975000D01*
X107918039Y-86994685D01*
G37*
%TD.AperFunction*%
%TD*%
%TA.AperFunction,Conductor*%
%TO.N,/V_in*%
G36*
X101193039Y-74044685D02*
G01*
X101238794Y-74097489D01*
X101250000Y-74149000D01*
X101250000Y-79951000D01*
X101230315Y-80018039D01*
X101177511Y-80063794D01*
X101126000Y-80075000D01*
X76700000Y-80075000D01*
X76700000Y-74149000D01*
X76719685Y-74081961D01*
X76772489Y-74036206D01*
X76824000Y-74025000D01*
X101126000Y-74025000D01*
X101193039Y-74044685D01*
G37*
%TD.AperFunction*%
%TD*%
%TA.AperFunction,Conductor*%
%TO.N,/V_in*%
G36*
X107918039Y-86994685D02*
G01*
X107963794Y-87047489D01*
X107975000Y-87099000D01*
X107975000Y-91075000D01*
X76700000Y-91075000D01*
X76700000Y-86975000D01*
X81500000Y-86975000D01*
X107851000Y-86975000D01*
X107918039Y-86994685D01*
G37*
%TD.AperFunction*%
%TD*%
%TA.AperFunction,Conductor*%
%TO.N,/HS2*%
G36*
X132218039Y-91194685D02*
G01*
X132263794Y-91247489D01*
X132275000Y-91299000D01*
X132275000Y-95051000D01*
X132255315Y-95118039D01*
X132202511Y-95163794D01*
X132151000Y-95175000D01*
X123350000Y-95175000D01*
X123350000Y-91299000D01*
X123369685Y-91231961D01*
X123422489Y-91186206D01*
X123474000Y-91175000D01*
X132151000Y-91175000D01*
X132218039Y-91194685D01*
G37*
%TD.AperFunction*%
%TD*%
%TA.AperFunction,Conductor*%
%TO.N,/V_out*%
G36*
X164800000Y-119871000D02*
G01*
X164780315Y-119938039D01*
X164727511Y-119983794D01*
X164676000Y-119995000D01*
X160049000Y-119995000D01*
X159981961Y-119975315D01*
X159936206Y-119922511D01*
X159925000Y-119871000D01*
X159925000Y-77725000D01*
X159925000Y-77475000D01*
X164800000Y-77475000D01*
X164800000Y-119871000D01*
G37*
%TD.AperFunction*%
%TD*%
M02*
