%TF.GenerationSoftware,KiCad,Pcbnew,8.0.2*%
%TF.CreationDate,2024-06-09T17:22:24+08:00*%
%TF.ProjectId,MW_Buck_Boost_PB,4d575f42-7563-46b5-9f42-6f6f73745f50,rev?*%
%TF.SameCoordinates,Original*%
%TF.FileFunction,Soldermask,Bot*%
%TF.FilePolarity,Negative*%
%FSLAX46Y46*%
G04 Gerber Fmt 4.6, Leading zero omitted, Abs format (unit mm)*
G04 Created by KiCad (PCBNEW 8.0.2) date 2024-06-09 17:22:24*
%MOMM*%
%LPD*%
G01*
G04 APERTURE LIST*
%ADD10C,1.000000*%
%ADD11C,5.600000*%
%ADD12R,2.250000X1.750000*%
%ADD13O,2.250000X1.750000*%
G04 APERTURE END LIST*
D10*
X75840000Y-123565000D02*
X167310000Y-123565000D01*
X169750000Y-77975000D02*
X169750000Y-125135000D01*
X74520000Y-77975000D02*
X74520000Y-122765000D01*
X83750000Y-72445000D02*
X157210000Y-72445000D01*
X122110000Y-123545000D02*
X122110000Y-72755000D01*
X71580000Y-77975000D02*
X71580000Y-125205000D01*
X83740000Y-69325000D02*
X157250000Y-69325000D01*
X74960000Y-126995000D02*
X166430000Y-126995000D01*
X119170000Y-123565000D02*
X119170000Y-72765000D01*
X76070000Y-125185000D02*
X167540000Y-125185000D01*
X120640000Y-123565000D02*
X120640000Y-72775000D01*
X168250000Y-77975000D02*
X168250000Y-123105000D01*
X73090000Y-77985000D02*
X73090000Y-123075000D01*
X166750000Y-77972500D02*
X166750000Y-122595000D01*
X83750000Y-70945000D02*
X157250000Y-70945000D01*
D11*
%TO.C,H4*%
X167550000Y-71475000D03*
%TD*%
%TO.C,H3*%
X167550000Y-125075000D03*
%TD*%
%TO.C,H2*%
X73950000Y-125075000D03*
%TD*%
%TO.C,H1*%
X73950000Y-71475000D03*
%TD*%
D12*
%TO.C,PS2*%
X150750000Y-113275000D03*
D13*
X150750000Y-115815000D03*
X150750000Y-118355000D03*
X150750000Y-120895000D03*
%TD*%
D12*
%TO.C,PS1*%
X90750000Y-113275000D03*
D13*
X90750000Y-115815000D03*
X90750000Y-118355000D03*
X90750000Y-120895000D03*
%TD*%
M02*
